<svg width="162" height="160" viewBox="0 0 162 160" fill="none" xmlns="http://www.w3.org/2000/svg">
<path d="M138.114 26.6755C135.806 25.1869 133.593 23.5575 131.486 21.7965C129.378 19.8707 127.384 17.8227 125.516 15.6631C121.794 11.5357 117.942 7.25788 112.801 5.06748C107.659 2.87708 101.865 3.02785 96.2973 3.19223C93.4679 3.34443 90.6317 3.32073 87.8052 3.12126C85.0261 2.80793 82.269 2.32356 79.5495 1.6709C74.0836 0.496474 68.434 -0.736689 62.8578 0.542087C57.5165 1.7499 52.9943 5.24227 48.6198 8.61682C46.3435 10.4421 43.9637 12.1342 41.4921 13.6847C38.9568 15.1231 36.3406 16.4139 33.6565 17.5506C28.6106 19.8005 23.4025 22.1274 19.7936 26.2534C16.0224 30.5555 14.4276 36.1138 12.8683 41.4826C12.1527 44.1862 11.271 46.8431 10.2284 49.4382C9.05978 52.0194 7.73522 54.5271 6.26205 56.9474C3.47575 61.771 0.594301 66.7504 0.0832321 72.365C-0.427837 77.9797 1.50634 83.343 3.37806 88.5851C4.39291 91.2542 5.25004 93.9807 5.94501 96.7503C6.48792 99.4418 6.87214 102.163 7.09567 104.899C7.66695 110.502 8.2379 116.253 11.2245 121.255C14.2112 126.258 19.0031 129.489 23.6639 132.65C25.9659 134.146 28.1789 135.775 30.2916 137.529C32.4 139.455 34.3935 141.503 36.2616 143.662C39.9882 147.797 43.8356 152.067 48.9697 154.262C54.1037 156.457 59.9124 156.297 65.4804 156.133C68.3099 155.984 71.1459 156.008 73.9725 156.204C76.7516 156.517 79.5087 157.002 82.2282 157.654C87.6868 158.833 93.3437 160.062 98.92 158.783C104.269 157.571 108.783 154.083 113.158 150.708C115.432 148.885 117.809 147.194 120.278 145.645C122.816 144.205 125.435 142.913 128.121 141.775C130.838 140.628 133.486 139.322 136.049 137.864C138.267 136.589 140.27 134.971 141.984 133.072C145.755 128.77 147.354 123.219 148.909 117.843C149.625 115.141 150.505 112.486 151.542 109.891C152.715 107.31 154.042 104.801 155.516 102.378C158.302 97.5543 161.183 92.5749 161.695 86.9602C162.206 81.3456 160.271 75.9823 158.4 70.7402C157.385 68.0711 156.528 65.3446 155.833 62.5749C155.284 59.8845 154.899 57.1631 154.682 54.4259C154.111 48.8234 153.54 43.0722 150.553 38.0698C147.567 33.0675 142.762 29.8144 138.114 26.6755ZM151.491 54.7559C151.721 57.6274 152.126 60.4823 152.702 63.3047C153.426 66.1941 154.318 69.039 155.372 71.8247C157.213 76.9661 158.942 81.8184 158.504 86.6762C158.066 91.534 155.461 96.0312 152.748 100.761C151.216 103.3 149.833 105.925 148.606 108.623C147.52 111.34 146.595 114.118 145.837 116.943C144.386 121.98 142.879 127.188 139.583 130.959C136.445 134.546 131.767 136.616 126.834 138.839C124.028 140.023 121.295 141.374 118.649 142.883C116.068 144.495 113.585 146.259 111.213 148.165C106.925 151.468 102.875 154.589 98.2281 155.65C93.3451 156.763 88.0454 155.618 82.9236 154.505C80.0765 153.833 77.1922 153.328 74.2858 152.996C71.3279 152.796 68.361 152.768 65.3999 152.912C59.9427 153.08 54.7861 153.236 50.2553 151.305C45.7246 149.374 42.3196 145.563 38.6716 141.51C36.7164 139.258 34.6311 137.123 32.4265 135.115C30.218 133.267 27.8991 131.555 25.4828 129.989C21.1278 127.042 16.6243 123.995 14.0039 119.606C11.3835 115.217 10.8337 109.8 10.3054 104.568C10.0761 101.697 9.6692 98.8438 9.08707 96.0235C8.3653 93.13 7.47483 90.2813 6.42025 87.4919C4.58331 82.3578 2.85515 77.5055 3.2931 72.6477C3.73105 67.7899 6.32705 63.2781 9.06354 58.5537C10.5986 56.0173 11.9817 53.3921 13.2057 50.6918C14.2916 47.9754 15.2162 45.1973 15.9748 42.3719C17.4254 37.3354 18.9319 32.1269 22.2279 28.3562C25.3659 24.7689 30.0439 22.699 34.9775 20.4766C37.7808 19.2928 40.5113 17.9437 43.1548 16.4364C45.7383 14.8233 48.2238 13.0582 50.5981 11.1504C54.8791 7.85151 58.9365 4.72572 63.5832 3.66517C68.4662 2.55263 73.766 3.69753 78.8878 4.80995C81.7348 5.48261 84.6191 5.98665 87.5255 6.31946C90.4832 6.52306 93.4504 6.55094 96.4114 6.40297C101.869 6.23542 107.025 6.07889 111.556 8.00978C116.087 9.94068 119.492 13.7522 123.144 17.8123C125.096 20.0623 127.177 22.1966 129.378 24.2045C131.587 26.0537 133.908 27.7643 136.329 29.3264C140.683 32.2736 145.187 35.3203 147.812 39.7165C150.436 44.1128 150.963 49.524 151.491 54.7559Z" fill="#C4C4C4"/>
<path d="M123.892 30.4805C122.075 28.8129 120.355 27.0412 118.743 25.1744C115.587 21.6799 112.348 18.0963 108.031 16.2257C103.715 14.3551 98.8266 14.5297 94.0974 14.639C91.6517 14.7655 89.2006 14.7436 86.7576 14.5734C84.3571 14.2976 81.9748 13.8808 79.6232 13.3253C74.9941 12.3249 70.2135 11.2861 65.5479 12.3481C61.0851 13.3682 57.2468 16.3136 53.5546 19.1718C51.5884 20.7514 49.5314 22.2144 47.394 23.5533C45.2036 24.7979 42.9422 25.9132 40.6215 26.8935C36.3581 28.795 31.9399 30.7692 28.9247 34.2138C25.7764 37.8171 24.4228 42.5183 23.1074 47.0679C22.4786 49.4176 21.7114 51.728 20.8096 53.9871C19.7951 56.2158 18.6517 58.3836 17.3851 60.4794C15.0278 64.5614 12.5813 68.7759 12.1713 73.4981C11.7614 78.2204 13.3882 82.737 14.967 87.1732C15.8454 89.4782 16.5893 91.8322 17.195 94.2233C17.667 96.5503 17.997 98.9037 18.1833 101.271C18.666 105.995 19.1572 110.882 21.6468 115.052C24.1363 119.222 28.232 122.017 32.1355 124.639C34.1307 125.926 36.046 127.333 37.8705 128.853C39.688 130.521 41.4073 132.292 43.0196 134.159C46.1758 137.653 49.415 141.237 53.7314 143.108C58.0479 144.978 62.9405 144.811 67.6654 144.694C70.1064 144.567 72.5527 144.582 74.9921 144.738C77.3926 145.014 79.7749 145.431 82.1265 145.986C86.7555 146.987 91.5362 148.025 96.2018 146.963C100.665 145.943 104.503 142.998 108.195 140.14C110.159 138.562 112.214 137.1 114.348 135.763C116.535 134.507 118.793 133.38 121.111 132.389C123.418 131.414 125.666 130.304 127.842 129.063C129.7 128.01 131.382 126.672 132.825 125.098C135.966 121.499 137.331 116.8 138.647 112.251C139.266 109.916 140.026 107.62 140.921 105.375C141.936 103.144 143.082 100.975 144.353 98.8788C146.714 94.804 149.157 90.5822 149.567 85.86C149.977 81.1378 148.35 76.6212 146.771 72.1849C145.893 69.8799 145.149 67.5259 144.543 65.1348C144.067 62.8085 143.737 60.4548 143.555 58.0874C143.072 53.3632 142.581 48.4757 140.091 44.3058C137.602 40.136 133.506 37.341 129.602 34.7186C127.614 33.4245 125.707 32.0091 123.892 30.4805ZM13.8602 73.5893C14.2547 69.2726 16.5988 65.2183 18.8653 61.2994C20.1703 59.1467 21.3475 56.919 22.3908 54.6279C23.3138 52.3188 24.1002 49.9573 24.7459 47.5557C26.0025 43.1898 27.3047 38.6679 30.2204 35.3719C32.99 32.2126 37.0387 30.3996 41.3357 28.4879C43.715 27.4787 46.0338 26.3324 48.2805 25.0547C50.4737 23.682 52.5853 22.1831 54.6047 20.5656C58.3262 17.69 61.843 14.986 65.938 14.0468C70.2286 13.0701 74.8562 14.0516 79.2607 15.0078C81.6805 15.5816 84.1326 16.0097 86.6036 16.2899C89.1167 16.461 91.6377 16.484 94.1534 16.3589C98.6785 16.2228 103.36 16.0828 107.347 17.7835C111.334 19.4842 114.297 22.7872 117.466 26.3036C118.719 27.7051 120.008 29.1345 121.373 30.459L18.4049 91.9359C17.8793 90.11 17.2254 88.3013 16.6006 86.5247C14.9809 82.103 13.476 77.89 13.8602 73.5893ZM147.884 85.6959C147.494 90.0199 145.145 94.0669 142.871 97.9901C141.572 100.145 140.399 102.374 139.357 104.665C138.432 106.973 137.645 109.334 137.002 111.737C135.738 116.107 134.436 120.629 131.528 123.921C128.758 127.08 124.71 128.893 120.413 130.805C118.031 131.815 115.709 132.963 113.46 134.242C111.27 135.614 109.161 137.111 107.144 138.727C103.422 141.603 99.9053 144.307 95.8102 145.246C91.5124 146.227 86.8921 145.241 82.4876 144.285C80.0672 143.714 77.6153 143.286 75.1446 143.003C72.6315 142.831 70.1106 142.808 67.5948 142.934C63.0698 143.07 58.393 143.217 54.4015 141.509C50.41 139.801 47.4517 136.505 44.2824 132.989C43.0223 131.592 41.733 130.162 40.375 128.833L143.343 67.3566C143.862 69.1869 144.523 70.9912 145.148 72.7677C146.801 77.229 148.316 81.4755 147.891 85.6915L147.884 85.6959ZM141.877 58.2471C142.08 60.6977 142.433 63.1335 142.933 65.5412C142.949 65.5746 142.968 65.6064 142.99 65.6361L39.1012 127.662C39.0792 127.633 39.0602 127.601 39.0446 127.567C37.1622 125.983 35.1826 124.519 33.1174 123.182C29.3407 120.622 25.4358 117.981 23.1293 114.118C20.8228 110.254 20.3459 105.557 19.8846 101.018C19.6821 98.5962 19.3303 96.1894 18.8311 93.8112C18.8091 93.7815 18.7901 93.7497 18.7744 93.7162L122.685 31.6769C122.685 31.6769 122.724 31.7426 122.746 31.7792C124.622 33.3446 126.59 34.796 128.64 36.1256C132.424 38.6806 136.333 41.3293 138.639 45.1924C140.946 49.0556 141.448 53.7287 141.902 58.2719L141.877 58.2471Z" fill="#C4C4C4"/>
<path d="M126.615 27.3591C124.66 25.5728 122.811 23.6731 121.079 21.67C117.735 17.9607 114.275 14.1227 109.755 12.1948C105.236 10.2668 100.029 10.4043 95.0281 10.5568C92.3991 10.6899 89.7645 10.6652 87.1385 10.4827C84.554 10.1877 81.9902 9.73349 79.4616 9.12261C74.5628 8.08507 69.4789 6.96982 64.5783 8.10274C59.8865 9.17048 55.8391 12.3299 51.8943 15.329C49.7827 17.0229 47.5745 18.5927 45.2807 20.0304C42.9292 21.3658 40.5021 22.5635 38.0118 23.6175C33.4827 25.6381 28.7988 27.7313 25.6329 31.355C22.3194 35.1461 20.8805 40.1359 19.4698 44.9405C18.8079 47.4562 17.9915 49.9286 17.025 52.3437C15.9398 54.742 14.7117 57.0729 13.3472 59.3241C10.8406 63.6537 8.24903 68.1232 7.80214 73.0656C7.35526 78.008 9.09223 82.8253 10.7711 87.5287C11.7117 90.0044 12.5069 92.533 13.1527 95.1014C13.6614 97.6052 14.0187 100.137 14.2229 102.684C14.7269 107.693 15.2553 112.875 17.9106 117.323C20.5659 121.77 24.8509 124.65 29.0209 127.47C31.1661 128.858 33.2256 130.374 35.1884 132.009C37.143 133.796 38.9916 135.696 40.7248 137.698C44.0687 141.408 47.529 145.246 52.048 147.174C56.5671 149.102 61.7748 148.964 66.7754 148.812C69.4044 148.678 72.039 148.703 74.665 148.886C77.2491 149.184 79.8127 149.638 82.3419 150.246C87.2407 151.283 92.3246 152.399 97.2252 151.266C99.4048 150.731 101.487 149.856 103.394 148.672C105.654 147.257 107.83 145.71 109.909 144.039C112.019 142.347 114.224 140.779 116.515 139.342C118.869 138.005 121.299 136.806 123.792 135.751C128.321 133.73 133.005 131.637 136.171 128.013C139.488 124.23 140.923 119.233 142.334 114.428C142.999 111.913 143.815 109.441 144.778 107.025C145.864 104.626 147.092 102.295 148.456 100.044C150.963 95.7147 153.554 91.2452 154.001 86.3028C154.448 81.3604 152.711 76.5431 151.032 71.8397C150.091 69.3643 149.296 66.8357 148.651 64.267C148.142 61.7632 147.785 59.231 147.581 56.6841C147.077 51.6755 146.548 46.4932 143.919 42.0897C141.29 37.6861 136.974 34.7551 132.783 31.8987C130.637 30.5107 128.578 28.9948 126.615 27.3591ZM146.45 56.7648C146.66 59.3535 147.025 61.9271 147.545 64.4718C148.196 67.0877 149.003 69.6626 149.96 72.183C151.599 76.7711 153.293 81.5155 152.87 86.1662C152.447 90.8169 149.92 95.2282 147.47 99.4544C146.084 101.743 144.836 104.112 143.732 106.55C142.748 109.004 141.911 111.514 141.227 114.068C139.866 118.774 138.464 123.643 135.316 127.246C132.308 130.686 127.945 132.637 123.32 134.695C120.784 135.766 118.314 136.986 115.922 138.349C113.591 139.807 111.347 141.401 109.204 143.123C105.193 146.211 101.41 149.133 96.9548 150.149C92.2892 151.211 87.3307 150.14 82.55 149.101C79.9774 148.491 77.3705 148.037 74.7434 147.739C72.0867 147.548 69.421 147.516 66.7604 147.642C61.8926 147.784 56.8351 147.941 52.5011 146.091C48.1671 144.241 44.8335 140.515 41.5725 136.895C39.8069 134.858 37.9228 132.926 35.9299 131.111C33.9363 129.445 31.8415 127.903 29.6575 126.495C25.591 123.733 21.3627 120.898 18.8601 116.706C16.3574 112.514 15.8448 107.442 15.3609 102.55C15.1514 99.961 14.7858 97.3873 14.2662 94.8427C13.6135 92.2271 12.8071 89.6521 11.8514 87.1314C10.2116 82.5433 8.51825 77.799 8.94116 73.1483C9.36407 68.4976 11.8913 64.0863 14.3408 59.8601C15.7139 57.5777 16.9498 55.2157 18.0422 52.7864C19.0138 50.3413 19.8357 47.8393 20.5032 45.2943C21.8641 40.5888 23.2736 35.7156 26.4219 32.1123C27.8541 30.5471 29.5231 29.2163 31.368 28.1686C33.6522 26.8702 36.0106 25.7069 38.431 24.6847C40.9642 23.6149 43.4319 22.3963 45.8212 21.0352C48.1555 19.5765 50.4015 17.9808 52.5472 16.2567C56.5506 13.1731 60.3407 10.2465 64.7962 9.23076C69.4618 8.1688 74.413 9.24438 79.2009 10.2788C81.7735 10.8886 84.3805 11.3433 87.0076 11.6406C89.6769 11.8257 92.3548 11.851 95.0271 11.7164C99.8949 11.5738 104.952 11.4171 109.286 13.2673C113.62 15.1176 116.954 18.8429 120.215 22.4631C121.98 24.501 123.864 26.4324 125.858 28.2472C127.851 29.9119 129.943 31.4547 132.123 32.8673C136.196 35.6257 140.417 38.4646 142.924 42.6637C145.432 46.8628 145.955 51.87 146.45 56.7648Z" fill="#C4C4C4"/>
<path d="M29.3318 79.7235L24.7947 79.3913L24.8006 79.368L29.4717 77.7678L29.5076 77.3799L25.1074 75.1036L25.1176 75.0875L29.6475 75.4241L29.6985 74.7795L24.2907 74.3827L24.223 75.3146L28.3244 77.4721L28.3258 77.4911L23.9539 79.0117L23.8803 79.9669L29.2881 80.3638L29.3318 79.7235Z" fill="#C4C4C4"/>
<path d="M24.7947 70.3481L24.6571 70.9797L29.9508 72.133L30.0884 71.5014L24.7947 70.3481Z" fill="#C4C4C4"/>
<path d="M26.3894 67.4508C26.5738 67.5216 26.7712 67.5523 26.9683 67.5411C27.137 67.5274 27.3018 67.4828 27.4543 67.4094C27.6067 67.3286 27.7445 67.2229 27.862 67.0967C27.9983 66.9625 28.1239 66.8179 28.2378 66.6643L28.6445 66.1342C28.7415 66.0042 28.8545 65.8868 28.9807 65.7849C29.0802 65.705 29.1982 65.6516 29.3238 65.6295C29.4643 65.611 29.6071 65.6279 29.7394 65.6786C29.8753 65.7245 29.9961 65.8064 30.089 65.9156C30.1819 66.0134 30.2519 66.1307 30.2939 66.2589C30.3346 66.3949 30.3492 66.5375 30.3368 66.6791C30.3333 66.8185 30.3089 66.9566 30.2644 67.0888C30.188 67.3082 30.0635 67.5078 29.8999 67.6729C29.7493 67.8419 29.5505 67.9606 29.3303 68.013L29.5783 68.6772C29.7346 68.6383 29.8822 68.5703 30.0134 68.4769C30.1436 68.3902 30.2616 68.2865 30.3642 68.1684C30.4643 68.0451 30.5553 67.9147 30.6363 67.7781C30.7101 67.6398 30.7733 67.496 30.8254 67.3482C30.9021 67.1189 30.9497 66.8808 30.967 66.6396C30.985 66.4138 30.9602 66.1866 30.894 65.9699C30.8275 65.7589 30.7125 65.5663 30.5583 65.4076C30.3919 65.2291 30.1806 65.0987 29.9465 65.0299C29.7333 64.9466 29.5037 64.9141 29.2757 64.9351C29.0847 64.9604 28.902 65.0288 28.7414 65.1353C28.576 65.2487 28.427 65.3843 28.2986 65.5383L27.8978 66.0451C27.7868 66.1996 27.6666 66.3474 27.538 66.4877C27.4441 66.5895 27.3381 66.6794 27.2224 66.7554C27.1259 66.8057 27.021 66.8381 26.9129 66.851C26.8036 66.851 26.695 66.832 26.5922 66.7949C26.4511 66.756 26.3245 66.6766 26.228 66.5666C26.1385 66.4733 26.0714 66.3609 26.0318 66.2379C26.0034 66.1047 25.9919 65.9684 25.9977 65.8323C26.0117 65.6902 26.0409 65.5499 26.0846 65.4139C26.1497 65.2345 26.2503 65.07 26.3803 64.9303C26.5091 64.7844 26.6801 64.6823 26.8696 64.6382L26.6114 63.99C26.3384 64.086 26.0965 64.2543 25.9116 64.4771C25.7331 64.7001 25.5958 64.9532 25.506 65.2245C25.4254 65.4445 25.3796 65.6757 25.3703 65.9098C25.366 66.1296 25.3965 66.3488 25.4608 66.5591C25.5245 66.7651 25.6367 66.9529 25.7878 67.1068C25.9543 67.2727 26.1619 67.3915 26.3894 67.4508Z" fill="#C4C4C4"/>
<path d="M30.2903 52.8135L30.0111 53.3965L32.4543 54.5666L34.8975 55.7367L35.1767 55.1537L30.2903 52.8135Z" fill="#C4C4C4"/>
<path d="M35.672 51.3958C36.0256 51.4686 36.3901 51.4699 36.7441 51.3996C37.1008 51.326 37.4399 51.1841 37.7427 50.9817C38.0594 50.7565 38.3308 50.4735 38.5425 50.1477C38.7597 49.8273 38.9117 49.4673 38.9896 49.0882C39.0636 48.732 39.0633 48.3644 38.9888 48.0084C38.9143 47.6523 38.7671 47.3155 38.5566 47.0189C38.336 46.6995 38.0552 46.4264 37.7298 46.2148C37.4046 45.998 37.0411 45.8452 36.6587 45.7647C36.3056 45.6875 35.9402 45.6862 35.5866 45.7609C35.2321 45.8316 34.896 45.9749 34.5996 46.1818C33.9539 46.6305 33.5051 47.3098 33.3454 48.0797C33.2698 48.4343 33.2688 48.8008 33.3427 49.1558C33.4165 49.5108 33.5634 49.8466 33.7741 50.1417C33.9976 50.4599 34.2809 50.7315 34.6082 50.9414C34.9289 51.1623 35.2906 51.3169 35.672 51.3958ZM33.9765 48.9708C33.9054 48.6988 33.8946 48.4145 33.9448 48.1379C33.9937 47.8429 34.1069 47.5623 34.2762 47.3159C34.4343 47.0657 34.6466 46.8543 34.8975 46.6973C35.1381 46.5345 35.411 46.4257 35.6975 46.3782C35.9757 46.3333 36.2598 46.3419 36.5347 46.4033C36.8277 46.4707 37.1064 46.5893 37.3581 46.7537C37.6067 46.916 37.8237 47.122 37.9986 47.3619C38.1677 47.5945 38.2909 47.8571 38.3616 48.1358C38.4253 48.4088 38.4361 48.6916 38.3933 48.9687C38.3417 49.2655 38.2261 49.5475 38.0546 49.7951C37.8952 50.0447 37.685 50.2579 37.4377 50.4209C37.1944 50.5803 36.9204 50.6866 36.6333 50.7328C36.355 50.7754 36.0713 50.7669 35.7961 50.7076C35.505 50.6393 35.2285 50.5191 34.98 50.3529C34.729 50.1937 34.5115 49.9871 34.3395 49.7447C34.1668 49.5143 34.0432 49.2509 33.9765 48.9708Z" fill="#C4C4C4"/>
<path d="M42.4385 45.2341L39.1705 42.1332L39.1851 42.1245L44.6052 42.94L45.168 42.3563L41.2349 38.6223L40.7933 39.094L44.0569 42.1876L44.0467 42.2036L38.6223 41.3808L38.0638 41.9718L41.9999 45.6941L42.4385 45.2341Z" fill="#C4C4C4"/>
<path d="M52.4217 35.7075C52.7588 35.7994 53.1105 35.8249 53.4572 35.7827C53.8419 35.7199 54.2102 35.5808 54.5404 35.3737C54.8762 35.1801 55.1694 34.9208 55.4027 34.6112C55.6053 34.3244 55.7484 33.9998 55.8234 33.6567C55.9135 33.3055 55.9278 32.939 55.8651 32.5818C55.8058 32.1962 55.6665 31.8272 55.4561 31.4986C55.262 31.1632 55.0027 30.8701 54.6937 30.6363C54.4049 30.4147 54.0736 30.2551 53.7203 30.1674C53.3702 30.078 53.0056 30.0598 52.6483 30.1141C52.2647 30.1809 51.8972 30.3196 51.5651 30.523C51.2279 30.7207 50.9337 30.9839 50.6999 31.2972C50.5 31.5834 50.3558 31.9047 50.2749 32.2444C50.1917 32.5953 50.18 32.9594 50.2404 33.3149C50.3011 33.7004 50.4376 34.0701 50.6421 34.4025C50.8439 34.7366 51.1065 35.0301 51.4162 35.2677C51.7146 35.4872 52.0581 35.6374 52.4217 35.7075ZM50.9306 33.2099C50.881 32.9293 50.8841 32.642 50.9397 32.3625C50.9958 32.0891 51.1076 31.8301 51.2681 31.6018C51.4373 31.3626 51.6549 31.1618 51.9069 31.0124C52.1573 30.8624 52.4352 30.7638 52.7243 30.7225C53.0036 30.688 53.287 30.711 53.5571 30.7899C53.8303 30.868 54.086 30.9978 54.3103 31.1723C54.5364 31.3545 54.7285 31.5751 54.8778 31.8241C55.1871 32.3208 55.2983 32.9156 55.1892 33.4905C55.1307 33.7632 55.0191 34.0216 54.8609 34.2512C54.506 34.7208 53.9821 35.0336 53.4003 35.1232C53.1229 35.1576 52.8415 35.1372 52.5719 35.0631C52.302 34.9801 52.0493 34.8491 51.8259 34.6764C51.6009 34.4927 51.4069 34.2741 51.2512 34.029C51.1129 33.7664 51.0231 33.4811 50.9861 33.1867L50.9306 33.2099Z" fill="#C4C4C4"/>
<path d="M60.1497 29.6374L60.9454 29.3109L63.2099 31.0297L63.9428 30.7309L61.585 28.9885C61.9165 28.8107 62.1798 28.5282 62.3336 28.1849C62.4009 28.0213 62.4338 27.8456 62.4304 27.6687C62.4271 27.4918 62.3874 27.3175 62.3139 27.1565C62.2258 26.8788 62.0529 26.6356 61.8195 26.4611C61.6367 26.324 61.419 26.2411 61.1913 26.222C60.9493 26.2087 60.7066 26.2333 60.4721 26.2948C60.2237 26.3652 59.9791 26.4484 59.7393 26.5441L58.4502 27.0562L60.4668 32.093L61.0624 31.8463L60.1497 29.6374ZM59.259 27.4154L60.0634 27.1035C60.2116 27.0441 60.3632 26.9933 60.5173 26.9513C60.6601 26.9177 60.8073 26.9067 60.9535 26.9187C61.0897 26.9339 61.2202 26.9817 61.3339 27.0581C61.4554 27.1661 61.5407 27.3089 61.5781 27.4671C61.6609 27.6343 61.6767 27.8269 61.6221 28.0054C61.5689 28.159 61.4766 28.296 61.3544 28.403C61.2126 28.5127 61.0581 28.6049 60.8943 28.6777L60.3804 28.8954L59.8431 29.1072L59.259 27.4154Z" fill="#C4C4C4"/>
<path d="M66.2109 24.4169L67.604 29.6526L68.2287 29.4864L66.8356 24.2507L66.2109 24.4169Z" fill="#C4C4C4"/>
<path d="M75.7911 27.4805L72.9226 27.8856L72.654 25.9756L75.2059 25.6209L75.1197 25.0285L72.5677 25.3832L72.3278 23.7038L75.068 23.3159L74.9817 22.7235L71.6112 23.2005L72.3668 28.5641L75.8774 28.0729L75.7911 27.4805Z" fill="#C4C4C4"/>
<path d="M80.4387 23.3189L80.4504 23.3218L83.5138 27.8722L84.3234 27.8841L84.4183 22.4684L83.7692 22.4597L83.7011 26.958L83.6821 26.9594L80.6143 22.4018L79.8047 22.3898L79.7142 27.8128L80.3633 27.8215L80.4387 23.3189Z" fill="#C4C4C4"/>
<path d="M90.3123 28.6571L91.1395 23.9037L92.898 24.2109L93.0028 23.6233L88.837 22.901L88.7322 23.4886L90.498 23.7915L89.6825 28.5478L90.3123 28.6571Z" fill="#C4C4C4"/>
<path d="M98.9746 30.9544L99.1568 30.38L96.3975 29.4916L96.9893 27.6622L99.4396 28.4479L99.626 27.8809L97.1714 27.0879L97.6913 25.47L100.318 26.3188L100.504 25.7518L97.2641 24.7047L95.6017 29.8676L98.9746 30.9544Z" fill="#C4C4C4"/>
<path d="M104.31 33.2867C104.483 33.3645 104.661 33.4303 104.843 33.4833C105.045 33.5328 105.252 33.562 105.46 33.5707C105.682 33.5808 105.905 33.5641 106.124 33.5211C106.354 33.4657 106.576 33.3799 106.784 33.2658C107.008 33.1378 107.213 32.9787 107.393 32.7931C107.609 32.5687 107.79 32.3134 107.931 32.0357C108.071 31.7665 108.169 31.4775 108.222 31.1787C108.269 30.9265 108.275 30.6685 108.241 30.4144C108.208 30.1812 108.142 29.9538 108.046 29.7386C107.953 29.5338 107.838 29.3403 107.701 29.1617C107.568 29.0022 107.42 28.8549 107.26 28.7217C107.108 28.6066 106.948 28.5038 106.78 28.4143L104.917 27.4855L102.487 32.3244L104.31 33.2867ZM106.284 28.8786C106.547 29.0065 106.789 29.1721 107.004 29.3702C107.192 29.5548 107.343 29.7741 107.449 30.0159C107.546 30.268 107.586 30.5387 107.565 30.8082C107.533 31.135 107.436 31.4521 107.28 31.7411C107.154 32.0274 106.97 32.285 106.741 32.4985C106.547 32.6852 106.312 32.8253 106.055 32.9083C105.799 32.9754 105.532 32.9863 105.272 32.9401C104.982 32.8845 104.701 32.7886 104.438 32.6553L103.348 32.1075L105.244 28.3308L106.284 28.8786Z" fill="#C4C4C4"/>
<path d="M61.864 130.763C61.7694 130.563 61.6555 130.372 61.5239 130.194C61.3823 130.041 61.2263 129.902 61.058 129.778C60.9026 129.67 60.7372 129.576 60.5642 129.499L58.6552 128.657L56.4753 133.634L58.3843 134.475C58.5596 134.552 58.743 134.609 58.9309 134.644C59.1338 134.689 59.3416 134.708 59.5493 134.701C59.7723 134.698 59.9942 134.669 60.2103 134.613C60.4375 134.552 60.6541 134.456 60.8527 134.329C61.0714 134.192 61.2672 134.022 61.4329 133.824C61.6296 133.595 61.7892 133.335 61.9057 133.056C62.0294 132.78 62.1116 132.488 62.1497 132.188C62.1796 131.932 62.1718 131.673 62.1266 131.419C62.0754 131.187 61.9867 130.966 61.864 130.763ZM61.5087 131.827C61.4941 132.153 61.4156 132.472 61.2776 132.768C61.1614 133.065 60.9855 133.335 60.761 133.562C60.568 133.751 60.3327 133.891 60.0745 133.971C59.8204 134.053 59.5516 134.078 59.2867 134.046C58.9995 134.005 58.7191 133.926 58.4529 133.81L57.2928 133.344L58.9582 129.497L60.0818 129.985C60.35 130.1 60.5995 130.255 60.8217 130.445C61.0267 130.614 61.1912 130.827 61.3032 131.068C61.4186 131.312 61.4764 131.579 61.4722 131.849L61.5087 131.827Z" fill="#C4C4C4"/>
<path d="M66.6275 131.772L65.0923 136.968L65.7122 137.151L67.2474 131.955L66.6275 131.772Z" fill="#C4C4C4"/>
<path d="M73.8428 133.29C73.4602 133.222 73.0682 133.231 72.6889 133.315C72.328 133.385 71.9846 133.526 71.6786 133.73C71.376 133.939 71.1185 134.208 70.9213 134.519C70.7086 134.857 70.5705 135.236 70.5163 135.632C70.4478 136.022 70.4544 136.422 70.5356 136.809C70.6197 137.165 70.7731 137.501 70.9871 137.798C71.2042 138.089 71.4781 138.333 71.7922 138.516C72.1391 138.715 72.5203 138.847 72.916 138.905C73.2546 138.966 73.5993 138.986 73.9427 138.965C74.2942 138.942 74.6406 138.868 74.9715 138.747L75.3857 136.123L73.5207 135.82L73.4275 136.41L74.6553 136.608L74.3892 138.253C73.9475 138.371 73.4853 138.39 73.0354 138.308C72.7273 138.264 72.4313 138.158 72.1653 137.996C71.9199 137.848 71.7079 137.651 71.5427 137.417C71.3775 137.183 71.2626 136.918 71.2055 136.637C71.1394 136.338 71.1331 136.029 71.1871 135.727C71.233 135.422 71.3366 135.128 71.4924 134.861C71.6459 134.605 71.8517 134.385 72.0962 134.213C72.3273 134.042 72.5904 133.918 72.8701 133.85C73.1573 133.785 73.4545 133.776 73.7453 133.823C74.0205 133.868 74.2844 133.966 74.5221 134.112C74.7564 134.254 74.9558 134.446 75.1058 134.675L75.6654 134.252C75.4585 133.965 75.1892 133.73 74.8778 133.563C74.5498 133.417 74.2003 133.324 73.8428 133.29Z" fill="#C4C4C4"/>
<path d="M79.982 134.049L79.8014 139.464L80.4474 139.486L80.6281 134.071L79.982 134.049Z" fill="#C4C4C4"/>
<path d="M84.2662 134.654L86.0519 134.509L86.4455 139.316L87.0786 139.265L86.685 134.458L88.4707 134.313L88.4225 133.718L84.2179 134.059L84.2662 134.654Z" fill="#C4C4C4"/>
<path d="M92.9737 132.912L91.7942 138.718L92.5034 138.562L92.7632 137.139L95.3901 136.561L96.2189 137.751L96.9544 137.589L93.5955 132.759L92.9737 132.912ZM92.8653 136.514L93.3966 133.67L95.012 136.044L92.8653 136.514Z" fill="#C4C4C4"/>
<path d="M99.7417 130.992L99.1446 131.219L101.02 136.301L103.955 135.212L103.749 134.651L101.422 135.516L99.7417 130.992Z" fill="#C4C4C4"/>
<path d="M113.474 127.181C113.277 127.167 113.079 127.182 112.886 127.225L112.253 127.375C112.071 127.435 111.884 127.477 111.694 127.501C111.558 127.529 111.418 127.536 111.28 127.52C111.175 127.504 111.075 127.466 110.985 127.409C110.894 127.345 110.818 127.262 110.761 127.166C110.676 127.049 110.627 126.909 110.621 126.765C110.611 126.635 110.631 126.504 110.68 126.383C110.734 126.259 110.811 126.146 110.907 126.049C111.001 125.944 111.108 125.85 111.225 125.77C111.389 125.663 111.574 125.593 111.767 125.565C111.958 125.534 112.155 125.561 112.33 125.645L112.524 124.975C112.252 124.89 111.964 124.875 111.685 124.931C111.405 124.997 111.138 125.112 110.898 125.272C110.7 125.398 110.523 125.554 110.372 125.734C110.23 125.904 110.117 126.095 110.037 126.301C109.959 126.513 109.934 126.741 109.962 126.965C109.991 127.19 110.073 127.404 110.202 127.589C110.306 127.759 110.444 127.906 110.608 128.021C110.747 128.114 110.904 128.179 111.068 128.211C111.238 128.238 111.41 128.242 111.58 128.223C111.771 128.199 111.959 128.159 112.144 128.104L112.792 127.945C112.948 127.899 113.111 127.875 113.274 127.875C113.403 127.871 113.53 127.901 113.643 127.962C113.763 128.033 113.864 128.133 113.936 128.252C114.011 128.372 114.056 128.509 114.065 128.651C114.074 128.787 114.05 128.924 113.995 129.049C113.945 129.182 113.87 129.304 113.774 129.409C113.688 129.519 113.583 129.612 113.463 129.684C113.27 129.81 113.05 129.891 112.821 129.919C112.597 129.947 112.369 129.911 112.165 129.815L111.944 130.492C112.095 130.555 112.255 130.594 112.418 130.605C112.574 130.612 112.731 130.601 112.885 130.574C113.039 130.541 113.19 130.494 113.336 130.433C113.477 130.359 113.613 130.278 113.745 130.189C113.947 130.059 114.129 129.9 114.286 129.718C114.439 129.551 114.558 129.356 114.636 129.142C114.712 128.936 114.743 128.715 114.724 128.495C114.698 128.253 114.612 128.022 114.472 127.823C114.356 127.628 114.196 127.462 114.005 127.339C113.841 127.25 113.66 127.196 113.474 127.181Z" fill="#C4C4C4"/>
<path d="M118.518 119.484L117.819 120.09L117.492 123.474L117.421 123.537L115.889 121.767L115.402 122.196L118.961 126.283L119.445 125.865L117.637 123.784L117.709 123.721L121.457 124.109L122.17 123.495L118.117 123.111L118.518 119.484Z" fill="#C4C4C4"/>
<path d="M121.395 116.436L120.96 116.915L124.973 120.555L125.408 120.076L121.395 116.436Z" fill="#C4C4C4"/>
<path d="M128.346 115.538L124.438 112.71L124.065 113.23L128.453 116.415L130.282 113.887L129.802 113.53L128.346 115.538Z" fill="#C4C4C4"/>
<path d="M132.281 109.454L128.058 107.142L127.749 107.702L132.501 110.303L133.998 107.567L133.476 107.274L132.281 109.454Z" fill="#C4C4C4"/>
<path d="M130.946 101.145L130.699 101.743L135.705 103.814L135.953 103.217L130.946 101.145Z" fill="#C4C4C4"/>
<path d="M133.448 93.423L137.785 94.5979L137.786 94.6169L132.619 96.4639L132.403 97.2468L137.639 98.6672L137.802 98.0447L133.461 96.8625L133.464 96.8509L138.632 95.0038L138.848 94.221L133.611 92.8005L133.448 93.423Z" fill="#C4C4C4"/>
<path d="M137.01 86.314L137.609 86.3722L137.73 85.1312L139.386 85.301C139.469 85.5182 139.524 85.7446 139.551 85.9753C139.579 86.2068 139.582 86.4404 139.561 86.6726C139.534 86.9833 139.445 87.2854 139.3 87.5618C139.166 87.8146 138.983 88.0383 138.762 88.2199C138.535 88.396 138.277 88.5267 138.001 88.6048C137.401 88.7603 136.766 88.6925 136.213 88.4142C135.957 88.2889 135.731 88.1092 135.552 87.8876C135.366 87.6665 135.229 87.4096 135.147 87.1329C135.065 86.8561 135.041 86.5655 135.077 86.2792C135.102 86.0024 135.185 85.7339 135.319 85.4906C135.443 85.2464 135.621 85.0345 135.841 84.8718L135.393 84.337C135.116 84.5572 134.895 84.8389 134.745 85.1597C134.609 85.4808 134.522 85.8203 134.485 86.167C134.443 86.5547 134.473 86.9467 134.571 87.3239C134.671 87.6772 134.836 88.009 135.056 88.3023C135.279 88.597 135.562 88.84 135.888 89.0144C136.235 89.1997 136.618 89.3089 137.01 89.3349C137.403 89.3813 137.801 89.349 138.182 89.2397C138.534 89.1454 138.862 88.9737 139.14 88.7371C139.417 88.5015 139.646 88.2135 139.813 87.8896C139.982 87.5224 140.082 87.1269 140.107 86.7233C140.14 86.3746 140.133 86.0231 140.086 85.676C140.044 85.3263 139.951 84.9849 139.808 84.6631L137.16 84.3918L137.01 86.314Z" fill="#C4C4C4"/>
<path d="M28.44 60.188C28.6244 60.2587 28.8218 60.2895 29.0189 60.2782C29.1876 60.2646 29.3524 60.2199 29.5049 60.1466C29.6573 60.0658 29.7951 59.9601 29.9126 59.8338C30.0489 59.6997 30.1745 59.5551 30.2884 59.4014L30.6951 58.8714C30.7921 58.7413 30.905 58.624 31.0313 58.522C31.1308 58.4422 31.2488 58.3887 31.3744 58.3667C31.5149 58.3482 31.6577 58.365 31.79 58.4157C31.9259 58.4616 32.0467 58.5435 32.1396 58.6528C32.2325 58.7506 32.3025 58.8678 32.3445 58.996C32.3852 59.1321 32.3998 59.2747 32.3874 59.4162C32.3839 59.5556 32.3595 59.6937 32.315 59.8259C32.2386 60.0454 32.1141 60.245 31.9505 60.4101C31.7999 60.579 31.6011 60.6978 31.3809 60.7501L31.6289 61.4144C31.7852 61.3755 31.9328 61.3075 32.064 61.214C32.1942 61.1274 32.3122 61.0236 32.4148 60.9055C32.5149 60.7823 32.6059 60.6518 32.6869 60.5152C32.7607 60.3769 32.8239 60.2332 32.876 60.0853C32.9527 59.856 33.0003 59.6179 33.0176 59.3767C33.0356 59.1509 33.0108 58.9237 32.9446 58.7071C32.8781 58.496 32.7631 58.3035 32.6089 58.1448C32.4425 57.9663 32.2312 57.8359 31.9971 57.7671C31.7839 57.6838 31.5543 57.6513 31.3263 57.6723C31.1353 57.6975 30.9526 57.766 30.792 57.8724C30.6266 57.9858 30.4776 58.1215 30.3492 58.2755L29.9484 58.7822C29.8374 58.9368 29.7172 59.0846 29.5886 59.2249C29.4947 59.3266 29.3887 59.4165 29.273 59.4926C29.1765 59.5429 29.0716 59.5752 28.9635 59.5882C28.8542 59.5882 28.7456 59.5692 28.6428 59.532C28.5017 59.4932 28.3751 59.4138 28.2786 59.3037C28.1891 59.2105 28.122 59.0981 28.0824 58.9751C28.054 58.8419 28.0425 58.7056 28.0483 58.5695C28.0623 58.4273 28.0915 58.2871 28.1352 58.1511C28.2003 57.9716 28.3009 57.8071 28.4309 57.6674C28.5597 57.5216 28.7307 57.4194 28.9202 57.3753L28.662 56.7271C28.389 56.8232 28.1471 56.9915 27.9622 57.2142C27.7837 57.4373 27.6464 57.6904 27.5566 57.9616C27.476 58.1816 27.4302 58.4128 27.4209 58.6469C27.4166 58.8668 27.4471 59.0859 27.5114 59.2962C27.5751 59.5022 27.6872 59.69 27.8384 59.8439C28.0049 60.0099 28.2125 60.1286 28.44 60.188Z" fill="#C4C4C4"/>
<rect x="45.793" y="37.8623" width="2.86205" height="0.715513" transform="rotate(-46.8007 45.793 37.8623)" fill="#C4C4C4"/>
<path d="M34.5435 111.91L29.0826 102.743L30.7433 101.753L35.375 109.529L39.4126 107.123L40.2419 108.516L34.5435 111.91ZM44.7356 106.021C44.0462 106.431 43.3655 106.643 42.6935 106.655C42.0227 106.662 41.3957 106.482 40.8125 106.114C40.2275 105.743 39.7208 105.197 39.2924 104.478C38.8711 103.771 38.6356 103.07 38.586 102.376C38.5376 101.677 38.6677 101.034 38.9764 100.445C39.2833 99.8542 39.765 99.3631 40.4215 98.972C40.8453 98.7196 41.286 98.55 41.7438 98.4633C42.2028 98.3718 42.6615 98.3816 43.1198 98.4927C43.5811 98.602 44.026 98.8262 44.4545 99.1653C44.8811 99.5015 45.274 99.9709 45.6331 100.574L45.929 101.071L40.2933 104.428L39.6427 103.335L43.7251 100.904C43.5373 100.595 43.3057 100.359 43.0304 100.196C42.7533 100.029 42.4551 99.9459 42.1358 99.9461C41.8195 99.9445 41.5062 100.036 41.1958 100.221C40.8646 100.418 40.6216 100.672 40.4669 100.983C40.3105 101.29 40.2394 101.615 40.2538 101.959C40.2694 102.297 40.3673 102.621 40.5474 102.93L41.1154 103.883C41.3536 104.283 41.6311 104.583 41.948 104.782C42.2631 104.979 42.5973 105.075 42.9506 105.071C43.302 105.063 43.6539 104.955 44.006 104.745C44.2418 104.605 44.4356 104.445 44.5875 104.265C44.7376 104.083 44.8436 103.884 44.9057 103.669C44.9677 103.455 44.9768 103.229 44.9328 102.992L46.5472 102.261C46.6899 102.718 46.7158 103.175 46.625 103.634C46.5354 104.087 46.3321 104.52 46.015 104.931C45.6962 105.339 45.2697 105.703 44.7356 106.021ZM51.145 102.209C50.7093 102.468 50.2706 102.625 49.829 102.677C49.3887 102.725 48.9755 102.656 48.5894 102.47C48.2064 102.281 47.8807 101.962 47.6122 101.511C47.3811 101.123 47.2617 100.76 47.2538 100.421C47.246 100.082 47.3205 99.7626 47.4776 99.4629C47.6346 99.1632 47.8452 98.882 48.1093 98.6196C48.3747 98.3524 48.6638 98.1013 48.9767 97.8664C49.3547 97.5846 49.6592 97.3527 49.8904 97.1705C50.1197 96.9854 50.2697 96.8232 50.3405 96.6841C50.4124 96.5401 50.4022 96.3906 50.3097 96.2354L50.2937 96.2085C50.0929 95.8713 49.8373 95.6698 49.5272 95.6038C49.217 95.5379 48.8739 95.6169 48.4979 95.8409C48.101 96.0774 47.8378 96.3514 47.7081 96.6632C47.5814 96.9731 47.548 97.27 47.6079 97.5537L45.9669 98.2401C45.8374 97.7513 45.8263 97.2848 45.9338 96.8407C46.0395 96.3937 46.249 95.9818 46.5623 95.6051C46.8739 95.2254 47.2699 94.8925 47.7504 94.6063C48.0816 94.409 48.4345 94.2514 48.809 94.1334C49.1835 94.0155 49.5598 93.9651 49.938 93.9824C50.3145 93.9967 50.6754 94.1072 51.0209 94.3138C51.3693 94.5186 51.6795 94.8494 51.9515 95.3059L54.6926 99.9076L53.1349 100.836L52.5722 99.891L52.5185 99.923C52.5338 100.173 52.5017 100.434 52.4222 100.708C52.3439 100.977 52.2007 101.242 51.9925 101.504C51.7856 101.761 51.5031 101.996 51.145 102.209ZM50.8565 100.768C51.1818 100.574 51.4255 100.342 51.5878 100.071C51.7484 99.7976 51.8288 99.5152 51.8291 99.2239C51.8324 98.9308 51.7585 98.6574 51.6074 98.4037L51.1248 97.5935C51.099 97.6655 51.0355 97.7559 50.9345 97.8646C50.8365 97.9715 50.7209 98.0828 50.5876 98.1986C50.4544 98.3143 50.3209 98.4262 50.1871 98.5342C50.0534 98.6422 49.9372 98.7356 49.8387 98.8145C49.6165 98.9913 49.4321 99.1739 49.2856 99.3623C49.139 99.5507 49.0505 99.7449 49.0201 99.945C48.9879 100.142 49.034 100.345 49.1585 100.554C49.3362 100.852 49.5794 101.013 49.8879 101.035C50.1964 101.058 50.5193 100.968 50.8565 100.768ZM56.322 98.937L52.2263 92.0614L53.7975 91.1254L54.4801 92.2714L54.5518 92.2287C54.4407 91.7572 54.4733 91.3233 54.6497 90.9271C54.8273 90.5262 55.1131 90.2084 55.507 89.9737C55.5965 89.9204 55.6992 89.8653 55.8149 89.8085C55.9319 89.7469 56.0321 89.7014 56.1156 89.6718L57.0035 91.1625C56.9207 91.1795 56.7993 91.2235 56.6394 91.2944C56.4808 91.3607 56.3328 91.4346 56.1955 91.5164C55.9001 91.6924 55.6727 91.9148 55.5134 92.1835C55.3553 92.4475 55.2757 92.7314 55.2748 93.0352C55.2738 93.339 55.3604 93.6372 55.5346 93.9296L57.9424 97.9718L56.322 98.937ZM60.5404 90.966L62.9403 94.9947L61.3198 95.9599L57.2241 89.0843L58.773 88.1617L59.4689 89.33L59.5495 89.282C59.4783 88.8028 59.5483 88.3467 59.7594 87.9137C59.9734 87.4789 60.3371 87.1087 60.8504 86.8029C61.3249 86.5203 61.7986 86.3755 62.2716 86.3687C62.7476 86.3601 63.1973 86.4905 63.6206 86.7599C64.0468 87.0275 64.422 87.4368 64.7461 87.9877L67.3539 92.3655L65.7335 93.3308L63.275 89.2036C63.0013 88.744 62.6677 88.4555 62.2743 88.3381C61.8839 88.2189 61.4798 88.2838 61.062 88.5326C60.7785 88.7015 60.5637 88.9144 60.4175 89.1713C60.2725 89.4234 60.2067 89.7032 60.22 90.0106C60.2363 90.3163 60.3431 90.6347 60.5404 90.966ZM72.1996 89.4791L66.7386 80.3115L68.3994 79.3223L73.031 87.0977L77.0687 84.6925L77.8979 86.0847L72.1996 89.4791ZM81.3289 84.2289C80.8932 84.4885 80.4545 84.6446 80.013 84.6974C79.5726 84.7455 79.1594 84.6762 78.7733 84.4898C78.3903 84.3015 78.0646 83.982 77.7961 83.5314C77.5651 83.1435 77.4456 82.78 77.4377 82.441C77.4299 82.102 77.5045 81.7827 77.6615 81.4829C77.8185 81.1832 78.0291 80.9021 78.2932 80.6396C78.5586 80.3724 78.8477 80.1213 79.1606 79.8864C79.5386 79.6047 79.8431 79.3727 80.0743 79.1906C80.3036 79.0054 80.4537 78.8433 80.5244 78.7041C80.5963 78.5602 80.5861 78.4106 80.4936 78.2554L80.4776 78.2286C80.2768 77.8914 80.0213 77.6898 79.7111 77.6239C79.4009 77.5579 79.0579 77.637 78.6818 77.861C78.2849 78.0974 78.0217 78.3715 77.892 78.6832C77.7653 78.9932 77.7319 79.29 77.7918 79.5738L76.1508 80.2602C76.0213 79.7713 76.0102 79.3048 76.1177 78.8607C76.2234 78.4137 76.4329 78.0018 76.7462 77.6252C77.0578 77.2455 77.4538 76.9126 77.9343 76.6264C78.2655 76.429 78.6184 76.2714 78.9929 76.1534C79.3674 76.0355 79.7437 75.9852 80.1219 76.0025C80.4984 76.0168 80.8593 76.1272 81.2048 76.3338C81.5532 76.5387 81.8634 76.8694 82.1354 77.326L84.8765 81.9277L83.3188 82.8556L82.7561 81.9111L82.7024 81.9431C82.7177 82.1927 82.6856 82.4544 82.6061 82.7282C82.5278 82.9972 82.3846 83.2625 82.1765 83.5239C81.9695 83.7806 81.687 84.0156 81.3289 84.2289ZM81.0404 82.7876C81.3657 82.5938 81.6095 82.3617 81.7718 82.0911C81.9323 81.8176 82.0127 81.5352 82.013 81.2439C82.0163 80.9508 81.9425 80.6774 81.7914 80.4238L81.3087 79.6136C81.2829 79.6856 81.2195 79.7759 81.1184 79.8846C81.0204 79.9915 80.9048 80.1029 80.7716 80.2186C80.6383 80.3343 80.5048 80.4462 80.3711 80.5542C80.2373 80.6622 80.1211 80.7556 80.0226 80.8346C79.8004 81.0114 79.616 81.194 79.4695 81.3823C79.3229 81.5707 79.2345 81.7649 79.204 81.965C79.1718 82.1621 79.218 82.3651 79.3424 82.574C79.5202 82.8724 79.7633 83.0328 80.0718 83.0552C80.3803 83.0777 80.7032 82.9884 81.0404 82.7876ZM86.6979 77.9195L85.5282 75.966L85.7878 75.8114L86.6135 71.5776L88.507 70.4497L87.4834 75.6443L87.1477 75.8443L86.6979 77.9195ZM86.5059 80.9571L81.045 71.7895L82.6654 70.8243L88.1264 79.9918L86.5059 80.9571ZM90.8211 78.3866L86.7191 76.5909L87.1314 74.7988L92.7594 77.232L90.8211 78.3866ZM96.5234 75.1718C95.834 75.5824 95.1533 75.7938 94.4813 75.806C93.8105 75.8134 93.1835 75.633 92.6003 75.2648C92.0153 74.8936 91.5086 74.3484 91.0802 73.6292C90.6589 72.9219 90.4234 72.2212 90.3738 71.527C90.3254 70.8281 90.4555 70.1845 90.7642 69.5964C91.0711 69.0052 91.5528 68.5141 92.2093 68.123C92.6331 67.8706 93.0738 67.701 93.5316 67.6143C93.9906 67.5228 94.4493 67.5326 94.9076 67.6437C95.369 67.753 95.8138 67.9772 96.2423 68.3163C96.6689 68.6525 97.0618 69.122 97.4209 69.7248L97.7169 70.2216L92.0811 73.5787L91.4305 72.4865L95.5129 70.0547C95.3251 69.7461 95.0935 69.5101 94.8182 69.3466C94.5411 69.1801 94.243 69.0969 93.9237 69.0971C93.6073 69.0955 93.294 69.1871 92.9836 69.372C92.6524 69.5693 92.4094 69.8232 92.2547 70.1337C92.0983 70.4412 92.0272 70.7665 92.0416 71.1097C92.0572 71.4481 92.1551 71.7719 92.3352 72.081L92.9032 73.0345C93.1414 73.4344 93.4189 73.734 93.7358 73.9334C94.0509 74.1298 94.3851 74.2259 94.7384 74.2216C95.0899 74.2144 95.4417 74.1059 95.7938 73.8961C96.0296 73.7557 96.2234 73.5958 96.3753 73.4164C96.5254 73.234 96.6314 73.0353 96.6935 72.8205C96.7555 72.6056 96.7646 72.3799 96.7207 72.1432L98.335 71.4121C98.4777 71.8688 98.5036 72.3264 98.4128 72.7848C98.3232 73.2385 98.1199 73.6709 97.8029 74.0821C97.484 74.4904 97.0575 74.8536 96.5234 75.1718ZM105.092 60.8794C104.818 60.5133 104.46 60.3138 104.02 60.2809C103.583 60.2461 103.118 60.3754 102.626 60.6687C102.28 60.8749 102.014 61.104 101.828 61.356C101.643 61.608 101.538 61.8626 101.513 62.1199C101.489 62.3772 101.543 62.6216 101.677 62.8531C101.791 63.0441 101.933 63.184 102.103 63.2727C102.276 63.3596 102.468 63.407 102.679 63.4148C102.888 63.4196 103.105 63.3998 103.329 63.3552C103.553 63.3107 103.772 63.2548 103.987 63.1875L104.974 62.8904C105.368 62.7648 105.766 62.6755 106.167 62.6226C106.571 62.5679 106.962 62.5694 107.34 62.6272C107.721 62.6832 108.075 62.8145 108.4 63.0211C108.725 63.2276 109.006 63.5294 109.242 63.9263C109.562 64.4634 109.707 65.0182 109.676 65.5906C109.643 66.16 109.435 66.7142 109.053 67.2533C108.672 67.7877 108.114 68.2735 107.38 68.7108C106.667 69.1356 105.982 69.3941 105.325 69.4861C104.671 69.5764 104.07 69.4976 103.523 69.2498C102.978 69.0003 102.512 68.5782 102.125 67.9837L103.759 67.0104C103.973 67.3155 104.23 67.5224 104.529 67.6312C104.829 67.74 105.148 67.7639 105.488 67.7031C105.831 67.6404 106.175 67.506 106.521 67.2998C106.882 67.0847 107.167 66.8425 107.374 66.5733C107.583 66.2994 107.707 66.0192 107.747 65.7328C107.785 65.4434 107.727 65.1665 107.574 64.9021C107.428 64.6651 107.241 64.51 107.011 64.4365C106.78 64.3602 106.509 64.3435 106.199 64.3866C105.89 64.4249 105.547 64.5001 105.169 64.6121L103.966 64.9648C103.095 65.2206 102.324 65.2821 101.65 65.1495C100.978 65.0122 100.446 64.6152 100.055 63.9587C99.7336 63.4185 99.5981 62.8584 99.6488 62.2784C99.7025 61.6965 99.9163 61.1426 100.29 60.6166C100.663 60.0876 101.169 59.632 101.811 59.2498C102.462 58.8623 103.099 58.6361 103.724 58.5714C104.349 58.5019 104.922 58.5836 105.44 58.8164C105.957 59.0462 106.374 59.4165 106.69 59.9275L105.092 60.8794ZM112.184 65.6609L108.089 58.7852L109.709 57.82L113.805 64.6956L112.184 65.6609ZM108.322 57.3241C108.065 57.477 107.794 57.5235 107.508 57.4636C107.22 57.4007 107.003 57.2484 106.859 57.0067C106.714 56.762 106.683 56.4995 106.766 56.2192C106.848 55.9359 107.018 55.7178 107.274 55.5649C107.534 55.4103 107.806 55.3653 108.091 55.4299C108.378 55.4898 108.594 55.6421 108.74 55.8868C108.884 56.1285 108.915 56.391 108.833 56.6743C108.752 56.9529 108.582 57.1695 108.322 57.3241ZM118.095 62.304C117.555 62.6258 116.988 62.775 116.396 62.7517C115.804 62.7283 115.227 62.5263 114.665 62.1457C114.102 61.765 113.596 61.1972 113.147 60.4422C112.692 59.6782 112.433 58.9589 112.371 58.2844C112.31 57.6051 112.414 57.0032 112.684 56.4786C112.952 55.9511 113.35 55.53 113.878 55.2153C114.281 54.9753 114.653 54.8467 114.995 54.8293C115.334 54.8089 115.637 54.8489 115.903 54.9492C116.167 55.0466 116.391 55.1539 116.574 55.2713L116.641 55.2313L114.598 51.8024L116.223 50.8345L121.684 60.002L120.091 60.9512L119.445 59.868L119.347 59.9266C119.363 60.1435 119.348 60.3931 119.302 60.6753C119.254 60.9545 119.139 61.2371 118.958 61.5231C118.776 61.8091 118.489 62.0694 118.095 62.304ZM117.755 60.7052C118.098 60.5008 118.335 60.2341 118.467 59.9051C118.597 59.5731 118.625 59.2026 118.551 58.7937C118.477 58.3848 118.308 57.9581 118.043 57.5134C117.778 57.0688 117.485 56.7196 117.164 56.466C116.846 56.2107 116.512 56.0639 116.162 56.0259C115.815 55.9861 115.467 56.0702 115.118 56.2781C114.757 56.4932 114.511 56.7668 114.381 57.0988C114.252 57.4308 114.224 57.7988 114.299 58.203C114.374 58.6071 114.539 59.0225 114.793 59.4493C115.049 59.879 115.339 60.226 115.662 60.4904C115.986 60.7499 116.327 60.9047 116.684 60.9547C117.043 60.9999 117.4 60.9168 117.755 60.7052ZM126.535 57.2945C125.846 57.7051 125.165 57.9165 124.493 57.9287C123.822 57.9361 123.195 57.7557 122.612 57.3875C122.027 57.0162 121.52 56.471 121.092 55.7518C120.67 55.0446 120.435 54.3439 120.385 53.6497C120.337 52.9508 120.467 52.3072 120.776 51.7191C121.083 51.1279 121.564 50.6368 122.221 50.2457C122.645 49.9933 123.085 49.8237 123.543 49.737C124.002 49.6455 124.461 49.6553 124.919 49.7664C125.381 49.8757 125.825 50.0999 126.254 50.439C126.68 50.7752 127.073 51.2447 127.432 51.8475L127.728 52.3443L122.093 55.7014L121.442 54.6092L125.525 52.1774C125.337 51.8688 125.105 51.6328 124.83 51.4692C124.553 51.3028 124.255 51.2196 123.935 51.2198C123.619 51.2182 123.306 51.3098 122.995 51.4947C122.664 51.692 122.421 51.9459 122.266 52.2564C122.11 52.5639 122.039 52.8892 122.053 53.2324C122.069 53.5708 122.167 53.8946 122.347 54.2037L122.915 55.1572C123.153 55.5571 123.43 55.8567 123.747 56.0561C124.062 56.2525 124.397 56.3485 124.75 56.3443C125.101 56.3371 125.453 56.2286 125.805 56.0188C126.041 55.8784 126.235 55.7185 126.387 55.5391C126.537 55.3566 126.643 55.158 126.705 54.9432C126.767 54.7283 126.776 54.5026 126.732 54.2659L128.347 53.5348C128.489 53.9915 128.515 54.4491 128.424 54.9075C128.335 55.3612 128.131 55.7936 127.814 56.2048C127.496 56.6131 127.069 56.9763 126.535 57.2945Z" fill="#C4C4C4"/>
</svg>
