<svg width="94" height="29" viewBox="0 0 94 29" fill="none" xmlns="http://www.w3.org/2000/svg">
<g clip-path="url(#clip0_3429_8060)">
<path d="M58.303 22.0537C52.847 26.0225 44.9389 28.14 38.1302 28.14C28.5832 28.14 19.9885 24.6552 13.4863 18.8593C12.9755 18.4035 13.4332 17.7824 14.0462 18.1373C21.0634 22.1666 29.7398 24.5907 38.7023 24.5907C44.7468 24.5907 51.3961 23.3565 57.5101 20.7953C58.4337 20.4081 59.2062 21.3922 58.303 22.0537Z" fill="#FF9900"/>
<path d="M60.5712 19.4932C59.8764 18.6139 55.9612 19.0778 54.2038 19.2835C53.6685 19.348 53.5867 18.8882 54.069 18.5575C57.1873 16.3916 62.304 17.0167 62.9007 17.7427C63.4974 18.4728 62.7454 23.5346 59.8151 25.9506C59.3656 26.3217 58.9364 26.1241 59.1367 25.632C59.7947 24.0106 61.27 20.3765 60.5712 19.4932Z" fill="#FF9900"/>
<path d="M54.3263 3.26672V1.16131C54.3263 0.842674 54.5715 0.628906 54.8657 0.628906H64.4168C64.7233 0.628906 64.9685 0.846708 64.9685 1.16131V2.96422C64.9644 3.26672 64.7069 3.66199 64.2492 4.28716L59.3 11.2608C61.1391 11.2165 63.0804 11.4867 64.7478 12.4144C65.1238 12.6241 65.226 12.9307 65.2546 13.2332V15.4797C65.2546 15.7863 64.9113 16.1452 64.5516 15.9597C61.6132 14.4391 57.7102 14.2738 54.4611 15.9758C54.1301 16.1533 53.7827 15.7984 53.7827 15.4918V13.3582C53.7827 13.0154 53.7868 12.4305 54.1342 11.9102L59.8681 3.79509H54.878C54.5715 3.79509 54.3263 3.58133 54.3263 3.26672Z" fill="#221F1F"/>
<path d="M19.4858 16.4031H16.5801C16.3022 16.3829 16.0815 16.1772 16.061 15.9151V1.19734C16.061 0.902905 16.3103 0.668968 16.6209 0.668968H19.3305C19.6125 0.68106 19.8373 0.894835 19.8577 1.16104V3.08495H19.9109C20.6179 1.22557 21.9461 0.358398 23.7362 0.358398C25.5548 0.358398 26.691 1.22557 27.5084 3.08495C28.2113 1.22557 29.8093 0.358398 31.5217 0.358398C32.7396 0.358398 34.0719 0.854502 34.8852 1.96771C35.8047 3.20595 35.6167 5.00483 35.6167 6.58188L35.6126 15.8707C35.6126 16.1651 35.3633 16.4031 35.0527 16.4031H32.151C31.8609 16.3829 31.6279 16.153 31.6279 15.8707V8.07018C31.6279 7.44905 31.6851 5.90024 31.5462 5.31137C31.3296 4.32319 30.6798 4.04489 29.8379 4.04489C29.1349 4.04489 28.3993 4.50873 28.101 5.25087C27.8026 5.993 27.8312 7.23528 27.8312 8.07018V15.8707C27.8312 16.1651 27.5819 16.4031 27.2713 16.4031H24.3696C24.0754 16.3829 23.8465 16.153 23.8465 15.8707L23.8424 8.07018C23.8424 6.42861 24.1163 4.01262 22.0524 4.01262C19.964 4.01262 20.0457 6.3681 20.0457 8.07018V15.8707C20.0457 16.1651 19.7964 16.4031 19.4858 16.4031Z" fill="#221F1F"/>
<path d="M73.1913 0.358398C77.503 0.358398 79.8366 4.01262 79.8366 8.65906C79.8366 13.1482 77.2578 16.7096 73.1913 16.7096C68.9573 16.7096 66.6523 13.0554 66.6523 8.50175C66.6523 3.91986 68.986 0.358398 73.1913 0.358398ZM73.2159 3.36325C71.0743 3.36325 70.9395 6.24307 70.9395 8.03792C70.9395 9.8368 70.9109 13.6766 73.1913 13.6766C75.4432 13.6766 75.5495 10.5789 75.5495 8.69132C75.5495 7.44905 75.4963 5.96477 75.1163 4.78703C74.7893 3.76256 74.1395 3.36325 73.2159 3.36325Z" fill="#221F1F"/>
<path d="M85.4275 16.4031H82.534C82.2439 16.3829 82.0109 16.153 82.0109 15.8707L82.0068 1.14894C82.0314 0.878702 82.2725 0.668968 82.5667 0.668968H85.26C85.5134 0.68106 85.7218 0.850469 85.779 1.08037V3.33098H85.8321C86.6454 1.31834 87.7857 0.358398 89.7923 0.358398C91.096 0.358398 92.3671 0.822235 93.1844 2.09274C93.9446 3.27048 93.9446 5.25087 93.9446 6.67464V15.9393C93.9119 16.1974 93.6708 16.4031 93.3847 16.4031H90.4707C90.2051 16.3829 89.9844 16.1893 89.9558 15.9393V7.94515C89.9558 6.33584 90.1438 3.98036 88.1371 3.98036C87.4301 3.98036 86.7803 4.44823 86.4574 5.1581C86.0487 6.05754 85.9956 6.95295 85.9956 7.94515V15.8707C85.9915 16.1651 85.7381 16.4031 85.4275 16.4031Z" fill="#221F1F"/>
<path d="M46.7124 9.3735V8.75237C44.6117 8.75237 42.3926 9.19603 42.3926 11.6402C42.3926 12.8785 43.0424 13.7174 44.1581 13.7174C44.9755 13.7174 45.707 13.2213 46.1688 12.4147C46.741 11.4224 46.7124 10.4907 46.7124 9.3735ZM49.6427 16.3633C49.4506 16.5327 49.1727 16.5448 48.9561 16.4319C47.9916 15.6413 47.8199 15.2743 47.2886 14.5201C45.6948 16.1253 44.5668 16.6053 42.4988 16.6053C40.0549 16.6053 38.1504 15.117 38.1504 12.1364C38.1504 9.80911 39.4296 8.22399 41.2482 7.44959C42.8258 6.76392 45.0286 6.64292 46.7124 6.45335V6.08228C46.7124 5.40064 46.7655 4.59397 46.3609 4.0051C46.0054 3.47673 45.3269 3.25893 44.7303 3.25893C43.6227 3.25893 42.6337 3.81956 42.3926 4.98117C42.3435 5.23931 42.1514 5.49341 41.8899 5.50551L39.0699 5.20704C38.8329 5.15461 38.5713 4.96504 38.6367 4.60607C39.2865 1.23418 42.3721 0.217773 45.1349 0.217773C46.5489 0.217773 48.3962 0.588843 49.5119 1.64558C50.9259 2.94836 50.7911 4.68674 50.7911 6.57838V11.0473C50.7911 12.3905 51.3551 12.9793 51.8864 13.7053C52.0744 13.9635 52.1152 14.274 51.8782 14.4676C51.2856 14.9557 50.2312 15.8632 49.6508 16.3714L49.6427 16.3633Z" fill="#221F1F"/>
<path d="M8.61864 9.3735V8.75237C6.51798 8.75237 4.29881 9.19603 4.29881 11.6402C4.29881 12.8785 4.94862 13.7174 6.06434 13.7174C6.88171 13.7174 7.61326 13.2213 8.07508 12.4147C8.64724 11.4224 8.61864 10.4907 8.61864 9.3735ZM11.5489 16.3633C11.3568 16.5327 11.0789 16.5448 10.8623 16.4319C9.89783 15.6413 9.72618 15.2743 9.19488 14.5201C7.601 16.1253 6.47303 16.6053 4.40507 16.6053C1.96112 16.6053 0.0566406 15.117 0.0566406 12.1364C0.0566406 9.80911 1.33583 8.22399 3.15449 7.44959C4.73202 6.76392 6.93484 6.64292 8.61864 6.45335V6.08228C8.61864 5.40064 8.67177 4.59397 8.26716 4.0051C7.9116 3.47673 7.23319 3.25893 6.6365 3.25893C5.52896 3.25893 4.53994 3.81956 4.29881 4.98117C4.24977 5.23931 4.05769 5.49341 3.79613 5.50551L0.976187 5.20704C0.739148 5.15461 0.477588 4.96504 0.542978 4.60607C1.19279 1.23418 4.27838 0.217773 7.0411 0.217773C8.45516 0.217773 10.3024 0.588843 11.4181 1.64558C12.8322 2.94836 12.6973 4.68674 12.6973 6.57838V11.0473C12.6973 12.3905 13.2613 12.9793 13.7926 13.7053C13.9806 13.9635 14.0215 14.274 13.7844 14.4676C13.1918 14.9557 12.1374 15.8632 11.5571 16.3714L11.5489 16.3633Z" fill="#221F1F"/>
</g>
<defs>
<clipPath id="clip0_3429_8060">
<rect width="94" height="28" fill="white" transform="translate(0 0.179688)"/>
</clipPath>
</defs>
</svg>
