<svg width="87" height="38" viewBox="0 0 87 38" fill="none" xmlns="http://www.w3.org/2000/svg">
<path d="M34.2492 6.38824C33.8519 6.91254 33.8916 7.15452 34.4478 7.79982C35.1231 8.5661 35.2025 8.5661 35.9175 7.92081C36.5928 7.31585 36.5928 7.23519 35.997 6.50923C35.1628 5.62196 34.8847 5.62196 34.2492 6.38824Z" fill="black"/>
<path d="M38.2217 11.6306V17.4785H39.2148H40.2078V11.6306V5.78261H39.2148H38.2217V11.6306Z" fill="black"/>
<path d="M42.1943 11.6306V17.4785H43.1874H44.1805V11.6306V5.78261H43.1874H42.1943V11.6306Z" fill="black"/>
<path d="M46.1661 6.38747C45.7689 6.91177 45.8086 7.15375 46.3648 7.83938C47.1195 8.64599 47.1195 8.64599 47.914 7.83938C48.5495 7.15375 48.5893 6.91177 48.1523 6.4278C47.5167 5.62119 46.8017 5.62119 46.1661 6.38747Z" fill="black"/>
<path d="M19.1543 12.0746V17.5596L22.1732 17.3982C24.9141 17.2773 25.3114 17.1563 26.1455 16.148C27.2975 14.7768 27.3372 13.8491 26.3442 12.5989C25.7086 11.8326 25.7086 11.5906 26.1455 11.1067C27.0592 10.1791 26.8208 8.36417 25.6689 7.43656C24.8347 6.75094 24.0402 6.58962 21.8952 6.58962H19.1543V12.0746ZM24.1197 9.81608C24.1197 10.7034 23.9211 10.8243 22.6499 10.9453C21.2199 11.0663 21.1404 11.026 21.1404 9.81608C21.1404 8.60615 21.2199 8.56582 22.6499 8.68682C23.9211 8.80781 24.1197 8.9288 24.1197 9.81608ZM24.4375 13.5265C25.073 14.4944 24.0799 15.4624 22.491 15.4624C21.2596 15.4624 21.1404 15.3414 21.1404 14.3331C21.1404 13.6878 21.2596 13.0425 21.4185 12.8812C21.9349 12.3972 24.0402 12.8005 24.4375 13.5265Z" fill="black"/>
<path d="M66.8225 8.40411C66.8225 9.0494 66.5842 9.41238 66.2267 9.41238C65.9089 9.41238 65.6309 9.77535 65.6309 10.219C65.6309 10.6626 65.9089 11.0256 66.2267 11.0256C66.7034 11.0256 66.8225 11.5902 66.8225 13.7681C66.8225 16.8736 67.1801 17.4785 69.0868 17.4785C70.1196 17.4785 70.3976 17.3172 70.3976 16.7122C70.3976 16.2686 70.0401 15.7846 69.6032 15.6636C68.9279 15.462 68.8087 15.0587 68.8087 13.2438C68.8087 11.4692 68.9279 11.1063 69.6032 10.9046C70.0401 10.7836 70.3976 10.4206 70.3976 10.0577C70.3976 9.69469 70.0798 9.41238 69.6032 9.41238C69.0073 9.41238 68.8087 9.13006 68.8087 8.40411C68.8087 7.59749 68.6101 7.39584 67.8156 7.39584C67.0212 7.39584 66.8225 7.59749 66.8225 8.40411Z" fill="black"/>
<path d="M31.7471 9.29075C31.5882 9.45207 30.7143 9.53274 29.8404 9.4924L28.2515 9.37141L28.3706 13.3238L28.4898 17.2762L29.5623 17.3972C30.6348 17.5182 30.6348 17.5182 30.754 14.5741C30.8732 11.6703 30.8732 11.6299 31.9854 11.5089C32.9388 11.3879 33.0977 11.2266 32.9785 10.3393C32.8593 9.25042 32.2635 8.76645 31.7471 9.29075Z" fill="black"/>
<path d="M51.9265 9.45231C50.8142 9.77496 49.7417 10.7832 49.7417 11.5092C49.7417 11.6705 50.2978 11.8318 50.9334 11.8318C51.6087 11.8318 52.1251 11.6302 52.1251 11.4285C52.1251 11.1865 52.562 11.0252 53.1182 11.0252C53.8332 11.0252 54.1112 11.2269 54.1112 11.8318C54.1112 12.5174 53.8332 12.6384 52.6018 12.6384C50.8142 12.6384 49.7417 13.566 49.7417 15.1389C49.7417 16.7925 50.8142 17.3975 53.8332 17.3975L56.4946 17.3571V14.6146C56.4946 11.1059 56.0577 10.0169 54.4687 9.45231C53.7934 9.21033 53.1976 9.00868 53.1579 9.04901C53.1182 9.04901 52.6018 9.25066 51.9265 9.45231ZM54.1112 14.6146C54.1112 15.5019 52.6415 16.1472 52.0854 15.5826C51.4498 14.9373 52.1648 13.8484 53.1579 13.8484C53.8332 13.8484 54.1112 14.0903 54.1112 14.6146Z" fill="black"/>
<path d="M61.4599 9.37175C61.0229 9.57341 59.9901 9.61374 59.156 9.49275L57.6465 9.29109L57.7657 13.2838L57.8848 17.2766L58.9573 17.3976L60.0299 17.5186L60.149 14.3728C60.2682 11.3076 60.3079 11.227 61.2613 11.227C62.2146 11.227 62.2544 11.3076 62.3735 14.3324L62.4927 17.4782H63.6447H64.8363V14.2518C64.8363 11.3076 64.7172 10.9043 63.8433 10.017C62.8105 8.92812 62.6516 8.88779 61.4599 9.37175Z" fill="black"/>
<path d="M34.2495 13.4454V17.4785H35.2426H36.2357V13.4454V9.41238H35.2426H34.2495V13.4454Z" fill="black"/>
<path d="M46.166 13.4454V17.4785H47.1591H48.1522V13.4454V9.41238H47.1591H46.166V13.4454Z" fill="black"/>
<path d="M59.8712 21.3108C59.1165 21.9158 59.1165 21.9158 59.911 22.7224L60.7054 23.5693L61.4602 22.7627C62.0163 22.0771 62.056 21.8351 61.6588 21.3108C61.0629 20.5849 60.8643 20.5849 59.8712 21.3108Z" fill="black"/>
<path d="M76.7135 20.9878C76.7135 21.1894 76.7135 22.117 76.7532 23.085C76.7929 24.6579 76.7532 24.8192 76.0779 24.5369C74.3301 23.8109 73.9726 23.8916 72.7809 25.0612C69.9209 27.965 72.3837 33.6516 75.7999 32.0384C76.3957 31.7964 76.7532 31.7561 76.7532 31.9981C76.7532 32.24 77.1902 32.4014 77.7463 32.4014H78.7394V26.5534V20.7055H77.7463C77.1902 20.7055 76.7532 20.8265 76.7135 20.9878ZM76.2765 26.4324C76.9518 27.118 76.8724 29.4169 76.1176 30.1428C75.0451 31.2318 73.9726 30.2638 73.9726 28.207C73.9726 27.2794 74.0918 26.3518 74.2507 26.2308C74.6479 25.7871 75.7601 25.9081 76.2765 26.4324Z" fill="black"/>
<path d="M14.11 21.3919C13.1169 21.5936 12.958 21.9162 13.6333 22.6018C13.9114 22.8842 13.8717 23.9731 13.4347 26.3526C12.6005 30.8293 12.6005 31.8779 13.5936 32.2006C14.4675 32.4829 16.8906 31.3536 16.5728 30.789C16.4537 30.5873 16.0961 30.5067 15.7784 30.668C15.0236 30.9503 15.0236 30.9906 15.977 25.9493C16.4139 23.6101 16.7714 21.5936 16.7714 21.4323C16.7714 21.1096 15.6592 21.1096 14.11 21.3919Z" fill="black"/>
<path d="M35.5604 21.3917C34.5673 21.5933 34.329 22.158 35.1234 22.4C35.481 22.5209 35.4412 23.5695 34.8851 26.7557C34.4879 29.0949 34.0509 31.192 33.9715 31.5147C33.8126 31.918 34.0906 32.039 35.0837 31.918C36.1165 31.8373 36.4343 31.5954 36.6329 30.8291C36.9507 29.3772 37.626 29.3772 38.2218 30.7484C38.8177 32.281 39.9299 32.6843 41.2011 31.8373C42.353 31.0711 42.5119 30.2241 41.4791 30.5468C40.9627 30.7484 40.6052 30.5064 40.3272 29.8611C39.9299 29.0142 40.0491 28.7722 41.0422 27.8446C42.4722 26.5943 42.5516 25.3038 41.2011 24.6585C40.3272 24.2552 40.0094 24.3358 39.0163 25.0618C37.626 26.1507 37.3082 26.1507 37.5863 25.2231C37.6657 24.8601 37.9041 23.7712 38.0232 22.8033C38.3013 20.9884 38.1424 20.8674 35.5604 21.3917ZM39.8108 26.7557C39.8108 27.3203 38.1424 28.7722 37.5465 28.7722C36.6726 28.7722 36.9904 27.6833 38.1027 26.8363C39.1752 26.0297 39.8108 26.0297 39.8108 26.7557Z" fill="black"/>
<path d="M2.47099 21.874C2.47099 22.0756 2.6696 22.3176 2.94766 22.3983C3.7024 22.6806 2.78877 30.3434 1.91486 30.9887C1.55736 31.271 1.2793 31.5937 1.2793 31.755C1.2793 32.2793 8.86639 31.997 9.97863 31.392C11.9251 30.3838 11.9251 27.5606 10.0184 26.9557C9.2239 26.7137 9.2239 26.6733 10.217 25.8667C11.4881 24.8585 11.6073 22.5596 10.4553 21.9143C9.50196 21.4304 2.47099 21.39 2.47099 21.874ZM8.1911 22.9629C8.5486 23.2856 8.82667 23.8502 8.82667 24.1325C8.82667 24.9795 7.6747 25.9474 6.6419 25.9474C5.768 25.9474 5.68855 25.8264 5.88716 24.6165C6.24467 22.5999 6.36384 22.3176 6.99941 22.3176C7.31719 22.3176 7.87331 22.5999 8.1911 22.9629ZM8.42944 27.9639C9.30334 29.6175 7.75414 31.5534 6.04606 30.9887C5.17215 30.7064 5.13243 30.3434 5.48993 28.4076C5.68855 27.359 5.92689 27.1573 6.88024 27.1573C7.59525 27.1573 8.15137 27.4396 8.42944 27.9639Z" fill="black"/>
<path d="M46.6431 26.8357L46.7623 32.1997H47.7553C48.7484 32.1997 48.7484 32.1594 48.7484 28.6909C48.7484 26.7551 48.8279 25.3032 48.9868 25.4645C49.1456 25.6258 49.5429 26.7551 49.9401 27.965C50.9729 31.1914 51.6879 32.482 52.4029 32.3207C52.7604 32.24 53.5152 30.7881 54.3494 28.57L55.6602 24.9402V28.6506C55.6999 32.361 55.6999 32.4014 56.693 32.4014H57.6861V26.9164V21.4717L56.2561 21.5927C54.7863 21.7137 54.7863 21.7541 53.5152 25.3032C52.8002 27.2794 52.1646 28.7313 52.0454 28.5296C51.9263 28.328 51.3304 26.6744 50.7743 24.8192L49.662 21.5121H48.1128H46.5239L46.6431 26.8357Z" fill="black"/>
<path d="M66.8621 24.2949C66.5443 24.4966 65.7101 24.5772 64.9554 24.4562L63.6445 24.2142V28.328C63.6445 32.4014 63.6445 32.4014 64.6376 32.4014C65.5512 32.4014 65.591 32.2804 65.7101 29.2556C65.8293 26.2308 65.869 26.1501 66.9018 26.0291L67.9743 25.9081L68.0935 29.0539C68.2127 32.1191 68.2524 32.1997 69.2057 32.1997C70.1591 32.1997 70.1988 32.1191 70.318 28.9733C70.3974 26.7954 70.2783 25.5048 69.9208 25.0612C69.2852 24.2142 67.6168 23.8109 66.8621 24.2949Z" fill="black"/>
<path d="M81.7976 24.3756C79.6526 25.2225 79.8909 28.0457 82.2346 28.8119C83.9824 29.3766 84.7769 29.9412 84.4591 30.4252C84.1016 31.0301 82.4332 30.8285 82.1552 30.1832C81.8771 29.4169 79.9307 29.3766 79.9307 30.1428C79.9307 31.0301 81.8771 32.4014 83.1482 32.4014C84.8166 32.4014 86.2863 31.5948 86.5644 30.4655C86.8822 29.0539 86.2863 28.2473 84.3002 27.5617C83.3468 27.239 82.5127 26.7147 82.3935 26.4324C82.1552 25.6258 83.466 25.3838 84.2605 26.1098C85.0947 26.8761 86.6836 26.9567 86.6836 26.2308C86.6836 24.6982 83.7838 23.6093 81.7976 24.3756Z" fill="black"/>
<path d="M20.1082 25.1008C18.2412 26.2301 17.5659 27.4803 17.5659 29.6582C17.5659 31.1504 17.7248 31.6747 18.3207 31.9974C19.3535 32.5217 20.9424 31.9167 21.5779 30.7068L22.0943 29.7792L22.3327 30.7471C22.6505 32.199 23.5641 32.6023 24.9147 31.9571C26.305 31.2714 26.8214 30.1825 25.5502 30.5858C24.5572 30.9085 24.5174 30.6665 25.3119 27.198C25.9872 24.4152 25.868 23.9312 24.7558 24.6169C24.3188 24.8992 23.8421 24.9395 23.4846 24.6975C22.6107 24.1329 21.4588 24.2942 20.1082 25.1008ZM22.8888 26.4318C22.293 28.408 21.1013 30.3842 20.4657 30.3842C19.9493 30.3842 19.8699 30.0615 20.0685 28.7306C20.3068 26.8754 21.2999 25.5445 22.4121 25.5445C23.008 25.5445 23.1271 25.7461 22.8888 26.4318Z" fill="black"/>
<path d="M29.6017 24.9388C28.1319 25.5841 27.0991 27.3587 27.0991 29.3349C27.0991 31.7547 29.2044 32.9647 31.3892 31.8354C32.0645 31.4724 32.7398 30.9884 32.859 30.7465C33.3356 30.0205 32.7001 29.8189 31.707 30.3835C30.277 31.1498 29.4825 30.6658 29.4825 29.0122C29.4825 26.3504 31.2303 24.2936 31.7467 26.3101C31.8659 26.8344 32.1837 26.9957 32.7001 26.8747C33.6931 26.5924 33.6931 25.3018 32.7001 24.7372C31.707 24.2129 31.1509 24.2532 29.6017 24.9388Z" fill="black"/>
<path d="M59.6719 28.4083V32.4414L60.7841 32.3204L61.8566 32.1994L61.9758 28.247L62.095 24.3349H60.8636H59.6719V28.4083Z" fill="black"/>
</svg>
