<svg width="20" height="20" viewBox="0 0 20 20" fill="none" xmlns="http://www.w3.org/2000/svg">
<path d="M16.25 8.17363V16.2375C16.25 16.7646 16.0406 17.2701 15.6679 17.6429C15.2951 18.0156 14.7896 18.225 14.2625 18.225H4.9875C4.46038 18.225 3.95485 18.0156 3.58213 17.6429C3.2094 17.2701 3 16.7646 3 16.2375V2.9875C3 2.46038 3.2094 1.95485 3.58213 1.58213C3.95485 1.2094 4.46038 1 4.9875 1H9.07637C9.42766 1.00005 9.76455 1.13961 10.013 1.38798L15.862 7.23702C16.1104 7.48545 16.2499 7.82234 16.25 8.17363Z" stroke="#4F46E5" stroke-width="1.325" stroke-linejoin="round"/>
<path d="M9.625 1.33124V6.29999C9.625 6.6514 9.7646 6.98842 10.0131 7.2369C10.2616 7.48539 10.5986 7.62499 10.95 7.62499H15.9187M6.3125 10.9375H12.9375M6.3125 14.25H12.9375" stroke="#4F46E5" stroke-width="1.325" stroke-linecap="round" stroke-linejoin="round"/>
</svg>
