<svg width="20" height="20" viewBox="0 0 20 20" fill="none" xmlns="http://www.w3.org/2000/svg">
<path fill-rule="evenodd" clip-rule="evenodd" d="M15.8335 2.49999H4.16683C3.7248 2.49999 3.30088 2.67559 2.98832 2.98815C2.67576 3.30071 2.50016 3.72463 2.50016 4.16666V15.8333C2.50016 16.2754 2.67576 16.6993 2.98832 17.0118C3.30088 17.3244 3.7248 17.5 4.16683 17.5H15.8335C16.2755 17.5 16.6994 17.3244 17.012 17.0118C17.3246 16.6993 17.5002 16.2754 17.5002 15.8333V4.16666C17.5002 3.72463 17.3246 3.30071 17.012 2.98815C16.6994 2.67559 16.2755 2.49999 15.8335 2.49999ZM4.16683 0.833328C3.28277 0.833328 2.43493 1.18452 1.80981 1.80964C1.18469 2.43476 0.833496 3.28261 0.833496 4.16666V15.8333C0.833496 16.7174 1.18469 17.5652 1.80981 18.1904C2.43493 18.8155 3.28277 19.1667 4.16683 19.1667H15.8335C16.7176 19.1667 17.5654 18.8155 18.1905 18.1904C18.8156 17.5652 19.1668 16.7174 19.1668 15.8333V4.16666C19.1668 3.28261 18.8156 2.43476 18.1905 1.80964C17.5654 1.18452 16.7176 0.833328 15.8335 0.833328H4.16683Z" fill="#4F46E5"/>
<path d="M13.3335 10L8.3335 13.6083V6.39166L13.3335 10Z" fill="#4F46E5"/>
</svg>
