<svg width="20" height="20" viewBox="0 0 20 20" fill="none" xmlns="http://www.w3.org/2000/svg">
<path fill-rule="evenodd" clip-rule="evenodd" d="M15.5799 4.6799C14.1312 3.23114 11.7018 3.23114 10.2531 4.6799L8.92242 6.01055C8.597 6.33598 8.06935 6.33598 7.74391 6.01055C7.41848 5.68511 7.41848 5.15747 7.74391 4.83203L9.07459 3.50139C11.1742 1.40176 14.6588 1.40176 16.7584 3.50139C18.8581 5.60102 18.8581 9.08566 16.7584 11.1852L15.4278 12.5159C15.1023 12.8413 14.5748 12.8413 14.2493 12.5159C13.9238 12.1905 13.9238 11.6628 14.2493 11.3374L15.5799 10.0067C17.0287 8.55799 17.0287 6.12866 15.5799 4.6799ZM13.0891 7.17075C13.4145 7.49618 13.4145 8.02382 13.0891 8.34924L8.0891 13.3492C7.76365 13.6747 7.23602 13.6747 6.91058 13.3492C6.58514 13.0238 6.58514 12.4962 6.91058 12.1707L11.9106 7.17075C12.236 6.84531 12.7637 6.84531 13.0891 7.17075ZM5.75039 8.00408C6.07582 8.32952 6.07582 8.85716 5.75039 9.18257L4.41974 10.5132C2.97098 11.962 2.97098 14.3913 4.41974 15.8401C5.8685 17.2888 8.29785 17.2888 9.74659 15.8401L11.0773 14.5095C11.4027 14.184 11.9303 14.184 12.2558 14.5095C12.5812 14.8349 12.5812 15.3625 12.2558 15.688L10.9251 17.0186C8.8255 19.1182 5.34085 19.1182 3.24123 17.0186C1.1416 14.919 1.1416 11.4343 3.24123 9.33474L4.57187 8.00408C4.89731 7.67864 5.42495 7.67864 5.75039 8.00408Z" fill="#52525B"/>
</svg>
