<svg width="126" height="41" viewBox="0 0 126 41" fill="none" xmlns="http://www.w3.org/2000/svg">
<path d="M37 2.85791H0.5H0V5.26965H34.8287V32.8579H1.69544V11.2047H0V35.1419H37V2.85791Z" fill="white"/>
<path fill-rule="evenodd" clip-rule="evenodd" d="M13.66 12.0766C14.0245 12.4411 14.0245 13.032 13.66 13.3965L8.25327 18.8032L13.66 24.2099C14.0245 24.5744 14.0245 25.1654 13.66 25.5299C13.2955 25.8943 12.7045 25.8943 12.34 25.5299L6.27337 19.4632C5.90888 19.0987 5.90888 18.5077 6.27337 18.1433L12.34 12.0766C12.7045 11.7121 13.2955 11.7121 13.66 12.0766Z" fill="url(#paint0_linear_3033_6318)"/>
<line x1="19.018" y1="8.96244" x2="16.9274" y2="28.8529" stroke="url(#paint1_linear_3033_6318)" stroke-width="2"/>
<path fill-rule="evenodd" clip-rule="evenodd" d="M22.3393 25.5299C21.9187 25.1654 21.9187 24.5744 22.3393 24.2099L28.5778 18.8032L22.3393 13.3965C21.9187 13.032 21.9187 12.4411 22.3393 12.0766C22.7599 11.7121 23.4417 11.7121 23.8623 12.0766L30.8623 18.1433C31.2829 18.5077 31.2829 19.0987 30.8623 19.4632L23.8623 25.5299C23.4417 25.8943 22.7599 25.8943 22.3393 25.5299Z" fill="url(#paint2_linear_3033_6318)"/>
<path d="M49.386 17V3.59H51.51V15.11H57.306V17H49.386ZM61.8071 17.216C61.1471 17.216 60.5651 17.102 60.0611 16.874C59.5691 16.634 59.1851 16.31 58.9091 15.902C58.6331 15.482 58.4951 14.99 58.4951 14.426C58.4951 13.898 58.6091 13.424 58.8371 13.004C59.0771 12.584 59.4431 12.23 59.9351 11.942C60.4271 11.654 61.0451 11.45 61.7891 11.33L65.1731 10.772V12.374L62.1851 12.896C61.6451 12.992 61.2491 13.166 60.9971 13.418C60.7451 13.658 60.6191 13.97 60.6191 14.354C60.6191 14.726 60.7571 15.032 61.0331 15.272C61.3211 15.5 61.6871 15.614 62.1311 15.614C62.6831 15.614 63.1631 15.494 63.5711 15.254C63.9911 15.014 64.3151 14.696 64.5431 14.3C64.7711 13.892 64.8851 13.442 64.8851 12.95V10.448C64.8851 9.968 64.7051 9.578 64.3451 9.278C63.9971 8.966 63.5291 8.81 62.9411 8.81C62.4011 8.81 61.9271 8.954 61.5191 9.242C61.1231 9.518 60.8291 9.878 60.6371 10.322L58.9451 9.476C59.1251 8.996 59.4191 8.576 59.8271 8.216C60.2351 7.844 60.7091 7.556 61.2491 7.352C61.8011 7.148 62.3831 7.046 62.9951 7.046C63.7631 7.046 64.4411 7.19 65.0291 7.478C65.6291 7.766 66.0911 8.168 66.4151 8.684C66.7511 9.188 66.9191 9.776 66.9191 10.448V17H64.9751V15.236L65.3891 15.29C65.1611 15.686 64.8671 16.028 64.5071 16.316C64.1591 16.604 63.7571 16.826 63.3011 16.982C62.8571 17.138 62.3591 17.216 61.8071 17.216ZM69.2974 17V3.374H71.3314V12.5L70.5394 12.302L75.4174 7.262H77.9554L74.2834 11.168L78.1174 17H75.7774L72.3574 11.834L73.5634 11.672L70.6834 14.732L71.3314 13.382V17H69.2974ZM83.9065 17.216C82.9345 17.216 82.0705 16.994 81.3145 16.55C80.5705 16.094 79.9885 15.482 79.5685 14.714C79.1485 13.934 78.9385 13.064 78.9385 12.104C78.9385 11.12 79.1485 10.25 79.5685 9.494C80.0005 8.738 80.5765 8.144 81.2965 7.712C82.0165 7.268 82.8325 7.046 83.7445 7.046C84.4765 7.046 85.1305 7.172 85.7065 7.424C86.2825 7.676 86.7685 8.024 87.1645 8.468C87.5605 8.9 87.8605 9.398 88.0645 9.962C88.2805 10.526 88.3885 11.126 88.3885 11.762C88.3885 11.918 88.3825 12.08 88.3705 12.248C88.3585 12.416 88.3345 12.572 88.2985 12.716H80.5405V11.096H87.1465L86.1745 11.834C86.2945 11.246 86.2525 10.724 86.0485 10.268C85.8565 9.8 85.5565 9.434 85.1485 9.17C84.7525 8.894 84.2845 8.756 83.7445 8.756C83.2045 8.756 82.7245 8.894 82.3045 9.17C81.8845 9.434 81.5605 9.818 81.3325 10.322C81.1045 10.814 81.0145 11.414 81.0625 12.122C81.0025 12.782 81.0925 13.358 81.3325 13.85C81.5845 14.342 81.9325 14.726 82.3765 15.002C82.8325 15.278 83.3485 15.416 83.9245 15.416C84.5125 15.416 85.0105 15.284 85.4185 15.02C85.8385 14.756 86.1685 14.414 86.4085 13.994L88.0645 14.804C87.8725 15.26 87.5725 15.674 87.1645 16.046C86.7685 16.406 86.2885 16.694 85.7245 16.91C85.1725 17.114 84.5665 17.216 83.9065 17.216ZM93.9735 17.216C92.9775 17.216 92.1015 16.97 91.3455 16.478C90.6015 15.986 90.0795 15.326 89.7795 14.498L91.3455 13.76C91.6095 14.312 91.9695 14.75 92.4255 15.074C92.8935 15.398 93.4095 15.56 93.9735 15.56C94.4535 15.56 94.8435 15.452 95.1435 15.236C95.4435 15.02 95.5935 14.726 95.5935 14.354C95.5935 14.114 95.5275 13.922 95.3955 13.778C95.2635 13.622 95.0955 13.496 94.8915 13.4C94.6995 13.304 94.5015 13.232 94.2975 13.184L92.7675 12.752C91.9275 12.512 91.2975 12.152 90.8775 11.672C90.4695 11.18 90.2655 10.61 90.2655 9.962C90.2655 9.374 90.4155 8.864 90.7155 8.432C91.0155 7.988 91.4295 7.646 91.9575 7.406C92.4855 7.166 93.0795 7.046 93.7395 7.046C94.6275 7.046 95.4195 7.268 96.1155 7.712C96.8115 8.144 97.3035 8.75 97.5915 9.53L96.0255 10.268C95.8335 9.8 95.5275 9.428 95.1075 9.152C94.6995 8.876 94.2375 8.738 93.7215 8.738C93.2775 8.738 92.9235 8.846 92.6595 9.062C92.3955 9.266 92.2635 9.536 92.2635 9.872C92.2635 10.1 92.3235 10.292 92.4435 10.448C92.5635 10.592 92.7195 10.712 92.9115 10.808C93.1035 10.892 93.3015 10.964 93.5055 11.024L95.0895 11.492C95.8935 11.72 96.5115 12.08 96.9435 12.572C97.3755 13.052 97.5915 13.628 97.5915 14.3C97.5915 14.876 97.4355 15.386 97.1235 15.83C96.8235 16.262 96.4035 16.604 95.8635 16.856C95.3235 17.096 94.6935 17.216 93.9735 17.216ZM99.5845 17V7.262H101.618V17H99.5845ZM99.5845 5.93V3.59H101.618V5.93H99.5845ZM108.497 17.216C107.561 17.216 106.721 16.994 105.977 16.55C105.245 16.094 104.663 15.482 104.231 14.714C103.811 13.946 103.601 13.082 103.601 12.122C103.601 11.162 103.817 10.298 104.249 9.53C104.681 8.762 105.263 8.156 105.995 7.712C106.727 7.268 107.555 7.046 108.479 7.046C109.259 7.046 109.949 7.202 110.549 7.514C111.149 7.826 111.623 8.258 111.971 8.81L111.665 9.278V3.374H113.681V17H111.755V15.02L111.989 15.398C111.653 15.986 111.173 16.436 110.549 16.748C109.925 17.06 109.241 17.216 108.497 17.216ZM108.695 15.326C109.259 15.326 109.763 15.188 110.207 14.912C110.663 14.636 111.017 14.258 111.269 13.778C111.533 13.286 111.665 12.734 111.665 12.122C111.665 11.51 111.533 10.964 111.269 10.484C111.017 10.004 110.663 9.626 110.207 9.35C109.763 9.074 109.259 8.936 108.695 8.936C108.131 8.936 107.621 9.074 107.165 9.35C106.709 9.626 106.355 10.004 106.103 10.484C105.851 10.964 105.725 11.51 105.725 12.122C105.725 12.734 105.851 13.286 106.103 13.778C106.355 14.258 106.703 14.636 107.147 14.912C107.603 15.188 108.119 15.326 108.695 15.326ZM120.627 17.216C119.655 17.216 118.791 16.994 118.035 16.55C117.291 16.094 116.709 15.482 116.289 14.714C115.869 13.934 115.659 13.064 115.659 12.104C115.659 11.12 115.869 10.25 116.289 9.494C116.721 8.738 117.297 8.144 118.017 7.712C118.737 7.268 119.553 7.046 120.465 7.046C121.197 7.046 121.851 7.172 122.427 7.424C123.003 7.676 123.489 8.024 123.885 8.468C124.281 8.9 124.581 9.398 124.785 9.962C125.001 10.526 125.109 11.126 125.109 11.762C125.109 11.918 125.103 12.08 125.091 12.248C125.079 12.416 125.055 12.572 125.019 12.716H117.261V11.096H123.867L122.895 11.834C123.015 11.246 122.973 10.724 122.769 10.268C122.577 9.8 122.277 9.434 121.869 9.17C121.473 8.894 121.005 8.756 120.465 8.756C119.925 8.756 119.445 8.894 119.025 9.17C118.605 9.434 118.281 9.818 118.053 10.322C117.825 10.814 117.735 11.414 117.783 12.122C117.723 12.782 117.813 13.358 118.053 13.85C118.305 14.342 118.653 14.726 119.097 15.002C119.553 15.278 120.069 15.416 120.645 15.416C121.233 15.416 121.731 15.284 122.139 15.02C122.559 14.756 122.889 14.414 123.129 13.994L124.785 14.804C124.593 15.26 124.293 15.674 123.885 16.046C123.489 16.406 123.009 16.694 122.445 16.91C121.893 17.114 121.287 17.216 120.627 17.216ZM51.971 36V23.84H48.209V21.845H57.899V23.84H54.194V36H51.971ZM58.2345 36V25.721H60.2865V27.792L60.0965 27.488C60.3245 26.8167 60.6918 26.3353 61.1985 26.044C61.7051 25.74 62.3131 25.588 63.0225 25.588H63.6495V27.545H62.7565C62.0471 27.545 61.4708 27.7667 61.0275 28.21C60.5968 28.6407 60.3815 29.2613 60.3815 30.072V36H58.2345ZM68.1963 36.228C67.4996 36.228 66.8853 36.1077 66.3533 35.867C65.8339 35.6137 65.4286 35.2717 65.1373 34.841C64.8459 34.3977 64.7003 33.8783 64.7003 33.283C64.7003 32.7257 64.8206 32.2253 65.0613 31.782C65.3146 31.3387 65.7009 30.965 66.2203 30.661C66.7396 30.357 67.3919 30.1417 68.1773 30.015L71.7493 29.426V31.117L68.5953 31.668C68.0253 31.7693 67.6073 31.953 67.3413 32.219C67.0753 32.4723 66.9423 32.8017 66.9423 33.207C66.9423 33.5997 67.0879 33.9227 67.3793 34.176C67.6833 34.4167 68.0696 34.537 68.5383 34.537C69.1209 34.537 69.6276 34.4103 70.0583 34.157C70.5016 33.9037 70.8436 33.568 71.0843 33.15C71.3249 32.7193 71.4453 32.2443 71.4453 31.725V29.084C71.4453 28.5773 71.2553 28.1657 70.8753 27.849C70.5079 27.5197 70.0139 27.355 69.3933 27.355C68.8233 27.355 68.3229 27.507 67.8923 27.811C67.4743 28.1023 67.1639 28.4823 66.9613 28.951L65.1753 28.058C65.3653 27.5513 65.6756 27.108 66.1063 26.728C66.5369 26.3353 67.0373 26.0313 67.6073 25.816C68.1899 25.6007 68.8043 25.493 69.4503 25.493C70.2609 25.493 70.9766 25.645 71.5973 25.949C72.2306 26.253 72.7183 26.6773 73.0603 27.222C73.4149 27.754 73.5923 28.3747 73.5923 29.084V36H71.5403V34.138L71.9773 34.195C71.7366 34.613 71.4263 34.974 71.0463 35.278C70.6789 35.582 70.2546 35.8163 69.7733 35.981C69.3046 36.1457 68.7789 36.228 68.1963 36.228ZM76.1026 36V25.721H78.2496V36H76.1026ZM76.1026 24.315V21.845H78.2496V24.315H76.1026ZM80.7599 36V25.721H82.8119V27.735L82.5649 27.469C82.8182 26.823 83.2235 26.3353 83.7809 26.006C84.3382 25.664 84.9842 25.493 85.7189 25.493C86.4789 25.493 87.1502 25.6577 87.7329 25.987C88.3155 26.3163 88.7715 26.7723 89.1009 27.355C89.4302 27.9377 89.5949 28.609 89.5949 29.369V36H87.4669V29.939C87.4669 29.4197 87.3719 28.9827 87.1819 28.628C86.9919 28.2607 86.7195 27.982 86.3649 27.792C86.0229 27.5893 85.6302 27.488 85.1869 27.488C84.7435 27.488 84.3445 27.5893 83.9899 27.792C83.6479 27.982 83.3819 28.2607 83.1919 28.628C83.0019 28.9953 82.9069 29.4323 82.9069 29.939V36H80.7599ZM91.8927 36V25.721H94.0397V36H91.8927ZM91.8927 24.315V21.845H94.0397V24.315H91.8927ZM96.5499 36V25.721H98.6019V27.735L98.3549 27.469C98.6082 26.823 99.0136 26.3353 99.5709 26.006C100.128 25.664 100.774 25.493 101.509 25.493C102.269 25.493 102.94 25.6577 103.523 25.987C104.106 26.3163 104.562 26.7723 104.891 27.355C105.22 27.9377 105.385 28.609 105.385 29.369V36H103.257V29.939C103.257 29.4197 103.162 28.9827 102.972 28.628C102.782 28.2607 102.51 27.982 102.155 27.792C101.813 27.5893 101.42 27.488 100.977 27.488C100.534 27.488 100.135 27.5893 99.7799 27.792C99.4379 27.982 99.1719 28.2607 98.9819 28.628C98.7919 28.9953 98.6969 29.4323 98.6969 29.939V36H96.5499ZM112.642 40.18C111.894 40.18 111.204 40.0597 110.571 39.819C109.937 39.5783 109.393 39.2427 108.937 38.812C108.481 38.394 108.139 37.9 107.911 37.33L109.887 36.513C110.064 36.9943 110.387 37.3933 110.856 37.71C111.337 38.0267 111.926 38.185 112.623 38.185C113.167 38.185 113.655 38.0773 114.086 37.862C114.516 37.6593 114.858 37.3553 115.112 36.95C115.365 36.5573 115.492 36.0823 115.492 35.525V33.207L115.872 33.644C115.517 34.3027 115.023 34.803 114.39 35.145C113.769 35.487 113.066 35.658 112.281 35.658C111.331 35.658 110.476 35.4363 109.716 34.993C108.956 34.5497 108.354 33.9417 107.911 33.169C107.48 32.3963 107.265 31.5287 107.265 30.566C107.265 29.5907 107.48 28.723 107.911 27.963C108.354 27.203 108.949 26.6013 109.697 26.158C110.444 25.7147 111.299 25.493 112.262 25.493C113.047 25.493 113.744 25.664 114.352 26.006C114.972 26.3353 115.479 26.8167 115.872 27.45L115.587 27.982V25.721H117.62V35.525C117.62 36.4117 117.404 37.2033 116.974 37.9C116.556 38.6093 115.973 39.1667 115.226 39.572C114.478 39.9773 113.617 40.18 112.642 40.18ZM112.528 33.663C113.098 33.663 113.604 33.53 114.048 33.264C114.491 32.9853 114.839 32.618 115.093 32.162C115.359 31.6933 115.492 31.1677 115.492 30.585C115.492 30.0023 115.359 29.4767 115.093 29.008C114.827 28.5393 114.472 28.172 114.029 27.906C113.585 27.6273 113.085 27.488 112.528 27.488C111.945 27.488 111.426 27.6273 110.97 27.906C110.514 28.172 110.153 28.5393 109.887 29.008C109.633 29.464 109.507 29.9897 109.507 30.585C109.507 31.155 109.633 31.6743 109.887 32.143C110.153 32.6117 110.514 32.9853 110.97 33.264C111.426 33.53 111.945 33.663 112.528 33.663Z" fill="white"/>
<defs>
<linearGradient id="paint0_linear_3033_6318" x1="9.96667" y1="11.8032" x2="9.96667" y2="25.8032" gradientUnits="userSpaceOnUse">
<stop stop-color="#4F46E5"/>
<stop offset="1" stop-color="#9F1FED"/>
</linearGradient>
<linearGradient id="paint1_linear_3033_6318" x1="19.0234" y1="8.85258" x2="15.2047" y2="34.7346" gradientUnits="userSpaceOnUse">
<stop stop-color="#4F46E5"/>
<stop offset="1" stop-color="#9F1FED"/>
</linearGradient>
<linearGradient id="paint2_linear_3033_6318" x1="26.6008" y1="25.8032" x2="26.6008" y2="11.8032" gradientUnits="userSpaceOnUse">
<stop stop-color="#4F46E5"/>
<stop offset="1" stop-color="#9F1FED"/>
</linearGradient>
</defs>
</svg>
