<svg width="115" height="115" viewBox="0 0 115 115" fill="none" xmlns="http://www.w3.org/2000/svg">
<circle cx="57.5" cy="57.5" r="57.5" fill="#E73D3E" fill-opacity="0.25"/>
<ellipse cx="57.0456" cy="57.0001" rx="41.0456" ry="41.0001" fill="#E73D3E"/>
<path d="M57.3229 53.7474C58.5076 53.7474 59.4681 54.7078 59.4681 55.8925V70.1936C59.4681 71.3783 58.5076 72.3388 57.3229 72.3388C56.1382 72.3388 55.1777 71.3783 55.1777 70.1936V55.8925C55.1777 54.7078 56.1382 53.7474 57.3229 53.7474Z" fill="white"/>
<path d="M57.3216 48.742C58.9013 48.742 60.1819 47.4614 60.1819 45.8818C60.1819 44.3021 58.9013 43.0215 57.3216 43.0215C55.7419 43.0215 54.4614 44.3021 54.4614 45.8818C54.4614 47.4614 55.7419 48.742 57.3216 48.742Z" fill="white"/>
<path fill-rule="evenodd" clip-rule="evenodd" d="M32.2964 57.3226C32.2964 43.5006 43.5013 32.2957 57.3233 32.2957C71.1452 32.2957 82.3501 43.5006 82.3501 57.3226C82.3501 71.1446 71.1452 82.3495 57.3233 82.3495C43.5013 82.3495 32.2964 71.1446 32.2964 57.3226ZM57.3233 36.586C45.8708 36.586 36.5867 45.8701 36.5867 57.3226C36.5867 68.7752 45.8708 78.0591 57.3233 78.0591C68.7758 78.0591 78.0598 68.7752 78.0598 57.3226C78.0598 45.8701 68.7758 36.586 57.3233 36.586Z" fill="white"/>
</svg>
