<svg width="47" height="47" viewBox="0 0 47 47" fill="none" xmlns="http://www.w3.org/2000/svg">
<path d="M35.2427 19.2245C35.2441 19.1804 35.25 19.1378 35.25 19.0938C35.25 12.6048 29.9889 7.34375 23.5 7.34375C17.8982 7.34375 13.2217 11.2668 12.0437 16.5117C7.64925 17.6808 4.40625 21.6743 4.40625 26.4375C4.40625 32.1157 9.00931 36.7188 14.6875 36.7188H33.7812C38.6487 36.7188 42.5938 32.7737 42.5938 27.9062C42.5938 23.5382 39.4124 19.9221 35.2427 19.2245Z" fill="white"/>
<path d="M36.2312 20.1471C36.2327 20.0996 36.2391 20.0537 36.2391 20.0063C36.2391 13.0134 30.5694 7.34375 23.5766 7.34375C17.5397 7.34375 12.5 11.5714 11.2306 17.2237C6.49485 18.4836 3 22.7873 3 27.9203C3 34.0395 7.96053 39 14.0797 39H34.6563C39.9017 39 44.1531 34.7486 44.1531 29.5031C44.1531 24.7958 40.7248 20.899 36.2312 20.1471Z" stroke="#200F60" stroke-width="5.65771" stroke-miterlimit="10" stroke-linecap="round" stroke-linejoin="round"/>
<path d="M13.351 21.3277C13.965 20.7137 14.9575 20.7137 15.5714 21.3277L18.7121 24.4683C19.1612 24.9174 19.2962 25.5926 19.0528 26.1799C18.811 26.7672 18.2363 27.1488 17.6019 27.1488H16.2545C16.9565 29.8513 19.3936 31.8598 22.3128 31.8598C23.1859 31.8598 24.0307 31.6839 24.8237 31.3384C25.6167 30.9867 26.5432 31.3557 26.8903 32.1487C27.2389 32.9433 26.8746 33.8698 26.08 34.2152C24.8897 34.7366 23.6209 35.0004 22.3128 35.0004C17.6537 35.0004 13.7844 31.5975 13.0323 27.1488H11.3206C10.6862 27.1488 10.1115 26.7672 9.86964 26.1799C9.62624 25.5926 9.76129 24.9174 10.2104 24.4683L13.351 21.3277Z" fill="url(#paint0_linear_3455_7095)"/>
<path d="M25.573 24.9767C25.8148 24.391 26.3895 24.0078 27.0239 24.0078H28.3713C27.6693 21.3069 25.2322 19.2969 22.313 19.2969C21.4368 19.2969 20.5904 19.4728 19.7974 19.8198C18.9996 20.1653 18.0763 19.8041 17.7293 19.0111C17.3806 18.2165 17.7434 17.29 18.538 16.943C19.7298 16.4216 21.0018 16.1562 22.313 16.1562C26.9721 16.1562 30.8414 19.5591 31.5935 24.0078H33.3052C33.9396 24.0078 34.5143 24.391 34.7562 24.9767C34.9995 25.564 34.8645 26.2392 34.4154 26.6883L31.2748 29.829C30.9686 30.1352 30.5666 30.2891 30.1646 30.2891C29.7626 30.2891 29.3606 30.1352 29.0543 29.829L25.9137 26.6883C25.4646 26.2392 25.3296 25.564 25.573 24.9767Z" fill="url(#paint1_linear_3455_7095)"/>
<path d="M16.4559 21.6909L19.3934 24.6284C19.8134 25.0484 19.9398 25.68 19.7121 26.2293C19.7003 26.2572 19.6783 26.2792 19.6651 26.3071C20.0103 26.1588 20.3011 25.8944 20.4509 25.5316C20.6785 24.9823 20.5522 24.3508 20.1322 23.9307L17.1947 20.9932C16.6204 20.4189 15.6921 20.4189 15.1178 20.9932L14.5024 21.6086C15.0782 21.1386 15.9183 21.1533 16.4559 21.6909Z" fill="url(#paint2_linear_3455_7095)"/>
<path d="M27.7816 31.1136C27.4555 30.3719 26.589 30.0282 25.8487 30.3557C25.107 30.6789 24.3168 30.8434 23.5002 30.8434C21.0298 30.8434 18.9427 29.2982 18.0776 27.1348H17.095C17.7515 29.6625 20.031 31.541 22.7614 31.541C23.578 31.541 24.3682 31.3765 25.1099 31.0534C25.8517 30.7244 26.7182 31.0695 27.0428 31.8113C27.2279 32.2328 27.1794 32.6837 26.9841 33.0626C26.9973 33.0568 27.0105 33.0538 27.0237 33.048C27.7669 32.7219 28.1077 31.8553 27.7816 31.1136Z" fill="url(#paint3_linear_3455_7095)"/>
<path d="M35.1383 24.4062C34.9121 23.8584 34.3745 23.5 33.7811 23.5H32.1802C31.4781 19.339 27.8591 16.1562 23.4999 16.1562C22.2735 16.1562 21.0838 16.4045 19.969 16.8921C19.4975 17.0992 19.2155 17.5295 19.1362 18.001C19.1729 17.9819 19.1964 17.9481 19.2346 17.932C20.3509 17.4429 21.5391 17.1961 22.7655 17.1961C27.1233 17.1961 30.7423 20.3789 31.4458 24.5399H33.0468C33.6401 24.5399 34.1777 24.8983 34.4039 25.4461C34.5273 25.7443 34.539 26.063 34.4641 26.3626L34.821 26.0057C35.2396 25.5871 35.3659 24.9555 35.1383 24.4062Z" fill="url(#paint4_linear_3455_7095)"/>
<defs>
<linearGradient id="paint0_linear_3455_7095" x1="9.65541" y1="27.9338" x2="26.9091" y2="27.9338" gradientUnits="userSpaceOnUse">
<stop stop-color="#44FF9A"/>
<stop offset="0.234375" stop-color="#44B0FF"/>
<stop offset="0.489583" stop-color="#8B44FF"/>
<stop offset="0.739583" stop-color="#FF6644"/>
<stop offset="1" stop-color="#EBFF70"/>
</linearGradient>
<linearGradient id="paint1_linear_3455_7095" x1="17.5021" y1="23.2227" x2="34.7622" y2="23.2227" gradientUnits="userSpaceOnUse">
<stop stop-color="#44FF9A"/>
<stop offset="0.234375" stop-color="#44B0FF"/>
<stop offset="0.489583" stop-color="#8B44FF"/>
<stop offset="0.739583" stop-color="#FF6644"/>
<stop offset="1" stop-color="#EBFF70"/>
</linearGradient>
<linearGradient id="paint2_linear_3455_7095" x1="14.4693" y1="23.4348" x2="20.523" y2="23.4348" gradientUnits="userSpaceOnUse">
<stop stop-color="#44FF9A"/>
<stop offset="0.234375" stop-color="#44B0FF"/>
<stop offset="0.489583" stop-color="#8B44FF"/>
<stop offset="0.739583" stop-color="#FF6644"/>
<stop offset="1" stop-color="#EBFF70"/>
</linearGradient>
<linearGradient id="paint3_linear_3455_7095" x1="17.0358" y1="30.0987" x2="27.8343" y2="30.0987" gradientUnits="userSpaceOnUse">
<stop stop-color="#44FF9A"/>
<stop offset="0.234375" stop-color="#44B0FF"/>
<stop offset="0.489583" stop-color="#8B44FF"/>
<stop offset="0.739583" stop-color="#FF6644"/>
<stop offset="1" stop-color="#EBFF70"/>
</linearGradient>
<linearGradient id="paint4_linear_3455_7095" x1="19.048" y1="21.2594" x2="35.1443" y2="21.2594" gradientUnits="userSpaceOnUse">
<stop stop-color="#44FF9A"/>
<stop offset="0.234375" stop-color="#44B0FF"/>
<stop offset="0.489583" stop-color="#8B44FF"/>
<stop offset="0.739583" stop-color="#FF6644"/>
<stop offset="1" stop-color="#EBFF70"/>
</linearGradient>
</defs>
</svg>
