<svg width="49" height="48" viewBox="0 0 49 48" fill="none" xmlns="http://www.w3.org/2000/svg">
<path d="M18.6842 34.9674C18.4677 34.9674 18.2314 34.9083 18.0345 34.8099C16.5186 34.0421 15.2192 32.9002 14.2742 31.4827C13.4867 30.3014 13.4867 28.7855 14.2742 27.6042C15.2192 26.1867 16.5186 25.0449 18.0345 24.2967C18.763 23.9227 19.6489 24.2377 20.023 24.9661C20.397 25.6946 20.1017 26.5805 19.3536 26.9546C18.2905 27.4861 17.3848 28.2933 16.7352 29.2777C16.617 29.4549 16.617 29.6911 16.7352 29.888C17.3848 30.8724 18.2905 31.6796 19.3536 32.2111C20.082 32.5852 20.3773 33.4711 20.023 34.1996C19.7473 34.6721 19.2158 34.9674 18.6842 34.9674Z" fill="#313131"/>
<g filter="url(#filter0_f_455_3921)">
<path d="M5.60034 9.99707C5.60034 7.23565 7.83892 4.99707 10.6003 4.99707H38.6003C41.3618 4.99707 43.6003 7.23565 43.6003 9.99707V14.9971H5.60034V9.99707Z" fill="url(#paint0_linear_455_3921)"/>
</g>
<path d="M30.9106 34.9677C30.3594 34.9677 29.8475 34.6724 29.5915 34.1605C29.2175 33.4321 29.5128 32.5462 30.2609 32.1721C31.324 31.6405 32.2297 30.8334 32.8794 29.849C32.9975 29.6718 32.9975 29.4355 32.8794 29.2387C32.2297 28.2543 31.324 27.4471 30.2609 26.9155C29.5325 26.5415 29.2372 25.6555 29.5915 24.9271C29.9656 24.1987 30.8515 23.9034 31.58 24.2577C33.0959 25.0255 34.3953 26.1674 35.3403 27.5849C36.1278 28.7662 36.1278 30.2821 35.3403 31.4634C34.3953 32.8809 33.0959 34.0227 31.58 34.7708C31.3437 34.9087 31.1272 34.9677 30.9106 34.9677Z" fill="#313131"/>
<path d="M30.4966 44.8112H18.6841C7.99377 44.8112 3.42627 40.2437 3.42627 29.5533V17.7408C3.42627 7.05053 7.99377 2.48303 18.6841 2.48303H30.4966C41.1869 2.48303 45.7544 7.05053 45.7544 17.7408V29.5533C45.7544 40.2437 41.1869 44.8112 30.4966 44.8112ZM18.6841 5.43616C9.60814 5.43616 6.37939 8.66491 6.37939 17.7408V29.5533C6.37939 38.6293 9.60814 41.858 18.6841 41.858H30.4966C39.5725 41.858 42.8013 38.6293 42.8013 29.5533V17.7408C42.8013 8.66491 39.5725 5.43616 30.4966 5.43616H18.6841Z" fill="#313131"/>
<path d="M5.35669 17.2683C4.5495 17.2683 3.88013 16.599 3.88013 15.7918C3.88013 14.9846 4.52981 14.3152 5.35669 14.3152L43.1961 14.2955C44.0033 14.2955 44.6726 14.9649 44.6726 15.7721C44.6726 16.5793 44.0229 17.2487 43.1961 17.2487L5.35669 17.2683Z" fill="#313131"/>
<defs>
<filter id="filter0_f_455_3921" x="1.60034" y="0.99707" width="46" height="18" filterUnits="userSpaceOnUse" color-interpolation-filters="sRGB">
<feFlood flood-opacity="0" result="BackgroundImageFix"/>
<feBlend mode="normal" in="SourceGraphic" in2="BackgroundImageFix" result="shape"/>
<feGaussianBlur stdDeviation="2" result="effect1_foregroundBlur_455_3921"/>
</filter>
<linearGradient id="paint0_linear_455_3921" x1="5.39224" y1="9.99707" x2="43.3506" y2="9.99707" gradientUnits="userSpaceOnUse">
<stop stop-color="#44FF9A"/>
<stop offset="0.234375" stop-color="#44B0FF"/>
<stop offset="0.489583" stop-color="#8B44FF"/>
<stop offset="0.739583" stop-color="#FF6644"/>
<stop offset="1" stop-color="#EBFF70"/>
</linearGradient>
</defs>
</svg>
