<svg width="44" height="41" viewBox="0 0 44 41" fill="none" xmlns="http://www.w3.org/2000/svg">
	<g filter="url(#filter0_f_455_4619)">
		<path d="M29.0161 17.9355C28.5333 17.4424 27.9457 17.0645 27.2968 16.8297C26.6479 16.5949 25.9545 16.5092 25.2679 16.5791C24.5814 16.649 23.9195 16.8727 23.3312 17.2335C22.743 17.5942 22.2436 18.0829 21.8701 18.6631C21.4967 18.0827 20.9973 17.594 20.409 17.2331C19.8208 16.8722 19.1588 16.6485 18.4722 16.5786C17.7856 16.5087 17.0921 16.5943 16.4432 16.8293C15.7943 17.0642 15.2067 17.4423 14.724 17.9355C13.853 18.8263 13.3653 20.0226 13.3653 21.2685C13.3653 22.5143 13.853 23.7107 14.724 24.6015L21.8701 31.8638L29.018 24.6025C29.8884 23.711 30.3754 22.5144 30.3751 21.2686C30.3747 20.0227 29.887 18.8264 29.0161 17.9355Z" fill="url(#paint0_linear_455_4619)" />
	</g>
	<path d="M29.0161 17.9355C28.5333 17.4424 27.9457 17.0645 27.2968 16.8297C26.6479 16.5949 25.9545 16.5092 25.2679 16.5791C24.5814 16.649 23.9195 16.8727 23.3312 17.2335C22.743 17.5942 22.2436 18.0829 21.8701 18.6631C21.4967 18.0827 20.9973 17.594 20.409 17.2331C19.8208 16.8722 19.1588 16.6485 18.4722 16.5786C17.7856 16.5087 17.0921 16.5943 16.4432 16.8293C15.7943 17.0642 15.2067 17.4423 14.724 17.9355C13.853 18.8263 13.3653 20.0226 13.3653 21.2685C13.3653 22.5143 13.853 23.7107 14.724 24.6015L21.8701 31.8638L29.018 24.6024C29.8884 23.711 30.3754 22.5144 30.3751 21.2686C30.3747 20.0227 29.887 18.8264 29.0161 17.9355V17.9355Z" stroke="#161616" stroke-width="1.89" stroke-miterlimit="10" stroke-linecap="round" stroke-linejoin="round" />
	<path d="M38.8801 39.2349H4.86014C3.85762 39.2349 2.89616 38.8367 2.18728 38.1278C1.47839 37.4189 1.08014 36.4575 1.08014 35.4549V1.43494H16.2001L20.9251 8.99494H42.6601V35.4549C42.6601 36.4575 42.2619 37.4189 41.553 38.1278C40.8441 38.8367 39.8827 39.2349 38.8801 39.2349Z" stroke="#161616" stroke-width="1.89" stroke-miterlimit="10" stroke-linecap="round" stroke-linejoin="round" />
	<defs>
		<filter id="filter0_f_455_4619" x="9.3653" y="12.5549" width="25.0098" height="23.3088" filterUnits="userSpaceOnUse" color-interpolation-filters="sRGB">
			<feFlood flood-opacity="0" result="BackgroundImageFix" />
			<feBlend mode="normal" in="SourceGraphic" in2="BackgroundImageFix" result="shape" />
			<feGaussianBlur stdDeviation="2" result="effect1_foregroundBlur_455_4619" />
		</filter>
		<linearGradient id="paint0_linear_455_4619" x1="13.2721" y1="24.2094" x2="30.2633" y2="24.2094" gradientUnits="userSpaceOnUse">
			<stop stop-color="#44FF9A" />
			<stop offset="0.234375" stop-color="#44B0FF" />
			<stop offset="0.489583" stop-color="#8B44FF" />
			<stop offset="0.739583" stop-color="#FF6644" />
			<stop offset="1" stop-color="#EBFF70" />
		</linearGradient>
	</defs>
</svg>
