<?xml version="1.0" standalone="no"?>
<!DOCTYPE svg PUBLIC "-//W3C//DTD SVG 20010904//EN"
 "http://www.w3.org/TR/2001/REC-SVG-20010904/DTD/svg10.dtd">
<svg version="1.0" xmlns="http://www.w3.org/2000/svg"
 width="120.000000pt" height="120.000000pt" viewBox="0 0 120.000000 120.000000"
 preserveAspectRatio="xMidYMid meet">

<g transform="translate(0.000000,120.000000) scale(0.100000,-0.100000)"
fill="#000000" stroke="none">
<path d="M520 1140 c-161 -25 -315 -127 -387 -257 l-22 -39 52 -40 c29 -22 68
-52 88 -67 l37 -28 30 54 c59 104 159 161 283 162 65 0 84 -5 140 -32 l64 -32
74 74 c72 72 74 75 57 93 -25 28 -121 78 -186 96 -73 20 -162 27 -230 16z"/>
<path d="M600 595 l0 -105 151 0 150 0 -7 -22 c-14 -47 -44 -96 -73 -121 l-30
-25 81 -62 c94 -73 92 -73 155 19 68 99 106 260 89 375 l-7 46 -255 0 -254 0
0 -105z"/>
</g>
</svg>
