<svg width="48" height="47" viewBox="0 0 48 47" fill="none" xmlns="http://www.w3.org/2000/svg">
<g clip-path="url(#clip0_3455_7141)">
<path d="M47.1328 35.8926V1.74414H0.867188V35.8926H21.2461V41.2168H14.2695V45.2559H33.7305V41.2168H26.7539V35.8926H47.1328ZM3.98828 4.86523H43.8281V32.5879H3.98828V4.86523Z" fill="black"/>
<path d="M32.0688 17.1719L31.7394 17.7462C31.6189 17.9591 31.3619 18.0474 31.1329 17.9631C30.659 17.7864 30.2252 17.5333 29.8437 17.216C29.6589 17.0634 29.6107 16.7943 29.7312 16.5854L30.0605 16.0111C29.7834 15.6898 29.5665 15.3162 29.4219 14.9106H28.7592C28.5182 14.9106 28.3094 14.7379 28.2692 14.4969C28.1889 14.0149 28.1848 13.5088 28.2692 13.0068C28.3094 12.7658 28.5182 12.589 28.7592 12.589H29.4219C29.5665 12.1834 29.7834 11.8098 30.0605 11.4885L29.7312 10.9142C29.6107 10.7053 29.6549 10.4362 29.8437 10.2836C30.2252 9.96628 30.663 9.71324 31.1329 9.53652C31.3619 9.45217 31.6189 9.54053 31.7394 9.75341L32.0688 10.3278C32.4905 10.2515 32.9203 10.2515 33.342 10.3278L33.6714 9.75341C33.7919 9.54053 34.0489 9.45217 34.2778 9.53652C34.7518 9.71324 35.1856 9.96628 35.5671 10.2836C35.7519 10.4362 35.8001 10.7053 35.6796 10.9142L35.3503 11.4885C35.6274 11.8098 35.8443 12.1834 35.9889 12.589H36.6516C36.8926 12.589 37.1014 12.7618 37.1416 13.0027C37.2219 13.4847 37.226 13.9908 37.1416 14.4929C37.1014 14.7338 36.8926 14.9106 36.6516 14.9106H35.9889C35.8443 15.3162 35.6274 15.6898 35.3503 16.0111L35.6796 16.5854C35.8001 16.7943 35.7559 17.0634 35.5671 17.216C35.1856 17.5333 34.7478 17.7864 34.2778 17.9631C34.0489 18.0474 33.7919 17.9591 33.6714 17.7462L33.342 17.1719C32.9243 17.2482 32.4905 17.2482 32.0688 17.1719ZM31.6471 14.8102C33.1934 15.999 34.9566 14.2358 33.7678 12.6895C32.2214 11.4966 30.4582 13.2638 31.6471 14.8102ZM27.016 20.9915L28.3696 21.6663C28.7753 21.8993 28.952 22.3933 28.7913 22.8351C28.4339 23.8071 27.731 24.6987 27.0803 25.4779C26.7831 25.8354 26.269 25.9238 25.8633 25.6908L24.6945 25.016C24.0519 25.5663 23.3048 26.0041 22.4895 26.2893V27.6388C22.4895 28.1047 22.1561 28.5064 21.6982 28.5867C20.7102 28.7554 19.6739 28.7634 18.6497 28.5867C18.1878 28.5064 17.8464 28.1087 17.8464 27.6388V26.2893C17.0311 26.0001 16.284 25.5663 15.6414 25.016L14.4726 25.6868C14.0709 25.9198 13.5528 25.8314 13.2556 25.4739C12.6049 24.6947 11.9181 23.8031 11.5606 22.8351C11.4 22.3973 11.5767 21.9033 11.9824 21.6663L13.3198 20.9915C13.1632 20.1521 13.1632 19.2885 13.3198 18.4451L11.9824 17.7663C11.5767 17.5333 11.3959 17.0393 11.5606 16.6015C11.9181 15.6295 12.6049 14.7379 13.2556 13.9587C13.5528 13.6012 14.0669 13.5128 14.4726 13.7458L15.6414 14.4206C16.284 13.8703 17.0311 13.4325 17.8464 13.1473V11.7938C17.8464 11.3319 18.1758 10.9302 18.6337 10.8499C19.6217 10.6812 20.662 10.6732 21.6862 10.8459C22.1481 10.9262 22.4895 11.3239 22.4895 11.7938V13.1433C23.3048 13.4325 24.0519 13.8663 24.6945 14.4165L25.8633 13.7418C26.265 13.5088 26.7831 13.5972 27.0803 13.9546C27.731 14.7338 28.4138 15.6255 28.7713 16.5975C28.9319 17.0353 28.7753 17.5293 28.3696 17.7663L27.016 18.4411C27.1727 19.2845 27.1727 20.1481 27.016 20.9915ZM22.2927 21.839C24.6704 18.7463 21.1399 15.2158 18.0472 17.5936C15.6695 20.6863 19.2 24.2168 22.2927 21.839Z" fill="url(#paint0_linear_3455_7141)"/>
</g>
<defs>
<linearGradient id="paint0_linear_3455_7141" x1="11.3592" y1="19.7524" x2="37.0345" y2="19.7524" gradientUnits="userSpaceOnUse">
<stop stop-color="#44FF9A"/>
<stop offset="0.234375" stop-color="#44B0FF"/>
<stop offset="0.489583" stop-color="#8B44FF"/>
<stop offset="0.739583" stop-color="#FF6644"/>
<stop offset="1" stop-color="#EBFF70"/>
</linearGradient>
<clipPath id="clip0_3455_7141">
<rect width="47" height="47" fill="white" transform="translate(0.5)"/>
</clipPath>
</defs>
</svg>
