<svg width="48" height="47" viewBox="0 0 48 47" fill="none" xmlns="http://www.w3.org/2000/svg">
<g opacity="0.8" filter="url(#filter0_f_455_3960)">
<path fill-rule="evenodd" clip-rule="evenodd" d="M26.2206 6.5056C24.9258 5.8298 23.1712 5.81938 21.8662 6.49344C16.8633 9.07715 12.3256 12.0396 8.34924 15.3253C7.73433 15.8334 7.29794 16.5718 7.30539 17.4408C7.3128 18.3064 7.75806 19.0348 8.36925 19.5346C12.3126 22.7588 16.854 25.7241 21.7652 28.2872C23.0601 28.9631 24.8146 28.9735 26.1198 28.2994C31.1225 25.7158 35.6602 22.7532 39.6367 19.4675C40.2516 18.9594 40.688 18.2211 40.6805 17.352C40.6729 16.4865 40.2278 15.758 39.6166 15.2583C35.6731 12.034 31.1318 9.06885 26.2206 6.5056Z" fill="url(#paint0_linear_455_3960)"/>
</g>
<path fill-rule="evenodd" clip-rule="evenodd" d="M26.2206 6.5056C24.9258 5.8298 23.1712 5.81938 21.8662 6.49344C16.8633 9.07715 12.3256 12.0396 8.34924 15.3253C7.73433 15.8334 7.29794 16.5718 7.30539 17.4408C7.3128 18.3064 7.75806 19.0348 8.36925 19.5346C12.3126 22.7588 16.854 25.7241 21.7652 28.2872C23.0601 28.9631 24.8146 28.9735 26.1198 28.2994C31.1225 25.7158 35.6602 22.7532 39.6367 19.4675C40.2516 18.9594 40.688 18.2211 40.6805 17.352C40.6729 16.4865 40.2278 15.758 39.6166 15.2583C35.6731 12.034 31.1318 9.06885 26.2206 6.5056ZM23.1941 9.06482C23.6564 8.82602 24.416 8.82828 24.8816 9.07124C29.5686 11.5175 33.8873 14.3319 37.629 17.3718C33.8651 20.4605 29.5592 23.2659 24.7919 25.7279C24.3294 25.9668 23.5698 25.9645 23.1042 25.7216C18.4171 23.2753 14.0984 20.4609 10.3569 17.4211C14.1208 14.3323 18.4266 11.527 23.1941 9.06482Z" fill="#272727"/>
<path d="M41.7373 24.5216C42.1606 25.1994 41.9541 26.0922 41.2761 26.5155L29.4931 33.872C27.8942 34.8702 25.9104 35.3317 23.9926 35.3317C22.075 35.3319 20.0911 34.8706 18.4919 33.8726L6.83784 26.5994C6.15986 26.1763 5.95326 25.2836 6.37639 24.6056C6.79951 23.9276 7.69213 23.721 8.37009 24.1441L20.0242 31.4174C21.074 32.0726 22.5002 32.4379 23.9924 32.4377C25.4848 32.4377 26.9108 32.0723 27.9604 31.417L39.7436 24.0605C40.4214 23.6372 41.3142 23.8437 41.7373 24.5216Z" fill="#272727"/>
<path d="M41.7373 31.7657C42.1606 32.4437 41.9541 33.3362 41.2763 33.7595L31.0721 40.1321C29.0316 41.4064 26.479 42.0059 23.9926 42.0061C21.5062 42.0062 18.9535 41.407 16.9126 40.133L6.83768 33.8435C6.15976 33.4203 5.95328 32.5276 6.37649 31.8498C6.79967 31.1718 7.69232 30.9654 8.37024 31.3885L18.4452 37.6779C19.9366 38.609 21.9315 39.1122 23.9924 39.112C26.0534 39.1118 28.048 38.6086 29.5392 37.6773L39.7434 31.305C40.4212 30.8817 41.314 31.0879 41.7373 31.7657Z" fill="#272727"/>
<defs>
<filter id="filter0_f_455_3960" x="3.3053" y="1.99329" width="41.3752" height="30.8063" filterUnits="userSpaceOnUse" color-interpolation-filters="sRGB">
<feFlood flood-opacity="0" result="BackgroundImageFix"/>
<feBlend mode="normal" in="SourceGraphic" in2="BackgroundImageFix" result="shape"/>
<feGaussianBlur stdDeviation="2" result="effect1_foregroundBlur_455_3960"/>
</filter>
<linearGradient id="paint0_linear_455_3960" x1="7.12252" y1="17.3964" x2="40.4612" y2="17.3964" gradientUnits="userSpaceOnUse">
<stop stop-color="#44FF9A"/>
<stop offset="0.234375" stop-color="#44B0FF"/>
<stop offset="0.489583" stop-color="#8B44FF"/>
<stop offset="0.739583" stop-color="#FF6644"/>
<stop offset="1" stop-color="#EBFF70"/>
</linearGradient>
</defs>
</svg>
