<svg width="48" height="47" viewBox="0 0 48 47" fill="none" xmlns="http://www.w3.org/2000/svg">
<g clip-path="url(#clip0_3455_7132)">
<path d="M45.0066 5.875H4.875V17.9145H6.88158V39.9868C6.88158 42.2041 8.67747 44 10.8947 44H38.9868C41.2041 44 43 42.2041 43 39.9868V17.9145H45.0066V5.875ZM8.88816 9.88816H40.9934V13.9013H8.88816V9.88816ZM38.9868 39.9868H10.8947V17.9145H38.9868V39.9868Z" fill="black"/>
<path d="M32.4438 27.1719L32.1144 27.7462C31.9939 27.9591 31.7369 28.0474 31.5079 27.9631C31.034 27.7864 30.6002 27.5333 30.2187 27.216C30.0339 27.0634 29.9857 26.7943 30.1062 26.5854L30.4355 26.0111C30.1584 25.6898 29.9415 25.3162 29.7969 24.9106H29.1342C28.8932 24.9106 28.6844 24.7379 28.6442 24.4969C28.5639 24.0149 28.5598 23.5088 28.6442 23.0068C28.6844 22.7658 28.8932 22.589 29.1342 22.589H29.7969C29.9415 22.1834 30.1584 21.8098 30.4355 21.4885L30.1062 20.9142C29.9857 20.7053 30.0299 20.4362 30.2187 20.2836C30.6002 19.9663 31.038 19.7132 31.5079 19.5365C31.7369 19.4522 31.9939 19.5405 32.1144 19.7534L32.4438 20.3278C32.8655 20.2515 33.2953 20.2515 33.717 20.3278L34.0464 19.7534C34.1669 19.5405 34.4239 19.4522 34.6528 19.5365C35.1268 19.7132 35.5606 19.9663 35.9421 20.2836C36.1269 20.4362 36.1751 20.7053 36.0546 20.9142L35.7253 21.4885C36.0024 21.8098 36.2193 22.1834 36.3639 22.589H37.0266C37.2676 22.589 37.4764 22.7618 37.5166 23.0027C37.5969 23.4847 37.601 23.9908 37.5166 24.4929C37.4764 24.7338 37.2676 24.9106 37.0266 24.9106H36.3639C36.2193 25.3162 36.0024 25.6898 35.7253 26.0111L36.0546 26.5854C36.1751 26.7943 36.1309 27.0634 35.9421 27.216C35.5606 27.5333 35.1228 27.7864 34.6528 27.9631C34.4239 28.0474 34.1669 27.9591 34.0464 27.7462L33.717 27.1719C33.2993 27.2482 32.8655 27.2482 32.4438 27.1719ZM32.0221 24.8102C33.5684 25.999 35.3316 24.2358 34.1428 22.6895C32.5964 21.4966 30.8332 23.2638 32.0221 24.8102ZM27.391 30.9915L28.7446 31.6663C29.1503 31.8993 29.327 32.3933 29.1663 32.8351C28.8089 33.8071 28.106 34.6987 27.4553 35.4779C27.1581 35.8354 26.644 35.9238 26.2383 35.6908L25.0695 35.016C24.4269 35.5663 23.6798 36.0041 22.8645 36.2893V37.6388C22.8645 38.1047 22.5311 38.5064 22.0732 38.5867C21.0852 38.7554 20.0489 38.7634 19.0247 38.5867C18.5628 38.5064 18.2214 38.1087 18.2214 37.6388V36.2893C17.4061 36.0001 16.659 35.5663 16.0164 35.016L14.8476 35.6868C14.4459 35.9198 13.9278 35.8314 13.6306 35.4739C12.9799 34.6947 12.2931 33.8031 11.9356 32.8351C11.775 32.3973 11.9517 31.9033 12.3574 31.6663L13.6948 30.9915C13.5382 30.1521 13.5382 29.2885 13.6948 28.4451L12.3574 27.7663C11.9517 27.5333 11.7709 27.0393 11.9356 26.6015C12.2931 25.6295 12.9799 24.7379 13.6306 23.9587C13.9278 23.6012 14.4419 23.5128 14.8476 23.7458L16.0164 24.4206C16.659 23.8703 17.4061 23.4325 18.2214 23.1473V21.7938C18.2214 21.3319 18.5508 20.9302 19.0087 20.8499C19.9967 20.6812 21.037 20.6732 22.0612 20.8459C22.5231 20.9262 22.8645 21.3239 22.8645 21.7938V23.1433C23.6798 23.4325 24.4269 23.8663 25.0695 24.4165L26.2383 23.7418C26.64 23.5088 27.1581 23.5972 27.4553 23.9546C28.106 24.7338 28.7888 25.6255 29.1463 26.5975C29.3069 27.0353 29.1503 27.5293 28.7446 27.7663L27.391 28.4411C27.5477 29.2845 27.5477 30.1481 27.391 30.9915ZM22.6677 31.839C25.0454 28.7463 21.5149 25.2158 18.4222 27.5936C16.0445 30.6863 19.575 34.2168 22.6677 31.839Z" fill="url(#paint0_linear_3455_7132)"/>
</g>
<defs>
<linearGradient id="paint0_linear_3455_7132" x1="11.7342" y1="29.7524" x2="37.4095" y2="29.7524" gradientUnits="userSpaceOnUse">
<stop stop-color="#44FF9A"/>
<stop offset="0.234375" stop-color="#44B0FF"/>
<stop offset="0.489583" stop-color="#8B44FF"/>
<stop offset="0.739583" stop-color="#FF6644"/>
<stop offset="1" stop-color="#EBFF70"/>
</linearGradient>
<clipPath id="clip0_3455_7132">
<rect width="47" height="47" fill="white" transform="translate(0.875)"/>
</clipPath>
</defs>
</svg>
