<svg width="47" height="47" viewBox="0 0 47 47" fill="none" xmlns="http://www.w3.org/2000/svg">
<g opacity="0.8" filter="url(#filter0_f_3455_7122)">
<path fill-rule="evenodd" clip-rule="evenodd" d="M25.47 6.50841C24.1751 5.8326 22.4206 5.82219 21.1155 6.49625C16.1127 9.07996 11.575 12.0424 7.59863 15.3281C6.98372 15.8362 6.54733 16.5746 6.55478 17.4436C6.56219 18.3092 7.00745 19.0376 7.61864 19.5374C11.562 22.7616 16.1034 25.7269 21.0146 28.29C22.3094 28.9659 24.064 28.9763 25.3692 28.3022C30.3719 25.7186 34.9096 22.756 38.8861 19.4703C39.5009 18.9622 39.9374 18.2239 39.9298 17.3548C39.9223 16.4893 39.4772 15.7608 38.866 15.2611C34.9225 12.0368 30.3812 9.07166 25.47 6.50841Z" fill="url(#paint0_linear_3455_7122)"/>
</g>
<path fill-rule="evenodd" clip-rule="evenodd" d="M25.47 6.50841C24.1751 5.8326 22.4206 5.82219 21.1155 6.49625C16.1127 9.07996 11.575 12.0424 7.59863 15.3281C6.98372 15.8362 6.54733 16.5746 6.55478 17.4436C6.56219 18.3092 7.00745 19.0376 7.61864 19.5374C11.562 22.7616 16.1034 25.7269 21.0146 28.29C22.3094 28.9659 24.064 28.9763 25.3692 28.3022C30.3719 25.7186 34.9096 22.756 38.8861 19.4703C39.5009 18.9622 39.9374 18.2239 39.9298 17.3548C39.9223 16.4893 39.4772 15.7608 38.866 15.2611C34.9225 12.0368 30.3812 9.07166 25.47 6.50841ZM22.4435 9.06763C22.9058 8.82883 23.6654 8.83109 24.131 9.07405C28.818 11.5203 33.1367 14.3347 36.8783 17.3746C33.1145 20.4633 28.8085 23.2687 24.0412 25.7307C23.5788 25.9696 22.8192 25.9673 22.3536 25.7244C17.6665 23.2781 13.3478 20.4637 9.6063 17.4239C13.3701 14.3351 17.676 11.5298 22.4435 9.06763Z" fill="#272727"/>
<path d="M40.9868 24.5247C41.4101 25.2025 41.2036 26.0952 40.5257 26.5185L28.7426 33.875C27.1437 34.8733 25.1599 35.3348 23.2421 35.3348C21.3245 35.335 19.3406 34.8737 17.7414 33.8756L6.08735 26.6024C5.40937 26.1793 5.20277 25.2866 5.62591 24.6086C6.04902 23.9306 6.94164 23.724 7.61961 24.1471L19.2737 31.4205C20.3236 32.0757 21.7498 32.4409 23.2419 32.4407C24.7343 32.4407 26.1603 32.0753 27.2099 31.4201L38.9932 24.0636C39.6709 23.6403 40.5637 23.8467 40.9868 24.5247Z" fill="#272727"/>
<path d="M40.9868 31.7685C41.4101 32.4465 41.2036 33.339 40.5258 33.7623L30.3216 40.1349C28.2811 41.4092 25.7285 42.0087 23.2421 42.0089C20.7557 42.0091 18.203 41.4098 16.1621 40.1358L6.08719 33.8463C5.40927 33.4231 5.20279 32.5304 5.626 31.8526C6.04919 31.1747 6.94183 30.9682 7.61976 31.3913L17.6947 37.6807C19.1861 38.6118 21.181 39.115 23.2419 39.1148C25.3029 39.1146 27.2975 38.6114 28.7887 37.6801L38.993 31.3078C39.6707 30.8845 40.5635 31.0907 40.9868 31.7685Z" fill="#272727"/>
<defs>
<filter id="filter0_f_3455_7122" x="2.55469" y="1.99609" width="41.3752" height="30.8066" filterUnits="userSpaceOnUse" color-interpolation-filters="sRGB">
<feFlood flood-opacity="0" result="BackgroundImageFix"/>
<feBlend mode="normal" in="SourceGraphic" in2="BackgroundImageFix" result="shape"/>
<feGaussianBlur stdDeviation="2" result="effect1_foregroundBlur_3455_7122"/>
</filter>
<linearGradient id="paint0_linear_3455_7122" x1="6.37191" y1="17.3993" x2="39.7106" y2="17.3992" gradientUnits="userSpaceOnUse">
<stop stop-color="#44FF9A"/>
<stop offset="0.234375" stop-color="#44B0FF"/>
<stop offset="0.489583" stop-color="#8B44FF"/>
<stop offset="0.739583" stop-color="#FF6644"/>
<stop offset="1" stop-color="#EBFF70"/>
</linearGradient>
</defs>
</svg>
