<svg width="48" height="48" viewBox="0 0 48 48" fill="none" xmlns="http://www.w3.org/2000/svg">
<path d="M18.3097 34.9705C18.0931 34.9705 17.8569 34.9115 17.66 34.813C16.1441 34.0452 14.8447 32.9034 13.8997 31.4859C13.1122 30.3046 13.1122 28.7887 13.8997 27.6074C14.8447 26.1899 16.1441 25.048 17.66 24.2999C18.3885 23.9259 19.2744 24.2409 19.6485 24.9693C20.0225 25.6977 19.7272 26.5837 18.9791 26.9577C17.916 27.4893 17.0103 28.2965 16.3606 29.2809C16.2425 29.458 16.2425 29.6943 16.3606 29.8912C17.0103 30.8755 17.916 31.6827 18.9791 32.2143C19.7075 32.5884 20.0028 33.4743 19.6485 34.2027C19.3728 34.6752 18.8413 34.9705 18.3097 34.9705Z" fill="#313131"/>
<g filter="url(#filter0_f_3455_7109)">
<path d="M5.22583 10C5.22583 7.23858 7.46441 5 10.2258 5H38.2258C40.9873 5 43.2258 7.23858 43.2258 10V15H5.22583V10Z" fill="url(#paint0_linear_3455_7109)"/>
</g>
<path d="M30.5361 34.971C29.9848 34.971 29.473 34.6757 29.217 34.1638C28.843 33.4354 29.1383 32.5495 29.8864 32.1754C30.9495 31.6438 31.8552 30.8366 32.5048 29.8523C32.623 29.6751 32.623 29.4388 32.5048 29.242C31.8552 28.2576 30.9495 27.4504 29.8864 26.9188C29.158 26.5448 28.8627 25.6588 29.217 24.9304C29.5911 24.202 30.477 23.9066 31.2055 24.261C32.7214 25.0288 34.0208 26.1707 34.9658 27.5882C35.7533 28.7695 35.7533 30.2854 34.9658 31.4666C34.0208 32.8841 32.7214 34.026 31.2055 34.7741C30.9692 34.912 30.7527 34.971 30.5361 34.971Z" fill="#313131"/>
<path d="M30.1221 44.8145H18.3096C7.61926 44.8145 3.05176 40.247 3.05176 29.5566V17.7441C3.05176 7.05383 7.61926 2.48633 18.3096 2.48633H30.1221C40.8124 2.48633 45.3799 7.05383 45.3799 17.7441V29.5566C45.3799 40.247 40.8124 44.8145 30.1221 44.8145ZM18.3096 5.43945C9.23363 5.43945 6.00488 8.6682 6.00488 17.7441V29.5566C6.00488 38.6326 9.23363 41.8613 18.3096 41.8613H30.1221C39.198 41.8613 42.4268 38.6326 42.4268 29.5566V17.7441C42.4268 8.6682 39.198 5.43945 30.1221 5.43945H18.3096Z" fill="#313131"/>
<path d="M4.98218 17.2716C4.17499 17.2716 3.50562 16.6023 3.50562 15.7951C3.50562 14.9879 4.1553 14.3185 4.98218 14.3185L42.8216 14.2988C43.6287 14.2988 44.2981 14.9682 44.2981 15.7754C44.2981 16.5826 43.6484 17.252 42.8216 17.252L4.98218 17.2716Z" fill="#313131"/>
<defs>
<filter id="filter0_f_3455_7109" x="1.22583" y="1" width="46" height="18" filterUnits="userSpaceOnUse" color-interpolation-filters="sRGB">
<feFlood flood-opacity="0" result="BackgroundImageFix"/>
<feBlend mode="normal" in="SourceGraphic" in2="BackgroundImageFix" result="shape"/>
<feGaussianBlur stdDeviation="2" result="effect1_foregroundBlur_3455_7109"/>
</filter>
<linearGradient id="paint0_linear_3455_7109" x1="5.01772" y1="10" x2="42.9761" y2="10" gradientUnits="userSpaceOnUse">
<stop stop-color="#44FF9A"/>
<stop offset="0.234375" stop-color="#44B0FF"/>
<stop offset="0.489583" stop-color="#8B44FF"/>
<stop offset="0.739583" stop-color="#FF6644"/>
<stop offset="1" stop-color="#EBFF70"/>
</linearGradient>
</defs>
</svg>
