<svg width="48" height="47" viewBox="0 0 48 47" fill="none" xmlns="http://www.w3.org/2000/svg">
<g opacity="0.8" filter="url(#filter0_f_1066_1258)">
<path fill-rule="evenodd" clip-rule="evenodd" d="M26.2204 6.50767C24.9256 5.83187 23.1711 5.82145 21.866 6.49552C16.8631 9.07922 12.3255 12.0416 8.34912 15.3274C7.73421 15.8355 7.29782 16.5738 7.30527 17.4429C7.31268 18.3084 7.75794 19.0369 8.36913 19.5367C12.3125 22.7609 16.8539 25.7261 21.7651 28.2893C23.0599 28.9652 24.8145 28.9756 26.1197 28.3015C31.1224 25.7178 35.6601 22.7553 39.6365 19.4696C40.2514 18.9615 40.6879 18.2231 40.6803 17.3541C40.6728 16.4886 40.2277 15.7601 39.6165 15.2603C35.673 12.036 31.1317 9.07093 26.2204 6.50767Z" fill="url(#paint0_linear_1066_1258)"/>
</g>
<path fill-rule="evenodd" clip-rule="evenodd" d="M26.2204 6.50767C24.9256 5.83187 23.1711 5.82145 21.866 6.49552C16.8631 9.07922 12.3255 12.0416 8.34912 15.3274C7.73421 15.8355 7.29782 16.5738 7.30527 17.4429C7.31268 18.3084 7.75794 19.0369 8.36913 19.5367C12.3125 22.7609 16.8539 25.7261 21.7651 28.2893C23.0599 28.9652 24.8145 28.9756 26.1197 28.3015C31.1224 25.7178 35.6601 22.7553 39.6365 19.4696C40.2514 18.9615 40.6879 18.2231 40.6803 17.3541C40.6728 16.4886 40.2277 15.7601 39.6165 15.2603C35.673 12.036 31.1317 9.07093 26.2204 6.50767ZM23.194 9.06689C23.6563 8.8281 24.4159 8.83035 24.8815 9.07332C29.5685 11.5196 33.8872 14.334 37.6288 17.3739C33.865 20.4626 29.559 23.2679 24.7917 25.73C24.3293 25.9689 23.5697 25.9665 23.1041 25.7236C18.417 23.2774 14.0983 20.463 10.3568 17.4231C14.1206 14.3343 18.4265 11.529 23.194 9.06689Z" fill="#272727"/>
<path d="M41.7373 24.5237C42.1606 25.2015 41.9541 26.0942 41.2761 26.5175L29.4931 33.874C27.8942 34.8723 25.9104 35.3338 23.9926 35.3338C22.075 35.334 20.0911 34.8727 18.4919 33.8746L6.83784 26.6015C6.15986 26.1784 5.95326 25.2856 6.37639 24.6076C6.79951 23.9297 7.69213 23.723 8.37009 24.1461L20.0242 31.4195C21.074 32.0747 22.5002 32.4399 23.9924 32.4398C25.4848 32.4398 26.9108 32.0743 27.9604 31.4191L39.7436 24.0626C40.4214 23.6393 41.3142 23.8457 41.7373 24.5237Z" fill="#272727"/>
<path d="M41.7373 31.7678C42.1606 32.4458 41.9541 33.3383 41.2763 33.7616L31.0721 40.1341C29.0316 41.4085 26.479 42.0079 23.9926 42.0081C21.5062 42.0083 18.9535 41.4091 16.9126 40.1351L6.83768 33.8455C6.15976 33.4224 5.95328 32.5297 6.37649 31.8519C6.79967 31.1739 7.69232 30.9675 8.37024 31.3906L18.4452 37.68C19.9366 38.6111 21.9315 39.1143 23.9924 39.1141C26.0534 39.1139 28.048 38.6107 29.5392 37.6794L39.7434 31.307C40.4212 30.8837 41.314 31.09 41.7373 31.7678Z" fill="#272727"/>
<defs>
<filter id="filter0_f_1066_1258" x="3.30518" y="1.99536" width="41.3755" height="30.8064" filterUnits="userSpaceOnUse" color-interpolation-filters="sRGB">
<feFlood flood-opacity="0" result="BackgroundImageFix"/>
<feBlend mode="normal" in="SourceGraphic" in2="BackgroundImageFix" result="shape"/>
<feGaussianBlur stdDeviation="2" result="effect1_foregroundBlur_1066_1258"/>
</filter>
<linearGradient id="paint0_linear_1066_1258" x1="7.1224" y1="17.3985" x2="40.4611" y2="17.3985" gradientUnits="userSpaceOnUse">
<stop stop-color="#44FF9A"/>
<stop offset="0.234375" stop-color="#44B0FF"/>
<stop offset="0.489583" stop-color="#8B44FF"/>
<stop offset="0.739583" stop-color="#FF6644"/>
<stop offset="1" stop-color="#EBFF70"/>
</linearGradient>
</defs>
</svg>
