<svg width="35" height="35" viewBox="0 0 35 35" fill="none" xmlns="http://www.w3.org/2000/svg">
	<path d="M33.8313 15.3475L31.5079 12.6483C31.0638 12.1358 30.705 11.1792 30.705 10.4958V7.59166C30.705 5.78083 29.2188 4.29458 27.4079 4.29458H24.5038C23.8375 4.29458 22.8638 3.93583 22.3513 3.49166L19.6521 1.16833C18.4733 0.160413 16.5429 0.160413 15.3471 1.16833L12.665 3.50875C12.1525 3.93583 11.1788 4.29458 10.5125 4.29458H7.5571C5.74626 4.29458 4.26001 5.78083 4.26001 7.59166V10.5129C4.26001 11.1792 3.90126 12.1358 3.47418 12.6483L1.16793 15.3646C0.177096 16.5433 0.177096 18.4567 1.16793 19.6354L3.47418 22.3517C3.90126 22.8642 4.26001 23.8208 4.26001 24.4871V27.4083C4.26001 29.2192 5.74626 30.7054 7.5571 30.7054H10.5125C11.1788 30.7054 12.1525 31.0642 12.665 31.5083L15.3642 33.8317C16.5429 34.8396 18.4733 34.8396 19.6692 33.8317L22.3683 31.5083C22.8808 31.0642 23.8375 30.7054 24.5208 30.7054H27.425C29.2358 30.7054 30.7221 29.2192 30.7221 27.4083V24.5042C30.7221 23.8379 31.0808 22.8642 31.525 22.3517L33.8483 19.6525C34.8392 18.4737 34.8392 16.5262 33.8313 15.3475ZM24.6063 14.2712L16.355 22.5225C16.1158 22.7617 15.7913 22.8983 15.4496 22.8983C15.1079 22.8983 14.7833 22.7617 14.5442 22.5225L10.41 18.3883C9.9146 17.8929 9.9146 17.0729 10.41 16.5775C10.9054 16.0821 11.7254 16.0821 12.2208 16.5775L15.4496 19.8062L22.7954 12.4604C23.2908 11.965 24.1108 11.965 24.6063 12.4604C25.1017 12.9558 25.1017 13.7758 24.6063 14.2712Z" fill="white" />
</svg>
