<svg width="130" height="42" viewBox="0 0 130 42" fill="none" xmlns="http://www.w3.org/2000/svg">
	<path d="M25.03 5.056H25.084C25.192 5.056 25.246 5.056 25.354 5.002C25.408 5.002 25.408 4.948 25.462 4.948C25.678 4.894 25.84 4.624 26.218 4.678C27.244 4.246 27.892 4.192 28.81 4.084C29.188 4.03 29.35 4.408 30.322 3.976C30.376 4.03 30.43 4.03 30.484 4.084L30.754 4.138V4.246L30.808 4.192L30.97 4.246V4.138H31.024V4.3H31.402L31.888 4.246C31.996 4.3 32.104 4.354 32.212 4.354C32.212 4.354 32.266 4.354 32.266 4.3C32.32 4.354 32.374 4.408 32.428 4.408C32.59 4.516 32.752 4.516 32.914 4.57H33.022C33.022 4.624 33.076 4.678 33.13 4.732L33.184 4.786C33.184 4.894 33.238 5.002 33.346 5.056C33.4 5.326 33.508 5.596 33.67 5.812C33.67 5.974 33.562 6.136 33.508 6.298C33.454 6.568 33.346 6.892 33.346 7.216C33.238 7.27 33.238 7.378 33.184 7.486C33.184 7.648 33.13 7.756 33.13 7.918V8.026C33.076 8.08 33.022 8.188 32.968 8.242C32.86 8.404 32.752 8.566 32.698 8.836C32.59 9.052 32.536 9.214 32.374 9.43C32.158 9.916 31.78 10.294 31.294 10.78L31.186 10.942L30.43 11.698H30.376V11.752L29.944 12.13L30.376 12.022V12.13C30.376 12.238 30.322 12.346 30.052 12.562C29.89 12.67 29.782 12.778 29.674 12.94C29.458 13.21 29.404 13.48 29.512 13.804L29.566 14.02L29.404 14.182C29.35 14.236 29.296 14.29 29.188 14.398C29.134 14.398 29.134 14.398 29.08 14.452C28.972 14.506 28.918 14.506 28.864 14.506C28.378 16.018 28 16.99 27.73 17.152C27.676 17.26 27.622 17.368 27.568 17.422C27.838 17.422 28.054 17.368 28.324 17.26C28.486 17.206 28.594 17.098 28.702 16.99L28.756 16.936C28.864 16.828 29.026 16.828 29.242 16.774C29.35 16.72 29.566 16.666 29.782 16.612C30.43 16.288 31.24 15.748 31.942 15.262C32.374 14.938 32.806 14.614 33.238 14.398L33.346 14.29L33.4 14.128C33.4 14.074 33.454 14.02 33.508 13.912C33.562 13.804 33.67 13.696 33.724 13.48C33.724 13.426 33.832 13.372 33.886 13.318C33.94 13.264 33.94 13.21 33.994 13.156H34.048C34.156 13.102 34.264 13.102 34.372 12.94C34.48 12.886 34.534 12.778 34.588 12.724V12.886L35.29 11.914H35.236L35.398 11.59C35.398 11.482 35.452 11.428 35.452 11.374C35.614 10.996 35.668 10.78 35.614 10.564C35.668 10.456 35.776 10.348 35.776 10.24V10.186L36.154 9.7C36.154 8.62 36.856 8.08 36.532 5.65L36.424 5.542C36.046 5.596 37.018 2.95 36.532 2.14C36.478 2.14 36.532 1.87 36.478 1.816C36.424 1.762 35.56 1.924 34.318 3.76V3.814H34.21L34.156 3.76C34.156 3.706 34.156 3.598 34.048 3.49C33.94 3.328 33.832 3.274 33.724 3.22C33.616 3.166 33.562 3.112 33.454 3.058C33.4 2.95 33.292 2.896 33.184 2.842C33.184 2.734 33.076 2.626 32.968 2.572C32.86 2.572 32.806 2.518 32.752 2.518C32.644 2.518 32.59 2.518 32.536 2.572C32.482 2.464 32.374 2.356 32.266 2.356C32.266 2.302 32.158 2.302 32.05 2.302H31.78C31.78 2.356 31.78 2.356 31.78 2.356C31.672 2.248 31.618 2.14 31.456 2.086H31.024L31.078 1.654L30.916 1.546C29.89 2.086 29.296 0.735997 26.65 1.06C26.542 1.114 26.488 1.222 26.488 1.276C26.38 1.384 26.38 1.438 25.84 1.546L25.03 1.87C24.922 1.87 24.76 1.924 24.652 1.978H24.382C24.112 1.978 23.14 2.032 23.086 2.14C22.978 2.086 22.924 2.086 22.816 2.086C22.6 2.086 22.438 2.194 22.33 2.41C22.276 2.41 22.222 2.464 22.114 2.464C22.114 2.518 22.006 2.572 22.006 2.572H21.898C21.79 2.572 21.682 2.518 21.628 2.518C21.52 2.518 21.412 2.464 21.25 2.464C21.088 2.464 20.926 2.518 20.764 2.572C20.062 2.788 18.982 3.328 18.658 3.49L18.01 3.814L17.794 3.976L17.47 4.138L17.794 4.192C17.524 4.246 17.362 4.462 17.254 4.678C17.2 4.678 17.092 4.624 16.984 4.624L15.958 5.056H15.904V5.11L15.796 5.056V5.164C15.526 5.272 15.256 5.38 14.986 5.542C14.878 5.596 14.662 5.758 14.608 5.92C14.608 5.974 14.554 6.028 14.554 6.028L14.122 6.514C14.068 6.568 14.014 6.622 13.906 6.676C13.798 6.676 13.636 6.784 13.528 6.838L13.42 6.784L13.258 6.892C13.096 7 12.988 7.162 12.934 7.27C12.826 7.324 12.718 7.432 12.664 7.486L12.394 7.27L12.178 7.756C11.962 8.188 11.638 8.512 11.26 8.89C11.098 9.052 10.558 9.16 10.45 9.376H10.396C10.342 9.43 10.288 9.43 10.234 9.484C10.234 9.538 10.18 9.592 10.18 9.646C10.234 9.538 10.45 9.538 10.558 9.538C10.504 9.754 10.288 9.7 10.126 9.808C10.072 9.754 10.126 9.7 10.126 9.646L9.964 9.862L10.018 9.916C10.018 10.024 10.018 10.132 10.018 10.186C10.018 10.24 10.018 10.294 10.072 10.294H10.018L9.91 10.24C9.964 10.078 9.802 9.916 9.748 10.186L9.91 10.24C9.856 10.294 9.856 10.348 9.748 10.348V10.186L9.64 10.078L9.424 10.456C9.208 10.888 9.262 11.158 9.37 11.374C9.37 11.428 9.424 11.482 9.478 11.536H9.37C9.316 11.536 9.262 11.482 9.208 11.428L8.452 11.752C8.452 11.914 8.506 12.022 8.506 12.13C8.452 12.13 8.344 12.184 8.344 12.238C8.29 12.346 8.182 12.454 8.128 12.508C8.128 12.562 8.128 12.616 8.074 12.67C8.02 12.724 7.912 12.778 7.858 12.886C7.642 13.102 7.372 13.264 7.21 13.588C6.994 13.588 6.832 13.75 6.778 13.858C6.67 14.02 6.67 14.128 6.724 14.29C6.67 14.29 6.616 14.344 6.562 14.398C6.454 14.452 6.346 14.614 6.292 14.722C6.184 14.938 6.076 15.154 5.968 15.37C5.806 15.748 5.752 15.748 5.698 15.748L5.644 16.126C5.482 16.18 5.32 16.288 5.212 16.45C5.212 16.558 5.212 16.612 5.158 16.72L4.942 17.098C4.942 17.26 4.888 17.314 4.888 17.368C4.888 17.422 4.78 17.476 4.726 17.53L4.402 17.854L4.348 17.908H4.24V18.016L3.268 20.554C3.214 20.662 3.214 20.716 3.16 20.77C2.836 20.986 2.89 21.364 2.782 21.634L2.62 22.012C2.512 22.336 2.404 22.606 2.296 22.768H2.242L2.134 23.038L1.972 23.578L1.918 23.632C1.81 23.902 1.648 24.226 1.594 24.496C1.54 24.55 1.486 24.712 1.486 24.766C1.54 24.658 1.648 24.55 1.81 24.496V24.55C1.81 24.604 1.756 24.712 1.756 24.82C1.81 24.766 1.81 24.712 1.864 24.712V24.982H1.594C1.648 24.928 1.702 24.874 1.702 24.82C1.648 24.82 1.54 24.874 1.486 24.982H1.432C1.432 25.036 1.378 25.036 1.378 25.09C1.324 25.252 1.324 25.36 1.324 25.468C1.27 25.522 1.162 25.63 1.054 25.846C1 26.008 1 26.116 1.054 26.224C0.946 26.332 0.838 26.44 0.838 26.548C0.784 26.926 0.73 27.304 0.676 27.628C0.676 27.736 0.676 27.844 0.622 27.952C0.622 28.114 0.676 28.276 0.73 28.33C0.73 28.384 0.676 28.384 0.676 28.438C0.622 28.546 0.568 28.708 0.514 28.87V29.518L0.352 30.004C0.406 30.598 0.406 30.976 0.298 31.3L0.19 31.462L0.244 31.624C0.352 32.002 0.352 32.38 0.406 32.812C0.514 33.622 0.676 34.432 0.838 35.08C0.892 35.188 0.892 35.242 1 35.35C1 35.404 1.108 35.566 1.162 35.62C1.108 35.89 1.216 36.052 1.324 36.268C1.378 36.268 1.378 36.322 1.432 36.376C1.486 36.43 1.486 36.484 1.54 36.538C1.54 36.646 1.54 36.754 1.648 36.916C1.648 36.97 1.702 37.024 1.81 37.078C1.81 37.132 1.81 37.186 1.81 37.24C1.864 37.402 1.972 37.456 2.08 37.456C2.296 37.942 3.268 38.266 3.592 38.59C3.646 38.698 4.024 38.86 4.186 38.968C4.186 39.022 4.24 39.076 4.24 39.076C4.294 39.184 4.402 39.238 4.51 39.238C4.51 39.292 4.564 39.346 4.618 39.346C4.726 39.454 4.834 39.508 4.942 39.508C5.05 39.616 5.266 39.832 5.644 39.886C6.67 40.966 8.56 41.182 10.018 41.452C10.126 41.452 10.234 41.506 10.396 41.506C10.99 41.614 11.746 41.668 12.556 41.668C13.636 41.668 14.716 41.56 15.634 41.398C16.606 41.182 16.336 41.074 17.2 40.75C17.47 40.642 17.74 40.534 17.956 40.48H18.388C18.604 40.372 18.874 40.264 19.036 40.102C19.198 40.048 19.306 39.94 19.468 39.886C19.522 39.832 19.63 39.832 19.738 39.778C19.954 39.778 20.116 39.724 20.332 39.616C20.44 39.562 20.494 39.454 20.602 39.4L20.71 39.292C20.872 39.238 21.034 39.13 21.196 39.022C21.79 38.752 22.222 38.212 22.762 37.888C22.6 37.996 25.894 35.944 27.298 32.596C27.46 32.11 24.976 34.27 24.922 34.324C24.814 34.432 24.652 34.594 24.49 34.702C24.382 34.81 24.274 34.918 24.166 35.026C23.896 35.188 23.68 35.458 23.356 35.62C23.302 35.674 23.248 35.674 23.086 35.782C23.032 35.836 22.87 35.89 22.816 35.944C22.654 36.052 22.492 36.106 22.384 36.214C22.222 36.268 22.168 36.376 22.114 36.484C22.06 36.538 22.006 36.592 21.898 36.592C21.79 36.7 21.628 36.808 21.466 36.862H21.412C21.358 36.862 21.196 36.916 21.034 36.97C20.926 37.024 20.926 37.078 20.872 37.186C20.818 37.186 20.764 37.186 20.71 37.24C20.386 37.456 19.738 37.618 19.198 37.942C19.09 37.996 19.036 38.05 18.982 38.104C18.874 38.158 18.712 38.266 18.604 38.266L18.172 38.428C17.902 38.536 17.524 38.59 17.254 38.86C16.66 38.968 16.12 39.184 15.634 39.346C14.932 39.562 15.472 39.562 14.824 39.616H14.284L13.852 39.778C13.744 39.832 13.582 39.886 13.528 39.886C13.42 39.832 13.204 39.832 12.934 39.832H12.448C12.232 39.886 11.962 39.886 11.746 39.886C11.152 39.886 10.396 39.832 9.802 39.778C6.94 39.292 5.536 37.132 4.996 34.162C4.834 33.298 4.834 31.624 4.942 30.328C4.942 30.058 4.996 29.734 5.05 29.356L5.212 28.546V28.06C5.212 28.006 5.266 27.952 5.32 27.898C5.374 27.736 5.428 27.574 5.482 27.358C5.536 27.196 5.536 27.034 5.482 26.926V26.818L5.644 26.494C5.752 26.386 5.86 26.224 5.914 26.062C5.914 25.9 5.968 25.738 6.022 25.63C6.022 25.522 6.022 25.468 6.076 25.414L6.238 25.468L6.508 24.334C6.67 24.01 6.832 23.686 6.94 23.416C7.156 23.092 7.318 22.768 7.426 22.444L7.642 22.282L7.696 21.796C7.696 21.796 7.75 21.742 7.75 21.688C7.858 21.58 8.02 21.364 8.074 20.986L8.128 20.662L7.912 20.554C8.02 20.392 8.182 20.284 8.128 20.176L8.182 20.122C8.29 20.014 8.344 19.744 8.344 19.582C8.398 19.474 8.398 19.42 8.398 19.312C8.452 19.258 8.506 19.204 8.56 19.096C8.614 19.042 8.668 18.934 8.668 18.826C8.938 18.61 9.154 18.286 9.316 18.016C9.37 17.8 9.478 17.638 9.586 17.53L9.37 17.206H9.802L9.856 16.99L10.342 16.558C10.342 16.342 10.504 16.18 10.72 15.964C10.828 15.91 10.774 15.856 10.882 15.802C12.826 13.318 11.8 14.074 13.582 12.184C15.094 10.618 16.552 8.998 18.496 7.972C18.496 7.918 18.28 7.378 25.03 5.056ZM13.042 9.268C12.988 9.376 13.096 9.376 13.15 9.376C13.096 9.592 12.934 9.646 12.718 9.592C12.772 9.484 12.88 9.376 12.88 9.214C12.934 9.268 12.988 9.268 13.042 9.268ZM16.768 8.026C16.984 8.134 16.822 8.566 16.498 8.35C16.498 8.134 16.714 8.134 16.768 8.026ZM12.88 10.132C12.934 10.564 12.502 10.294 12.448 10.24C12.556 9.916 12.61 10.132 12.88 10.132ZM24.706 2.788C25.084 3.112 24.328 2.896 24.166 3.058C24.112 2.626 24.706 3.112 24.706 2.788ZM12.88 10.132C12.88 9.916 12.988 9.808 13.204 9.862C13.204 10.078 13.096 10.186 12.88 10.132ZM17.47 5.812C17.524 5.866 17.632 5.866 17.686 5.866V6.082H17.416C17.416 5.974 17.47 5.92 17.47 5.812ZM21.628 4.624C21.682 4.624 21.628 4.894 21.628 5.002C21.466 5.056 21.466 4.894 21.466 4.732C21.574 4.732 21.574 4.678 21.628 4.624ZM22.6 3.436C22.6 3.544 22.6 3.598 22.6 3.706C22.546 3.652 22.438 3.652 22.384 3.652V3.436H22.6ZM16.876 6.352C16.93 6.568 16.768 6.568 16.606 6.514C16.66 6.406 16.768 6.298 16.876 6.352ZM24.922 4.786C24.922 4.948 24.76 4.948 24.76 4.732C24.814 4.678 24.922 4.624 24.922 4.786ZM20.224 5.542C20.278 5.434 20.386 5.488 20.386 5.542C20.332 5.704 20.224 5.596 20.224 5.542ZM15.85 8.188C15.85 8.296 15.688 8.242 15.634 8.296C15.634 8.134 15.742 8.188 15.85 8.188ZM25.03 3.382C25.03 3.436 24.922 3.49 24.868 3.49C24.814 3.382 24.976 3.328 25.03 3.382ZM17.902 6.676C17.902 6.784 17.794 6.73 17.686 6.784C17.74 6.676 17.794 6.676 17.902 6.676ZM20.494 4.246C20.548 4.354 20.386 4.408 20.332 4.354C20.332 4.3 20.44 4.246 20.494 4.246ZM20.17 5.866C20.17 5.974 20.062 6.028 20.008 5.974C20.008 5.92 20.116 5.866 20.17 5.866ZM12.286 12.184C12.286 12.292 12.178 12.238 12.07 12.238C12.07 12.13 12.232 12.184 12.286 12.184ZM24.706 3.922C24.652 3.868 24.814 3.76 24.868 3.814C24.922 3.868 24.76 3.922 24.706 3.922ZM14.446 9.43C14.5 9.268 14.608 9.376 14.554 9.43C14.554 9.538 14.446 9.484 14.446 9.43ZM22.762 3.004C22.816 3.058 22.654 3.166 22.6 3.112C22.6 3.058 22.708 3.004 22.762 3.004ZM8.344 20.284C8.344 20.284 8.236 20.338 8.29 20.392C8.344 20.446 8.398 20.392 8.344 20.284ZM7.426 22.768C7.426 22.768 7.318 22.822 7.372 22.876C7.372 22.93 7.48 22.876 7.426 22.768ZM8.56 20.77C8.56 20.824 8.614 20.932 8.668 20.77C8.668 20.716 8.56 20.662 8.56 20.77ZM9.046 19.906C8.938 19.906 8.938 19.96 8.938 20.014C8.992 20.068 9.046 20.014 9.046 19.906ZM16.768 6.892C16.714 6.838 16.822 6.784 16.822 6.784C16.876 6.838 16.822 6.946 16.768 6.892ZM17.524 7.432C17.47 7.378 17.632 7.324 17.632 7.324C17.686 7.378 17.578 7.486 17.524 7.432ZM21.952 4.084C22.006 4.138 21.844 4.192 21.844 4.192C21.79 4.138 21.898 4.03 21.952 4.084ZM16.606 7.324C16.66 7.432 16.498 7.486 16.498 7.432C16.444 7.378 16.606 7.324 16.606 7.324ZM7.858 20.338C7.858 20.284 7.966 20.23 7.966 20.284C8.02 20.338 7.858 20.392 7.858 20.392V20.338ZM17.794 6.352C17.848 6.406 17.794 6.46 17.74 6.406C17.686 6.352 17.794 6.298 17.794 6.352ZM16.066 7.864C16.012 7.864 15.958 7.756 16.066 7.756V7.864ZM12.664 9.214C12.664 9.16 12.718 9.106 12.772 9.214H12.664ZM7.858 20.338C7.858 20.392 7.804 20.392 7.75 20.392C7.804 20.392 7.858 20.338 7.858 20.338ZM50.1721 32.326C49.5241 32.434 49.1461 32.812 48.4981 32.92C46.0681 31.732 46.4461 27.466 46.9861 24.442C47.3101 24.172 47.6341 23.848 47.9041 23.47C46.7701 22.228 44.7181 21.904 42.9361 21.256C42.3961 21.688 41.8561 22.39 41.9641 23.038C40.6141 23.686 39.9121 24.766 39.0481 25.846C38.4541 26.548 37.8601 27.088 37.4281 27.79C36.5101 29.14 35.7001 30.544 34.5121 31.516C34.7821 30.112 35.1061 28.708 35.4841 27.628C35.8081 26.656 36.0241 25.846 36.7261 25.414C36.7261 24.982 36.8881 24.496 37.1041 24.172C37.1581 24.118 37.3741 24.226 37.4281 24.172C37.4281 24.118 37.3741 23.956 37.4281 23.902C38.5081 22.606 41.0461 20.284 42.6661 20.014C43.8001 19.852 44.2321 20.5 44.8801 20.554C45.3121 20.608 46.2841 20.662 46.5541 20.014C45.9061 18.88 44.2861 18.772 43.8001 17.53C43.4221 17.476 43.4761 17.8 43.0981 17.638C42.8821 17.206 42.3421 17.26 41.9641 16.99C41.4241 16.558 41.1541 15.64 40.1821 15.748C39.9121 15.748 40.0201 16.234 39.7501 16.288C38.8321 16.342 38.6701 17.098 37.6981 17.098C37.0501 18.448 35.4841 18.718 34.6201 19.852C34.2961 20.338 34.0261 21.04 33.6481 21.688C33.3241 22.336 33.1081 23.038 32.8381 23.74C32.2981 25.252 31.4341 27.304 31.5961 28.762C30.8941 29.842 31.1641 32.002 31.5961 33.19C32.0281 33.676 32.7841 33.838 33.0001 34.54C34.1341 34.648 34.5121 35.458 35.7541 35.134C36.0241 34.918 35.9701 34.432 36.1861 34.162C36.3481 34.162 36.4021 34.324 36.7261 34.27C36.9421 33.568 37.7521 33.244 38.2381 32.758C38.3461 32.65 38.4001 32.434 38.5081 32.326C39.9121 30.868 40.8301 29.032 42.3961 27.79C43.2061 30.868 44.8801 34.378 49.2001 34C48.9301 32.866 50.0101 33.082 50.1721 32.326ZM67.6799 34C68.4899 33.352 68.8139 32.272 69.6239 31.624C69.5159 31.246 69.8399 31.246 69.7319 30.814C70.4339 30.814 70.0559 29.734 70.7039 29.734C70.6499 29.248 71.0279 29.194 70.7039 28.87C70.9199 28.762 70.9739 28.546 71.1359 28.384C71.6219 25.9 73.1879 24.172 73.5119 21.526C73.7819 21.58 73.7819 21.364 73.9439 21.256C74.3219 20.014 73.6199 20.716 74.1599 19.636C74.3219 19.312 74.8619 19.042 74.5919 18.394C73.7819 17.8 70.9199 16.504 70.5419 17.314C69.0839 18.556 69.8399 18.07 68.9219 18.934C66.5459 22.336 63.4679 24.982 61.3079 28.6C60.5519 28.708 60.7139 29.626 59.9039 29.734C60.6059 26.926 62.0099 24.172 62.1179 21.256C62.6039 20.176 60.1739 18.988 58.9319 18.664C58.6619 19.204 57.6899 20.122 57.4199 21.148C56.6639 22.282 55.8539 23.416 54.7739 24.334C54.7199 24.658 54.3419 25.414 54.1259 25.144C54.1799 24.388 54.8819 23.848 54.5039 23.038C54.8279 23.146 54.8819 22.66 54.9359 22.498C55.2059 21.796 55.6379 21.418 55.6919 20.554C55.9619 20.23 55.9619 19.852 56.1779 19.528C55.9619 19.366 56.3399 18.718 56.1779 18.502C54.9899 18.286 53.9099 17.962 52.5599 17.962C52.5599 18.718 51.9659 18.718 52.2899 19.474C51.6419 21.472 49.9139 22.444 48.9959 24.172C49.2659 24.55 49.8599 24.658 50.0759 25.144C49.8599 25.846 49.3199 26.44 49.1039 27.088C49.0499 27.304 49.2119 27.682 49.1039 27.898C49.0499 28.114 48.8339 28.33 48.7259 28.6C48.4019 29.302 48.4019 29.842 48.1319 30.706C47.8619 31.57 47.3759 32.434 47.3219 33.46C47.4839 33.514 47.5919 33.73 47.5919 34C48.7799 34.432 49.4819 35.35 50.6699 35.782C50.8319 34.864 51.5879 34.54 52.2899 34.162C52.6139 32.542 54.1259 32.11 54.3959 30.382C55.2059 29.95 55.7459 27.466 56.5019 26.926C56.5019 28.438 56.0159 31.246 56.4479 31.786C57.0959 32.596 58.6079 33.082 59.3639 33.73C60.2279 33.298 60.9839 32.758 61.7399 32.218C62.3879 30.922 63.6839 30.274 64.0619 28.762C64.4939 28.816 64.4399 28.384 64.7639 28.33C65.3039 27.196 66.2759 26.008 66.9779 25.144C67.2479 24.82 67.4099 24.28 67.7879 24.334C67.7879 25.252 66.9779 26.17 67.2479 26.926C67.4639 26.386 67.6799 25.792 68.2199 25.576C67.8959 26.332 67.8419 27.412 67.1399 27.79C67.4639 28.276 66.6539 28.87 66.7079 29.572C66.2219 29.518 66.3299 30.112 65.8979 30.112C66.0059 31.462 64.8719 32.704 65.1959 34C65.6279 35.944 68.4359 34.864 69.0839 33.46C68.3279 33.406 68.3819 34.054 67.6799 34ZM68.3819 25.414C68.1119 25.468 68.1119 24.658 68.4899 24.874C68.5439 25.144 68.4359 25.252 68.3819 25.414ZM66.1679 30.112C66.2759 30.166 66.2759 30.274 66.4379 30.274C66.3839 30.436 66.2759 30.544 66.0059 30.544C65.9519 30.328 66.1679 30.328 66.1679 30.112ZM85.1763 30.274C85.3383 30.166 85.4463 30.004 85.6083 29.896C85.8243 29.734 86.2563 29.41 86.3643 29.14C86.4183 28.978 86.4183 28.816 86.4183 28.708V28.654C86.2563 28.708 86.0943 28.816 85.8783 28.87C83.5023 30.49 81.2883 32.326 77.1843 32.218C75.6183 31.57 75.8343 29.248 76.9143 28.168C78.9123 28.114 80.6943 27.466 81.8823 26.656C82.4763 26.278 83.0703 26.008 83.5563 25.684C84.1503 25.306 84.6363 24.604 85.0683 24.334C85.2303 24.226 85.3923 24.28 85.5003 24.172C85.7163 23.902 85.7163 23.524 85.9323 23.362C85.9863 23.254 86.2563 23.254 86.3103 23.2C87.1743 22.552 88.2543 21.094 88.1463 20.176C88.3623 20.122 88.7403 20.122 88.6863 19.744C88.2543 19.204 88.2543 18.61 87.7143 18.232C87.6063 18.178 87.3903 18.286 87.2823 18.232C87.2283 18.178 87.2283 17.962 87.1743 17.962C85.2843 17.26 82.1523 17.638 80.9103 16.288C79.7223 16.72 79.0203 17.53 78.3183 18.34C77.4543 19.312 76.3203 20.23 76.0503 21.526C74.9163 22.444 74.5383 24.064 73.8363 25.414C73.5663 25.63 73.4043 25.954 73.0263 26.116C73.2963 27.25 72.7563 28.492 72.7563 29.788C72.8103 30.058 72.8643 30.328 72.9723 30.652C73.0803 30.976 73.0803 31.354 73.1883 31.678C73.1883 31.678 73.1883 31.732 73.2423 31.732V31.786C73.4583 32.056 73.6743 32.326 73.8903 32.596C73.8903 32.596 73.9443 32.596 73.9983 32.596C74.7003 33.406 75.9423 33.676 76.9143 34.162C76.9683 34.162 76.9683 34.378 77.0223 34.432C77.8863 34.81 78.8583 34.918 79.8303 34.702C79.9923 34.648 79.9383 34.486 80.1003 34.432C80.2623 34.378 80.2623 34.486 80.3703 34.432C81.0723 34.108 81.4503 34.054 81.8823 33.73C82.4763 33.352 82.8543 32.758 83.3943 32.488V31.786C84.1503 31.462 84.2583 30.436 85.1763 30.274ZM78.5883 24.604C79.0203 23.794 79.7763 23.038 80.2083 22.12C80.1003 22.12 80.1003 22.228 79.9383 22.228C79.7763 22.444 79.8843 22.228 79.9383 22.12C80.7483 21.094 81.3423 19.96 82.4223 19.312C82.8003 19.258 82.7463 19.582 83.1243 19.474C83.0703 19.852 82.8003 19.906 82.4223 20.014C82.6923 20.446 82.8543 19.636 83.3943 19.852C83.8263 20.176 84.1503 20.5 84.5283 20.824C83.1243 23.038 80.5323 24.064 78.3183 25.414C77.8863 25.144 78.4263 24.82 78.5883 24.604ZM89.6507 33.46C90.3527 32.11 90.3527 30.544 90.8927 29.572C91.5407 28.438 92.1887 27.466 92.5667 26.224C93.3227 25.792 92.7827 24.442 93.2147 23.902C93.3767 23.74 93.7547 23.686 93.9167 23.47C94.1327 23.254 94.8347 22.876 95.0507 22.66C95.2667 22.39 95.7527 22.336 96.0227 22.12C96.3467 21.85 97.1027 22.012 97.4267 21.796C97.8587 21.472 98.4527 21.148 98.9387 20.986C99.5327 20.77 99.5327 20.77 100.181 20.446C100.235 20.392 100.289 20.554 100.613 20.284C101.207 19.852 101.909 19.582 101.747 19.042C99.0467 19.798 96.8867 18.772 94.5107 19.852C94.6187 19.42 94.3487 19.366 94.2407 19.204C93.1067 18.718 92.0807 18.232 91.0547 17.638C90.2987 19.96 89.4347 22.498 88.6787 24.604C88.3547 25.414 88.2467 26.278 87.9767 27.088C87.6527 28.06 86.7887 28.978 86.6267 30.004C86.4647 30.598 86.7887 31.3 86.6267 31.948C88.3007 31.948 88.2467 33.082 89.6507 33.46ZM97.1672 31.516C97.8152 32.974 99.2193 33.892 100.677 34.54C101.811 35.08 102.351 35.242 103.539 35.134C104.835 34.972 105.645 34.54 106.617 34C107.265 33.622 107.211 33.622 107.697 33.19C109.209 31.84 111.099 30.166 111.153 27.79C110.721 27.682 110.721 26.602 110.775 26.386C110.397 26.278 110.235 25.954 110.073 25.684C109.533 24.658 108.831 23.794 107.859 23.2C107.481 22.228 106.509 21.472 105.753 20.986C105.591 20.878 105.483 20.662 105.375 20.554C105.051 20.338 104.511 20.284 104.403 19.852C104.781 20.014 104.889 19.636 105.105 19.582C105.861 19.42 106.671 20.122 107.157 19.312C106.077 18.286 104.619 17.638 103.431 16.666C103.053 16.828 102.999 17.26 102.729 17.53C101.973 17.53 101.973 18.34 101.325 18.502C101.433 18.88 101.163 18.826 101.217 19.204C100.029 20.068 99.5973 21.634 98.5713 22.66C98.6793 23.686 97.8152 24.01 97.5992 24.604C97.4372 25.09 97.5452 26.008 97.3292 26.656C97.2212 27.088 96.9512 27.304 96.8972 27.628C96.7892 28.87 97.4372 30.004 97.5992 31.246C97.3832 31.246 97.1132 31.192 97.1672 31.516ZM101.055 24.982C101.487 24.442 101.757 23.47 102.297 22.93C103.755 23.47 104.295 24.928 105.375 25.846C105.267 26.008 105.537 26.548 105.213 26.548C105.915 27.196 106.293 28.114 106.725 29.032C106.725 29.464 106.563 29.68 106.077 30.274C105.213 31.3 103.215 33.136 101.487 33.028C100.623 32.974 99.6513 32.38 99.3813 31.354C99.2193 30.652 99.8673 29.896 99.2733 29.572C99.3273 29.41 99.4353 29.302 99.7053 29.302C98.8413 28.222 100.407 27.52 100.083 26.116C100.731 26.332 100.245 25.738 100.353 25.576C100.407 25.468 100.731 25.36 100.785 25.252C100.839 25.198 100.731 25.036 100.785 24.982C100.839 24.982 101.055 25.036 101.055 24.982ZM125.245 29.032C125.353 28.816 125.299 28.438 125.407 28.222C125.893 26.764 126.703 25.198 127.189 24.064C127.621 22.984 128.539 21.31 128.863 19.636C129.295 19.096 129.727 18.556 129.673 17.53C128.215 17.476 127.243 16.288 125.731 16.666C125.299 17.476 125.191 17.746 125.029 18.772C124.165 19.42 123.517 20.23 122.815 20.986C120.979 22.93 118.981 24.982 117.415 26.926C117.037 27.412 116.713 27.898 116.281 28.168C116.875 25.738 118.603 24.496 119.143 22.012C119.251 21.742 119.683 21.742 119.683 21.31C119.791 20.824 119.467 20.716 119.575 20.23C119.899 20.068 120.331 19.96 120.547 19.69C120.007 19.582 120.277 18.88 120.547 18.718C119.197 18.556 117.091 17.746 116.335 17.962C115.147 21.58 113.581 24.82 112.339 28.114C112.339 28.168 112.339 28.222 112.285 28.276C112.231 28.384 112.177 28.492 112.177 28.6C112.123 28.654 112.069 28.654 112.015 28.708L111.367 30.004H111.475C111.259 30.652 110.827 31.138 110.773 31.948C110.989 32.812 112.393 32.974 112.555 33.838C113.473 33.622 113.473 34.324 113.959 34.54C113.905 34.054 114.283 33.892 114.337 33.46C114.985 33.46 114.715 32.596 115.471 32.758C116.335 31.192 117.739 30.112 118.387 28.33C119.089 28.114 119.359 27.412 119.629 26.818C120.169 26.494 120.655 25.9 121.141 25.414C121.681 24.928 122.167 24.334 122.653 24.172C122.383 24.334 122.275 25.09 122.545 25.414C121.735 25.684 122.005 26.872 121.681 27.79C121.627 27.952 121.465 28.114 121.411 28.33C121.249 29.41 121.519 30.76 121.033 31.624C121.141 33.406 122.113 34.918 123.085 35.944C123.139 35.998 123.031 36.16 123.085 36.214C123.139 36.268 123.301 36.16 123.355 36.214C123.787 36.592 124.219 37.024 124.597 37.186C124.975 37.348 125.299 37.564 125.569 37.618C126.109 37.726 126.973 37.834 127.243 37.348C127.027 37.132 126.703 37.024 126.271 37.024C124.921 35.566 124.273 33.514 124.543 31.138C124.597 30.922 124.759 30.814 124.813 30.544C124.867 30.274 124.759 29.896 124.813 29.572C124.867 29.41 125.191 29.248 125.245 29.032Z" fill="white" />
</svg>
