<svg width="26" height="8" viewBox="0 0 26 8" fill="none" xmlns="http://www.w3.org/2000/svg">
<path fill-rule="evenodd" clip-rule="evenodd" d="M19.8062 1.23529C19.1834 1.23529 18.6851 1.39999 18.2699 1.48235L18.1453 2.4294C18.3529 2.34705 18.9343 2.18235 19.4325 2.14117C19.9308 2.14117 20.2215 2.22352 20.1384 2.67646C18.6436 2.67646 17.6471 2.9647 17.4394 3.95293C17.1488 5.59999 18.9758 5.64117 19.6817 4.89999L19.5986 5.35293H20.9273L21.5086 2.67646C21.7163 1.5647 20.7197 1.19411 19.8062 1.23529ZM19.8893 3.99411C19.8062 4.32352 19.5156 4.44705 19.1834 4.48823C18.8927 4.48823 18.6436 4.32352 18.8097 3.99411C18.9758 3.74705 19.3495 3.74705 19.6401 3.74705H19.9723C19.9308 3.70587 19.8893 3.87058 19.8893 3.99411V3.99411Z" fill="#080808"/>
<path fill-rule="evenodd" clip-rule="evenodd" d="M18.1453 2.42943C18.3529 2.34708 18.9343 2.18237 19.4325 2.1412C19.9308 2.1412 20.2215 2.22355 20.1384 2.67649C18.6436 2.67649 17.6471 2.96472 17.4394 3.95296C17.1488 5.60002 18.9758 5.6412 19.6817 4.90002L19.5986 5.35296H20.9273L21.5086 2.67649C21.7578 1.56472 20.7197 1.27649 19.8062 1.27649M19.8893 3.99414C19.8062 4.32355 19.5156 4.44708 19.1834 4.48825C18.8927 4.48825 18.6436 4.32355 18.8097 3.99414C18.9758 3.74708 19.3495 3.74708 19.6401 3.74708H19.9723C19.9308 3.7059 19.8893 3.87061 19.8893 3.99414V3.99414Z" fill="black"/>
<path fill-rule="evenodd" clip-rule="evenodd" d="M22.6298 0L21.5502 5.35294H22.8789L24 0H22.6298V0Z" fill="#080808"/>
<path fill-rule="evenodd" clip-rule="evenodd" d="M23.5848 0L21.5502 5.35294H22.8789L24 0H22.6298H23.5848Z" fill="black"/>
<path fill-rule="evenodd" clip-rule="evenodd" d="M16.4429 0H13.9931L12.9135 5.35294H14.3668L14.7405 3.70588H15.7785C16.7751 3.70588 17.6055 3.12941 17.8131 2.1C18.0207 0.905883 17.1488 0 16.4429 0ZM16.4014 1.85294C16.3183 2.22353 15.9446 2.47059 15.5709 2.47059H14.9066L15.1972 1.23529H15.9031C16.2768 1.23529 16.4844 1.48235 16.4014 1.85294V1.85294Z" fill="#080808"/>
<path fill-rule="evenodd" clip-rule="evenodd" d="M16.4429 0H14.782L12.872 5.35294H14.3253L14.699 3.70588H15.737C16.7336 3.70588 17.564 3.12941 17.7716 2.1C18.0208 0.905883 17.1488 0 16.4429 0V0ZM16.4014 1.85294C16.3183 2.22353 15.9446 2.47059 15.5709 2.47059H14.9066L15.1972 1.23529H15.9031C16.2768 1.23529 16.4844 1.48235 16.4014 1.85294V1.85294Z" fill="black"/>
<path fill-rule="evenodd" clip-rule="evenodd" d="M6.8512 1.23529C6.22836 1.23529 5.73009 1.39999 5.35639 1.48235L5.23182 2.4294C5.39791 2.34705 6.02075 2.18235 6.51902 2.14117C7.01729 2.14117 7.30795 2.22352 7.2249 2.67646C5.77162 2.67646 4.77508 2.9647 4.56746 3.95293C4.27681 5.59999 6.06228 5.64117 6.76816 4.89999L6.68511 5.35293H8.01383L8.59515 2.67646C8.80276 1.5647 7.7647 1.19411 6.8512 1.23529ZM6.97577 3.99411C6.89272 4.32352 6.60207 4.44705 6.26989 4.48823C5.97923 4.48823 5.7301 4.32352 5.93771 3.99411C6.1038 3.74705 6.4775 3.74705 6.72663 3.74705H7.05881C7.01729 3.70587 6.97577 3.87058 6.97577 3.99411Z" fill="black"/>
<path fill-rule="evenodd" clip-rule="evenodd" d="M5.27336 2.42943C5.43945 2.34708 6.06229 2.18237 6.56056 2.1412C7.05883 2.1412 7.34948 2.22355 7.26644 2.67649C5.81315 2.67649 4.81661 2.96472 4.609 3.95296C4.31834 5.60002 6.10381 5.6412 6.80969 4.90002L6.68512 5.35296H8.01384L8.59516 2.67649C8.84429 1.56472 7.80623 1.27649 6.89274 1.27649M6.97578 3.99414C6.89274 4.32355 6.60208 4.44708 6.2699 4.48825C5.97924 4.48825 5.73011 4.32355 5.93772 3.99414C6.10381 3.74708 6.47751 3.74708 6.72665 3.74708H7.05883C7.0173 3.7059 6.97578 3.87061 6.97578 3.99414Z" fill="black"/>
<path fill-rule="evenodd" clip-rule="evenodd" d="M9.13495 1.23529H10.4637L10.6713 3.54117L12 1.23529H13.3702L10.2145 7H8.71973L9.67474 5.27058L9.13495 1.23529V1.23529Z" fill="black"/>
<path fill-rule="evenodd" clip-rule="evenodd" d="M10.4637 1.31764L10.6713 3.58235L12 1.23529H13.3702L10.2145 7H8.71973L9.67474 5.31176" fill="black"/>
<path fill-rule="evenodd" clip-rule="evenodd" d="M3.57093 0H1.07958L0 5.35294H1.45329L1.82699 3.70588H2.86505C3.86159 3.70588 4.69204 3.12941 4.89965 2.1C5.14879 0.905883 4.27682 0 3.57093 0ZM3.52941 1.85294C3.44637 2.22353 3.07266 2.47059 2.69896 2.47059H2.0346L2.32526 1.23529H3.03114C3.40484 1.23529 3.61246 1.48235 3.52941 1.85294V1.85294Z" fill="black"/>
<path fill-rule="evenodd" clip-rule="evenodd" d="M3.57093 0H2.44983L0 5.35294H1.45329L1.82699 3.70588H2.86505C3.86159 3.70588 4.69204 3.12941 4.89965 2.1C5.14879 0.905883 4.27682 0 3.57093 0ZM3.52941 1.85294C3.44637 2.22353 3.07266 2.47059 2.69896 2.47059H2.0346L2.32526 1.23529H3.03114C3.40484 1.23529 3.61246 1.48235 3.52941 1.85294V1.85294Z" fill="black"/>
</svg>
