<svg width="26" height="8" viewBox="0 0 26 8" fill="none" xmlns="http://www.w3.org/2000/svg">
<path d="M26 4.10644C26 2.73305 25.0728 1.6618 23.3944 1.6618C21.7161 1.6618 20.6127 2.73991 20.6127 4.0927C20.6127 5.70644 21.8367 6.51674 23.5984 6.51674C24.2959 6.5318 24.9865 6.41104 25.6013 6.16652V5.12275C25.0497 5.3205 24.443 5.4193 23.8302 5.41116C23.1348 5.41116 22.5135 5.23262 22.4301 4.60086H26V4.10644V4.10644ZM22.4394 3.59828C22.4394 2.99399 22.9308 2.74678 23.3666 2.74678C23.8024 2.74678 24.2939 2.99399 24.2939 3.59828H22.4394ZM17.8588 1.68927C17.3332 1.69123 16.8274 1.83812 16.4401 2.10129L16.3474 1.77167H14.7618V8L16.5699 7.71845V6.20772C16.9331 6.42336 17.384 6.54192 17.8495 6.54421C19.1384 6.54421 20.316 5.77511 20.316 4.07897C20.3067 2.50644 19.1198 1.68927 17.8588 1.68927V1.68927ZM17.423 5.36996C17.2644 5.37598 17.106 5.35638 16.9586 5.3125C16.8113 5.26863 16.6787 5.20153 16.5699 5.11588V3.11073C16.6753 3.02105 16.8069 2.95032 16.9547 2.90392C17.1025 2.85751 17.2626 2.83665 17.423 2.84292C18.0813 2.84292 18.5357 3.39227 18.5357 4.0927C18.5357 4.79313 18.0906 5.34249 17.423 5.34249V5.36996ZM12.286 0.281545L14.0942 0V1.08498L12.286 1.37339V0.281545ZM12.286 1.77854H14.0942V6.42747H12.286V1.77854ZM11.8409 1.77854V3.00773C11.6014 2.94601 11.3424 2.93921 11.0975 2.98821C10.8527 3.03721 10.6335 3.13974 10.4686 3.2824V6.42747H8.66976V1.75107H10.2368L10.3481 2.14936C10.4938 1.96348 10.7235 1.82164 10.9965 1.74879C11.2696 1.67594 11.5686 1.67675 11.8409 1.75107V1.77854ZM6.73181 1.77854H8.10414V2.91846H6.73181V4.81373C6.73181 5.60343 7.87232 5.35622 8.10414 5.28755V6.37253C7.70551 6.50511 7.27031 6.56628 6.83381 6.55107C6.34197 6.55107 5.87027 6.40638 5.52248 6.14882C5.1747 5.89125 4.97931 5.54193 4.97931 5.17768V0.872103L6.74108 0.590558L6.73181 1.77854ZM4.61769 5.04034C4.61769 5.99485 3.58844 6.55107 2.08631 6.55107C1.40956 6.5477 0.740788 6.44257 0.120542 6.24206V4.94421C0.721792 5.19807 1.3951 5.3439 2.08631 5.36996C2.48502 5.36996 2.78174 5.29442 2.78174 5.04721C2.78174 4.40858 0 4.64893 0 3.17253C0 2.22489 0.927247 1.6618 2.43866 1.6618C3.05116 1.65777 3.6589 1.74172 4.22825 1.90901V3.1588C3.67524 2.94496 3.06243 2.82974 2.43866 2.82232C2.05849 2.82232 1.82668 2.89785 1.82668 3.11073C1.89158 3.70815 4.60842 3.41974 4.61769 5.01288V5.04034Z" fill="black"/>
</svg>
