<svg width="39" height="39" viewBox="0 0 39 39" fill="none" xmlns="http://www.w3.org/2000/svg">
<path fill-rule="evenodd" clip-rule="evenodd" d="M14.1305 7.3869C12.027 7.1518 9.84953 7.1518 7.74603 7.3869C7.23491 7.44402 6.83182 7.84874 6.77434 8.34029C6.52313 10.488 6.52313 12.6577 6.77434 14.8054C6.83182 15.2969 7.23491 15.7017 7.74603 15.7588C9.84953 15.9939 12.027 15.9939 14.1305 15.7588C14.6416 15.7017 15.0447 15.2969 15.1022 14.8054C15.3534 12.6577 15.3534 10.488 15.1022 8.34029C15.0447 7.84874 14.6416 7.44402 14.1305 7.3869ZM7.47034 4.92019C9.75706 4.66462 12.1194 4.66462 14.4061 4.92019C16.0457 5.10344 17.3736 6.39409 17.5673 8.05196C17.841 10.3912 17.841 12.7544 17.5673 15.0937C17.3736 16.7516 16.0457 18.0423 14.4061 18.2254C12.1194 18.4811 9.75706 18.4811 7.47034 18.2254C5.83079 18.0423 4.50298 16.7516 4.30909 15.0937C4.03548 12.7544 4.03548 10.3912 4.30909 8.05196C4.50298 6.39409 5.83079 5.10344 7.47034 4.92019Z" fill="#A1A1AA"/>
<path fill-rule="evenodd" clip-rule="evenodd" d="M14.1305 23.9338C12.027 23.6987 9.84953 23.6987 7.74603 23.9338C7.23491 23.9909 6.83182 24.3956 6.77434 24.8872C6.52313 27.0349 6.52313 29.2045 6.77434 31.3522C6.83182 31.8438 7.23491 32.2485 7.74603 32.3056C9.84953 32.5408 12.027 32.5408 14.1305 32.3056C14.6416 32.2485 15.0447 31.8438 15.1022 31.3522C15.3534 29.2045 15.3534 27.0349 15.1022 24.8872C15.0447 24.3956 14.6416 23.9909 14.1305 23.9338ZM7.47034 21.4671C9.75706 21.2115 12.1194 21.2115 14.4061 21.4671C16.0457 21.6503 17.3736 22.941 17.5673 24.5988C17.841 26.9381 17.841 29.3013 17.5673 31.6406C17.3736 33.2985 16.0457 34.5891 14.4061 34.7723C12.1194 35.028 9.75706 35.028 7.47034 34.7723C5.83079 34.5891 4.50298 33.2985 4.30909 31.6406C4.03548 29.3013 4.03548 26.9381 4.30909 24.5988C4.50298 22.941 5.83079 21.6503 7.47034 21.4671Z" fill="#A1A1AA"/>
<path fill-rule="evenodd" clip-rule="evenodd" d="M30.6772 7.3869C28.5735 7.1518 26.3961 7.1518 24.2926 7.3869C23.7815 7.44402 23.3784 7.84874 23.321 8.34029C23.0698 10.488 23.0698 12.6577 23.321 14.8054C23.3784 15.2969 23.7815 15.7017 24.2926 15.7588C26.3961 15.9939 28.5735 15.9939 30.6772 15.7588C31.1883 15.7017 31.5914 15.2969 31.6488 14.8054C31.9 12.6577 31.9 10.488 31.6488 8.34029C31.5914 7.84874 31.1883 7.44402 30.6772 7.3869ZM24.017 4.92019C26.3038 4.66462 28.666 4.66462 30.9528 4.92019C32.5923 5.10344 33.9202 6.39409 34.114 8.05196C34.3877 10.3912 34.3877 12.7544 34.114 15.0937C33.9202 16.7516 32.5923 18.0423 30.9528 18.2254C28.666 18.4811 26.3038 18.4811 24.017 18.2254C22.3775 18.0423 21.0496 16.7516 20.8557 15.0937C20.5821 12.7544 20.5821 10.3912 20.8557 8.05196C21.0496 6.39409 22.3775 5.10344 24.017 4.92019Z" fill="#A1A1AA"/>
<path fill-rule="evenodd" clip-rule="evenodd" d="M30.6772 23.9338C28.5735 23.6987 26.3961 23.6987 24.2926 23.9338C23.7815 23.9909 23.3784 24.3956 23.321 24.8872C23.0698 27.0349 23.0698 29.2045 23.321 31.3522C23.3784 31.8438 23.7815 32.2485 24.2926 32.3056C26.3961 32.5408 28.5735 32.5408 30.6772 32.3056C31.1883 32.2485 31.5914 31.8438 31.6488 31.3522C31.9 29.2045 31.9 27.0349 31.6488 24.8872C31.5914 24.3956 31.1883 23.9909 30.6772 23.9338ZM24.017 21.4671C26.3038 21.2115 28.666 21.2115 30.9528 21.4671C32.5923 21.6503 33.9202 22.941 34.114 24.5988C34.3877 26.9381 34.3877 29.3013 34.114 31.6406C33.9202 33.2985 32.5923 34.5891 30.9528 34.7723C28.666 35.028 26.3038 35.028 24.017 34.7723C22.3775 34.5891 21.0496 33.2985 20.8557 31.6406C20.5821 29.3013 20.5821 26.9381 20.8557 24.5988C21.0496 22.941 22.3775 21.6503 24.017 21.4671Z" fill="#A1A1AA"/>
</svg>
