<svg width="39" height="39" viewBox="0 0 39 39" fill="none" xmlns="http://www.w3.org/2000/svg">
<path d="M12.9123 35.6232H25.5106C31.8412 35.6232 32.975 33.0878 33.3057 30.0013L34.4868 17.403C34.912 13.5606 33.8096 10.4268 27.0853 10.4268H11.3375C4.61324 10.4268 3.51089 13.5606 3.93608 17.403L5.11717 30.0013C5.44787 33.0878 6.58171 35.6232 12.9123 35.6232Z" stroke="#A1A1AA" stroke-width="2.36217" stroke-miterlimit="10" stroke-linecap="round" stroke-linejoin="round"/>
<path d="M12.9126 10.4261V9.16625C12.9126 6.37889 12.9126 4.12695 17.9519 4.12695H20.4715C25.5108 4.12695 25.5108 6.37889 25.5108 9.16625V10.4261" stroke="#A1A1AA" stroke-width="2.36217" stroke-miterlimit="10" stroke-linecap="round" stroke-linejoin="round"/>
<path d="M22.361 21.4498V23.0246C22.361 23.0403 22.361 23.0403 22.361 23.0561C22.361 24.7726 22.3453 26.1741 19.2114 26.1741C16.0934 26.1741 16.0619 24.7883 16.0619 23.0718V21.4498C16.0619 19.875 16.0619 19.875 17.6367 19.875H20.7862C22.361 19.875 22.361 19.875 22.361 21.4498Z" stroke="#A1A1AA" stroke-width="2.36217" stroke-miterlimit="10" stroke-linecap="round" stroke-linejoin="round"/>
<path d="M34.4084 18.3008C30.7706 20.9464 26.6132 22.5212 22.3613 23.0566" stroke="#A1A1AA" stroke-width="2.36217" stroke-miterlimit="10" stroke-linecap="round" stroke-linejoin="round"/>
<path d="M4.44019 18.7256C7.98344 21.1507 11.9834 22.6153 16.0621 23.072" stroke="#A1A1AA" stroke-width="2.36217" stroke-miterlimit="10" stroke-linecap="round" stroke-linejoin="round"/>
</svg>
