<svg width="39" height="39" viewBox="0 0 39 39" fill="none" xmlns="http://www.w3.org/2000/svg">
<path d="M6.57436 10.3505C4.5744 12.9961 3.39331 16.2874 3.39331 19.8464C3.39331 28.5392 10.4483 35.5942 19.1411 35.5942C27.8339 35.5942 34.8889 28.5392 34.8889 19.8464C34.8889 11.1536 27.8339 4.09863 19.1411 4.09863" stroke="#A1A1AA" stroke-width="2.36217" stroke-linecap="round" stroke-linejoin="round"/>
<path d="M8.11768 19.8462C8.11768 25.9406 13.0467 30.8697 19.1411 30.8697C25.2355 30.8697 30.1646 25.9406 30.1646 19.8462C30.1646 13.7518 25.2355 8.82275 19.1411 8.82275" stroke="#A1A1AA" stroke-width="2.36217" stroke-linecap="round" stroke-linejoin="round"/>
<path d="M19.1412 26.1451C22.6215 26.1451 25.4404 23.3263 25.4404 19.846C25.4404 16.3657 22.6215 13.5469 19.1412 13.5469" stroke="#A1A1AA" stroke-width="2.36217" stroke-linecap="round" stroke-linejoin="round"/>
</svg>
