<svg width="39" height="39" viewBox="0 0 39 39" fill="none" xmlns="http://www.w3.org/2000/svg">
<path d="M8.18091 15.7178C9.31475 5.51324 20.2752 5.13529 24.0547 9.67067" stroke="#A1A1AA" stroke-width="2.8346" stroke-miterlimit="10" stroke-linecap="round" stroke-linejoin="round"/>
<path d="M34.7316 22.9615C35.1568 25.5914 34.4167 28.4102 32.1647 30.3945C30.6057 31.8275 28.5585 32.6149 26.4325 32.5991H8.96823C1.61401 32.0637 1.59826 21.3552 8.96823 20.8198H9.04697C8.4328 19.119 8.21233 17.5443 8.29107 16.127" stroke="#A1A1AA" stroke-width="2.8346" stroke-miterlimit="10" stroke-linecap="round" stroke-linejoin="round"/>
<path d="M11.6777 21.4662C10.8585 21.0566 9.96058 20.8361 9.04688 20.8203" stroke="#A1A1AA" stroke-width="2.8346" stroke-miterlimit="10" stroke-linecap="round" stroke-linejoin="round"/>
<path d="M34.8417 14.3633C34.8417 16.0955 34.0386 17.6546 32.763 18.6624C31.8339 19.4183 30.6213 19.875 29.33 19.875C26.2906 19.875 23.8182 17.4026 23.8182 14.3633C23.8182 12.8515 24.4324 11.4814 25.4403 10.4893V10.4736C26.4324 9.46573 27.8182 8.85156 29.33 8.85156C32.3693 8.85156 34.8417 11.324 34.8417 14.3633Z" stroke="#A1A1AA" stroke-width="2.8346" stroke-miterlimit="10" stroke-linecap="round" stroke-linejoin="round"/>
</svg>
