<svg width="39" height="39" viewBox="0 0 39 39" fill="none" xmlns="http://www.w3.org/2000/svg">
<path d="M14.4168 28.9383C14.2436 28.9383 14.0546 28.8911 13.8971 28.8123C12.6846 28.1982 11.6452 27.2848 10.8893 26.1509C10.2594 25.2061 10.2594 23.9935 10.8893 23.0486C11.6452 21.9148 12.6846 21.0014 13.8971 20.403C14.4798 20.1038 15.1885 20.3558 15.4877 20.9384C15.7869 21.5211 15.5507 22.2297 14.9522 22.529C14.1019 22.9541 13.3775 23.5998 12.8578 24.3872C12.7633 24.5289 12.7633 24.7179 12.8578 24.8754C13.3775 25.6628 14.1019 26.3084 14.9522 26.7336C15.5349 27.0328 15.7711 27.7415 15.4877 28.3241C15.2672 28.7021 14.842 28.9383 14.4168 28.9383Z" fill="#A1A1AA"/>
<path d="M24.1965 28.9385C23.7556 28.9385 23.3461 28.7023 23.1414 28.2928C22.8422 27.7102 23.0784 27.0015 23.6769 26.7023C24.5272 26.2771 25.2516 25.6315 25.7713 24.8441C25.8658 24.7023 25.8658 24.5134 25.7713 24.3559C25.2516 23.5685 24.5272 22.9228 23.6769 22.4976C23.0942 22.1984 22.858 21.4898 23.1414 20.9071C23.4406 20.3244 24.1493 20.0882 24.732 20.3717C25.9445 20.9859 26.9839 21.8992 27.7398 23.0331C28.3697 23.9779 28.3697 25.1905 27.7398 26.1354C26.9839 27.2692 25.9445 28.1826 24.732 28.781C24.543 28.8912 24.3698 28.9385 24.1965 28.9385Z" fill="#A1A1AA"/>
<path d="M23.8653 36.8128H14.4166C5.86552 36.8128 2.21204 33.1593 2.21204 24.6083V15.1596C2.21204 6.60857 5.86552 2.95508 14.4166 2.95508H23.8653C32.4163 2.95508 36.0698 6.60857 36.0698 15.1596V24.6083C36.0698 33.1593 32.4163 36.8128 23.8653 36.8128ZM14.4166 5.31725C7.15684 5.31725 4.57421 7.89989 4.57421 15.1596V24.6083C4.57421 31.868 7.15684 34.4507 14.4166 34.4507H23.8653C31.125 34.4507 33.7076 31.868 33.7076 24.6083V15.1596C33.7076 7.89989 31.125 5.31725 23.8653 5.31725H14.4166Z" fill="#A1A1AA"/>
<path d="M3.75665 14.7812C3.11099 14.7812 2.57556 14.2458 2.57556 13.6002C2.57556 12.9545 3.09524 12.4191 3.75665 12.4191L34.0239 12.4033C34.6696 12.4033 35.205 12.9387 35.205 13.5844C35.205 14.2301 34.6853 14.7655 34.0239 14.7655L3.75665 14.7812Z" fill="#A1A1AA"/>
</svg>
