<svg width="39" height="39" viewBox="0 0 39 39" fill="none" xmlns="http://www.w3.org/2000/svg">
<path d="M27.1488 30.8561H12.3459C11.6845 30.8561 10.9443 30.3365 10.7238 29.7066L4.20426 11.4706C3.27514 8.85648 4.36174 8.05334 6.59792 9.65962L12.7396 14.0533C13.7632 14.7619 14.9285 14.3997 15.3694 13.2501L18.1411 5.8644C19.0229 3.50223 20.4875 3.50223 21.3694 5.8644L24.141 13.2501C24.5819 14.3997 25.7472 14.7619 26.7551 14.0533L32.5188 9.94308C34.9754 8.17933 36.1565 9.07695 35.1487 11.9273L28.7866 29.7381C28.5503 30.3365 27.8102 30.8561 27.1488 30.8561Z" stroke="#A1A1AA" stroke-width="2.36217" stroke-linecap="round" stroke-linejoin="round"/>
<path d="M11.0864 35.6123H28.409" stroke="#A1A1AA" stroke-width="2.36217" stroke-linecap="round" stroke-linejoin="round"/>
<path d="M15.8108 23.0142H23.6847" stroke="#A1A1AA" stroke-width="2.36217" stroke-linecap="round" stroke-linejoin="round"/>
</svg>
