<svg width="39" height="39" viewBox="0 0 39 39" fill="none" xmlns="http://www.w3.org/2000/svg">
<path fill-rule="evenodd" clip-rule="evenodd" d="M20.9595 6.25019C19.9027 5.69859 18.4706 5.69009 17.4054 6.24027C13.322 8.34912 9.61828 10.7671 6.37271 13.4489C5.87081 13.8637 5.51463 14.4663 5.52071 15.1757C5.52675 15.8821 5.89018 16.4767 6.38904 16.8846C9.60765 19.5163 13.3144 21.9365 17.323 24.0286C18.3798 24.5803 19.812 24.5888 20.8773 24.0385C24.9605 21.9298 28.6643 19.5117 31.9099 16.8298C32.4118 16.4152 32.768 15.8125 32.7618 15.1031C32.7557 14.3967 32.3924 13.8021 31.8935 13.3942C28.6748 10.7625 24.9681 8.34234 20.9595 6.25019ZM18.4893 8.33905C18.8666 8.14414 19.4866 8.14599 19.8666 8.3443C23.6922 10.341 27.2172 12.6381 30.2712 15.1193C27.1991 17.6404 23.6845 19.9301 19.7934 21.9397C19.4159 22.1346 18.7959 22.1328 18.4159 21.9345C14.5903 19.9378 11.0653 17.6407 8.01139 15.1595C11.0835 12.6384 14.598 10.3487 18.4893 8.33905Z" fill="#A1A1AA"/>
<path d="M33.6244 20.9547C33.9699 21.5079 33.8014 22.2366 33.248 22.5821L23.6305 28.5866C22.3255 29.4014 20.7063 29.7781 19.141 29.7781C17.5758 29.7782 15.9565 29.4017 14.6512 28.587L5.13906 22.6506C4.58568 22.3053 4.41705 21.5766 4.76242 21.0232C5.10776 20.4698 5.83634 20.3012 6.3897 20.6465L15.9019 26.5831C16.7588 27.1179 17.9229 27.416 19.1408 27.4159C20.3589 27.4159 21.5228 27.1176 22.3795 26.5828L31.9972 20.5783C32.5504 20.2328 33.279 20.4013 33.6244 20.9547Z" fill="#A1A1AA"/>
<path d="M33.6244 26.8675C33.9699 27.4209 33.8014 28.1494 33.2482 28.4949L24.9193 33.6963C23.2538 34.7364 21.1704 35.2257 19.141 35.2258C17.1116 35.226 15.028 34.7369 13.3622 33.697L5.13893 28.5634C4.58559 28.2181 4.41706 27.4894 4.76249 26.9362C5.1079 26.3828 5.83649 26.2143 6.38982 26.5597L14.6131 31.6931C15.8304 32.4531 17.4586 32.8638 19.1408 32.8637C20.823 32.8635 22.451 32.4528 23.6682 31.6927L31.997 26.4915C32.5502 26.146 33.2789 26.3143 33.6244 26.8675Z" fill="#A1A1AA"/>
</svg>
