<svg width="39" height="39" viewBox="0 0 39 39" fill="none" xmlns="http://www.w3.org/2000/svg">
<path d="M34.3535 17.4082L32.8103 23.9908C31.4874 29.6757 28.8733 31.9749 23.96 31.5025C23.1726 31.4395 22.3222 31.2977 21.4088 31.0773L18.7632 30.4474C12.1964 28.8883 10.1649 25.6443 11.7082 19.0617L13.2515 12.4634C13.5664 11.1248 13.9444 9.95949 14.4168 8.99887C16.2593 5.1879 19.3931 4.1643 24.6529 5.40837L27.2828 6.02254C33.8811 7.56582 35.8968 10.8256 34.3535 17.4082Z" stroke="#A1A1AA" stroke-width="2.36217" stroke-linecap="round" stroke-linejoin="round"/>
<path d="M23.9601 31.5026C22.9838 32.164 21.7555 32.7152 20.2594 33.2034L17.7713 34.0223C11.5194 36.038 8.2281 34.353 6.19663 28.1011L4.18092 21.8807C2.1652 15.6288 3.83447 12.3218 10.0863 10.3061L12.5745 9.4872C13.2202 9.28248 13.8343 9.10926 14.417 8.99902C13.9445 9.95964 13.5666 11.125 13.2516 12.4635L11.7084 19.0619C10.1651 25.6444 12.1965 28.8885 18.7634 30.4475L21.409 31.0774C22.3224 31.2979 23.1728 31.4396 23.9601 31.5026Z" stroke="#A1A1AA" stroke-width="2.36217" stroke-linecap="round" stroke-linejoin="round"/>
<path d="M20.149 14.4009L27.7867 16.3379" stroke="#A1A1AA" stroke-width="2.36217" stroke-linecap="round" stroke-linejoin="round"/>
<path d="M18.6058 20.4946L23.1727 21.66" stroke="#A1A1AA" stroke-width="2.36217" stroke-linecap="round" stroke-linejoin="round"/>
</svg>
