<svg width="39" height="39" viewBox="0 0 39 39" fill="none" xmlns="http://www.w3.org/2000/svg">
<path fill-rule="evenodd" clip-rule="evenodd" d="M17.1365 6.26933C18.2998 4.26438 21.1951 4.2644 22.3585 6.26933L25.9213 12.4093C26.2498 12.9753 26.8173 13.3615 27.4644 13.4592L33.3805 14.3528C35.9594 14.7423 36.864 17.9985 34.8556 19.6623L30.5449 23.2337C29.94 23.7349 29.6555 24.5256 29.8025 25.2976L31.01 31.6386C31.483 34.1226 28.8753 36.0526 26.6379 34.8744L20.7521 31.7754C20.1232 31.4442 19.3718 31.4442 18.7428 31.7754L12.857 34.8744C10.6197 36.0526 8.01206 34.1226 8.48506 31.6386L9.69254 25.2976C9.83951 24.5256 9.55502 23.7349 8.94999 23.2337L4.63932 19.6623C2.6309 17.9985 3.53552 14.7423 6.11441 14.3528L12.0306 13.4592C12.6776 13.3615 13.2452 12.9753 13.5736 12.4093L17.1365 6.26933ZM20.1204 7.56798C19.9543 7.28155 19.5407 7.28155 19.3745 7.56798L15.8117 13.708C15.0892 14.9531 13.8404 15.8027 12.4171 16.0177L6.50085 16.9114C6.13244 16.9669 6.0032 17.4321 6.29012 17.6699L10.6008 21.2412C11.9319 22.344 12.5578 24.0835 12.2344 25.7814L11.0269 32.1226C10.9593 32.4775 11.3318 32.7533 11.6515 32.5849L17.5374 29.4858C18.9207 28.7573 20.5743 28.7573 21.9576 29.4858L27.8435 32.5849C28.1632 32.7533 28.5356 32.4775 28.468 32.1226L27.2607 25.7814C26.9372 24.0835 27.563 22.344 28.8943 21.2412L33.2049 17.6699C33.4918 17.4321 33.3626 16.9669 32.9941 16.9114L27.078 16.0177C25.6545 15.8027 24.4057 14.9531 23.6833 13.708L20.1204 7.56798Z" fill="#A1A1AA"/>
</svg>
