<svg width="39" height="39" viewBox="0 0 39 39" fill="none" xmlns="http://www.w3.org/2000/svg">
<path d="M14.7393 18.0855C14.5819 18.0697 14.3929 18.0697 14.2197 18.0855C10.4717 17.9595 7.49536 14.8887 7.49536 11.1092C7.49536 7.251 10.6134 4.11719 14.4874 4.11719C18.3456 4.11719 21.4794 7.251 21.4794 11.1092C21.4637 14.8887 18.4873 17.9595 14.7393 18.0855Z" stroke="#A1A1AA" stroke-width="2.36217" stroke-linecap="round" stroke-linejoin="round"/>
<path d="M26.1564 7.2666C29.2115 7.2666 31.6681 9.73901 31.6681 12.7783C31.6681 15.7547 29.3059 18.1798 26.3611 18.2901C26.2351 18.2743 26.0934 18.2743 25.9517 18.2901" stroke="#A1A1AA" stroke-width="2.36217" stroke-linecap="round" stroke-linejoin="round"/>
<path d="M6.86518 23.8962C3.05422 26.4474 3.05422 30.6048 6.86518 33.1402C11.1958 36.0378 18.2981 36.0378 22.6287 33.1402C26.4397 30.5891 26.4397 26.4316 22.6287 23.8962C18.3138 21.0144 11.2116 21.0144 6.86518 23.8962Z" stroke="#A1A1AA" stroke-width="2.36217" stroke-linecap="round" stroke-linejoin="round"/>
<path d="M29.1959 32.4633C30.3298 32.2271 31.4006 31.7704 32.2825 31.0933C34.7391 29.2508 34.7391 26.2114 32.2825 24.369C31.4164 23.7076 30.3613 23.2666 29.2432 23.0146" stroke="#A1A1AA" stroke-width="2.36217" stroke-linecap="round" stroke-linejoin="round"/>
</svg>
